CourierPrime-Italic.ufo
<glyph name="exclam" format="1">
  <advance width="1228"/>
  <unicode hex="0021"/>
  <outline>
    <contour>
      <point x="682" y="1209" type="line" smooth="yes"/>
      <point x="652" y="1209"/>
      <point x="635" y="1194"/>
      <point x="632" y="1159" type="curve" smooth="yes"/>
      <point x="566" y="512" type="line" smooth="yes"/>
      <point x="563" y="481"/>
      <point x="581" y="464"/>
      <point x="615" y="464" type="curve" smooth="yes"/>
      <point x="650" y="464"/>
      <point x="673" y="481"/>
      <point x="681" y="512" type="curve" smooth="yes"/>
      <point x="844" y="1159" type="line" smooth="yes"/>
      <point x="853" y="1194"/>
      <point x="842" y="1209"/>
      <point x="812" y="1209" type="curve" smooth="yes"/>
    </contour>
    <contour>
      <point x="509" y="286"/>
      <point x="422" y="207"/>
      <point x="422" y="110" type="curve" smooth="yes"/>
      <point x="422" y="37"/>
      <point x="476" y="-22"/>
      <point x="554" y="-22" type="curve" smooth="yes"/>
      <point x="646" y="-22"/>
      <point x="732" y="57"/>
      <point x="732" y="153" type="curve" smooth="yes"/>
      <point x="732" y="227"/>
      <point x="678" y="286"/>
      <point x="600" y="286" type="curve" smooth="yes"/>
    </contour>
  </outline>
</glyph>
<glyph name="quotedbl" format="1">
  <advance width="1228"/>
  <unicode hex="0022"/>
  <outline>
    <contour>
      <point x="485" y="1209" type="line" smooth="yes"/>
      <point x="455" y="1209"/>
      <point x="437" y="1194"/>
      <point x="435" y="1159" type="curve" smooth="yes"/>
      <point x="411" y="709" type="line" smooth="yes"/>
      <point x="409" y="675"/>
      <point x="430" y="655"/>
      <point x="469" y="655" type="curve" smooth="yes"/>
      <point x="509" y="655"/>
      <point x="537" y="675"/>
      <point x="547" y="709" type="curve" smooth="yes"/>
      <point x="681" y="1159" type="line" smooth="yes"/>
      <point x="691" y="1194"/>
      <point x="679" y="1209"/>
      <point x="649" y="1209" type="curve" smooth="yes"/>
    </contour>
    <contour>
      <point x="865" y="1209" type="line" smooth="yes"/>
      <point x="835" y="1209"/>
      <point x="817" y="1194"/>
      <point x="815" y="1159" type="curve" smooth="yes"/>
      <point x="791" y="709" type="line" smooth="yes"/>
      <point x="789" y="675"/>
      <point x="810" y="655"/>
      <point x="849" y="655" type="curve" smooth="yes"/>
      <point x="889" y="655"/>
      <point x="917" y="675"/>
      <point x="927" y="709" type="curve" smooth="yes"/>
      <point x="1061" y="1159" type="line" smooth="yes"/>
      <point x="1071" y="1194"/>
      <point x="1059" y="1209"/>
      <point x="1029" y="1209" type="curve" smooth="yes"/>
    </contour>
  </outline>
</glyph>
<glyph name="numbersign" format="1">
  <advance width="1228"/>
  <unicode hex="0023"/>
  <outline>
    <contour>
      <point x="1079" y="1209"/>
      <point x="1054" y="1199"/>
      <point x="1043" y="1176" type="curve" smooth="yes"/>
      <point x="888" y="861" type="line"/>
      <point x="669" y="861" type="line"/>
      <point x="807" y="1142" type="line" smooth="yes"/>
      <point x="827" y="1183"/>
      <point x="789" y="1209"/>
      <point x="749" y="1209" type="curve" smooth="yes"/>
      <point x="725" y="1209"/>
      <point x="700" y="1199"/>
      <point x="689" y="1176" type="curve" smooth="yes"/>
      <point x="534" y="861" type="line"/>
      <point x="284" y="861" type="line" smooth="yes"/>
      <point x="239" y="861"/>
      <point x="218" y="843"/>
      <point x="209" y="793" type="curve" smooth="yes"/>
      <point x="201" y="743"/>
      <point x="215" y="725"/>
      <point x="260" y="725" type="curve" smooth="yes"/>
      <point x="468" y="725" type="line"/>
      <point x="344" y="472" type="line"/>
      <point x="116" y="472" type="line" smooth="yes"/>
      <point x="71" y="472"/>
      <point x="50" y="454"/>
      <point x="41" y="404" type="curve" smooth="yes"/>
      <point x="32" y="354"/>
      <point x="47" y="336"/>
      <point x="92" y="336" type="curve" smooth="yes"/>
      <point x="277" y="336" type="line"/>
      <point x="135" y="45" type="line" smooth="yes"/>
      <point x="115" y="4"/>
      <point x="154" y="-22"/>
      <point x="193" y="-22" type="curve" smooth="yes"/>
      <point x="218" y="-22"/>
      <point x="242" y="-12"/>
      <point x="253" y="11" type="curve" smooth="yes"/>
      <point x="412" y="336" type="line"/>
      <point x="631" y="336" type="line"/>
      <point x="489" y="45" type="line" smooth="yes"/>
      <point x="469" y="4"/>
      <point x="508" y="-22"/>
      <point x="547" y="-22" type="curve" smooth="yes"/>
      <point x="572" y="-22"/>
      <point x="596" y="-12"/>
      <point x="607" y="11" type="curve" smooth="yes"/>
      <point x="766" y="336" type="line"/>
      <point x="1014" y="336" type="line" smooth="yes"/>
      <point x="1059" y="336"/>
      <point x="1080" y="354"/>
      <point x="1089" y="404" type="curve" smooth="yes"/>
      <point x="1098" y="454"/>
      <point x="1083" y="472"/>
      <point x="1038" y="472" type="curve" smooth="yes"/>
      <point x="833" y="472" type="line"/>
      <point x="957" y="725" type="line"/>
      <point x="1182" y="725" type="line" smooth="yes"/>
      <point x="1227" y="725"/>
      <point x="1249" y="743"/>
      <point x="1257" y="793" type="curve" smooth="yes"/>
      <point x="1266" y="843"/>
      <point x="1251" y="861"/>
      <point x="1206" y="861" type="curve" smooth="yes"/>
      <point x="1023" y="861" type="line"/>
      <point x="1161" y="1142" type="line" smooth="yes"/>
      <point x="1181" y="1183"/>
      <point x="1143" y="1209"/>
      <point x="1103" y="1209" type="curve" smooth="yes"/>
    </contour>
    <contour>
      <point x="698" y="472" type="line"/>
      <point x="479" y="472" type="line"/>
      <point x="603" y="725" type="line"/>
      <point x="822" y="725" type="line"/>
    </contour>
  </outline>
</glyph>
<glyph name="dollar" format="1">
  <advance width="1228"/>
  <unicode hex="0024"/>
  <outline>
    <contour>
      <point x="720" y="1312"/>
      <point x="695" y="1293"/>
      <point x="687" y="1247" type="curve" smooth="yes"/>
      <point x="658" y="1086" type="line"/>
      <point x="386" y="1086"/>
      <point x="254" y="934"/>
      <point x="254" y="769" type="curve" smooth="yes"/>
      <point x="254" y="669"/>
      <point x="320" y="617"/>
      <point x="410" y="587" type="curve" smooth="yes"/>
      <point x="461" y="570"/>
      <point x="513" y="561"/>
      <point x="565" y="554" type="curve"/>
      <point x="515" y="271" type="line"/>
      <point x="402" y="291"/>
      <point x="338" y="347"/>
      <point x="317" y="447" type="curve" smooth="yes"/>
      <point x="311" y="476"/>
      <point x="299" y="488"/>
      <point x="270" y="488" type="curve" smooth="yes"/>
      <point x="214" y="488"/>
      <point x="191" y="469"/>
      <point x="183" y="423" type="curve" smooth="yes"/>
      <point x="141" y="183" type="line" smooth="yes"/>
      <point x="133" y="137"/>
      <point x="149" y="118"/>
      <point x="205" y="118" type="curve" smooth="yes"/>
      <point x="261" y="118"/>
      <point x="283" y="137"/>
      <point x="291" y="183" type="curve" smooth="yes"/>
      <point x="301" y="239" type="line"/>
      <point x="347" y="183"/>
      <point x="409" y="146"/>
      <point x="490" y="129" type="curve"/>
      <point x="457" y="-60" type="line" smooth="yes"/>
      <point x="449" y="-106"/>
      <point x="466" y="-125"/>
      <point x="515" y="-125" type="curve" smooth="yes"/>
      <point x="564" y="-125"/>
      <point x="589" y="-106"/>
      <point x="597" y="-60" type="curve" smooth="yes"/>
      <point x="628" y="118" type="line"/>
      <point x="964" y="124"/>
      <point x="1056" y="329"/>
      <point x="1056" y="460" type="curve" smooth="yes"/>
      <point x="1056" y="565"/>
      <point x="987" y="620"/>
      <point x="895" y="650" type="curve" smooth="yes"/>
      <point x="840" y="667"/>
      <point x="784" y="677"/>
      <point x="728" y="684" type="curve"/>
      <point x="771" y="931" type="line"/>
      <point x="860" y="914"/>
      <point x="922" y="873"/>
      <point x="950" y="792" type="curve" smooth="yes"/>
      <point x="956" y="775"/>
      <point x="970" y="766"/>
      <point x="994" y="766" type="curve" smooth="yes"/>
      <point x="1050" y="766"/>
      <point x="1072" y="785"/>
      <point x="1080" y="831" type="curve" smooth="yes"/>
      <point x="1114" y="1021" type="line" smooth="yes"/>
      <point x="1122" y="1067"/>
      <point x="1106" y="1086"/>
      <point x="1050" y="1086" type="curve" smooth="yes"/>
      <point x="994" y="1086"/>
      <point x="972" y="1067"/>
      <point x="964" y="1021" type="curve" smooth="yes"/>
      <point x="956" y="976" type="line"/>
      <point x="917" y="1018"/>
      <point x="862" y="1050"/>
      <point x="795" y="1069" type="curve"/>
      <point x="827" y="1247" type="line" smooth="yes"/>
      <point x="835" y="1293"/>
      <point x="818" y="1312"/>
      <point x="769" y="1312" type="curve" smooth="yes"/>
    </contour>
    <contour>
      <point x="731" y="533"/>
      <point x="759" y="528"/>
      <point x="788" y="522" type="curve" smooth="yes"/>
      <point x="852" y="507"/>
      <point x="896" y="482"/>
      <point x="896" y="433" type="curve" smooth="yes"/>
      <point x="896" y="372"/>
      <point x="844" y="272"/>
      <point x="654" y="263" type="curve"/>
      <point x="702" y="537" type="line"/>
    </contour>
    <contour>
      <point x="591" y="701" type="line"/>
      <point x="568" y="704"/>
      <point x="545" y="708"/>
      <point x="523" y="713" type="curve" smooth="yes"/>
      <point x="457" y="727"/>
      <point x="414" y="749"/>
      <point x="414" y="795" type="curve" smooth="yes"/>
      <point x="414" y="866"/>
      <point x="483" y="937"/>
      <point x="633" y="941" type="curve"/>
    </contour>
  </outline>
</glyph>
<glyph name="ampersand" format="1">
  <advance width="1228"/>
  <unicode hex="0026"/>
  <outline>
    <contour>
      <point x="1027" y="1051" type="line"/>
      <point x="1031" y="1077"/>
      <point x="1028" y="1094"/>
      <point x="1015" y="1105" type="curve" smooth="yes"/>
      <point x="940" y="1166"/>
      <point x="838" y="1209"/>
      <point x="711" y="1209" type="curve" smooth="yes"/>
      <point x="464" y="1209"/>
      <point x="326" y="1020"/>
      <point x="326" y="843" type="curve" smooth="yes"/>
      <point x="326" y="766"/>
      <point x="353" y="698"/>
      <point x="388" y="643" type="curve"/>
      <point x="238" y="553"/>
      <point x="128" y="431"/>
      <point x="128" y="258" type="curve" smooth="yes"/>
      <point x="128" y="105"/>
      <point x="231" y="-22"/>
      <point x="422" y="-22" type="curve" smooth="yes"/>
      <point x="543" y="-22"/>
      <point x="655" y="35"/>
      <point x="753" y="130" type="curve"/>
      <point x="823" y="33" type="line" smooth="yes"/>
      <point x="840" y="10"/>
      <point x="867" y="0"/>
      <point x="896" y="0" type="curve" smooth="yes"/>
      <point x="1000" y="0" type="line" smooth="yes"/>
      <point x="1045" y="0"/>
      <point x="1066" y="18"/>
      <point x="1074" y="68" type="curve" smooth="yes"/>
      <point x="1083" y="118"/>
      <point x="1068" y="136"/>
      <point x="1023" y="136" type="curve" smooth="yes"/>
      <point x="939" y="136" type="line"/>
      <point x="856" y="251" type="line"/>
      <point x="904" y="317"/>
      <point x="947" y="392"/>
      <point x="986" y="475" type="curve"/>
      <point x="1069" y="475" type="line" smooth="yes"/>
      <point x="1114" y="475"/>
      <point x="1135" y="493"/>
      <point x="1144" y="543" type="curve" smooth="yes"/>
      <point x="1153" y="593"/>
      <point x="1138" y="611"/>
      <point x="1093" y="611" type="curve" smooth="yes"/>
      <point x="932" y="611" type="line" smooth="yes"/>
      <point x="902" y="611"/>
      <point x="884" y="593"/>
      <point x="873" y="569" type="curve" smooth="yes"/>
      <point x="840" y="498"/>
      <point x="805" y="432"/>
      <point x="768" y="374" type="curve"/>
      <point x="535" y="702" type="line" smooth="yes"/>
      <point x="501" y="750"/>
      <point x="482" y="796"/>
      <point x="482" y="850" type="curve" smooth="yes"/>
      <point x="482" y="974"/>
      <point x="577" y="1061"/>
      <point x="694" y="1061" type="curve" smooth="yes"/>
      <point x="770" y="1061"/>
      <point x="828" y="1043"/>
      <point x="870" y="1014" type="curve"/>
      <point x="854" y="924" type="line" smooth="yes"/>
      <point x="846" y="878"/>
      <point x="862" y="859"/>
      <point x="918" y="859" type="curve" smooth="yes"/>
      <point x="974" y="859"/>
      <point x="996" y="878"/>
      <point x="1004" y="924" type="curve" smooth="yes"/>
    </contour>
    <contour>
      <point x="343" y="126"/>
      <point x="286" y="187"/>
      <point x="286" y="274" type="curve" smooth="yes"/>
      <point x="286" y="395"/>
      <point x="370" y="475"/>
      <point x="466" y="533" type="curve"/>
      <point x="671" y="245" type="line"/>
      <point x="601" y="170"/>
      <point x="524" y="126"/>
      <point x="438" y="126" type="curve" smooth="yes"/>
    </contour>
  </outline>
</glyph>
<glyph name="quotesingle" format="1">
  <advance width="1228"/>
  <unicode hex="0027"/>
  <outline>
    <contour>
      <point x="675" y="1209" type="line" smooth="yes"/>
      <point x="645" y="1209"/>
      <point x="627" y="1194"/>
      <point x="625" y="1159" type="curve" smooth="yes"/>
      <point x="601" y="709" type="line" smooth="yes"/>
      <point x="599" y="675"/>
      <point x="620" y="655"/>
      <point x="659" y="655" type="curve" smooth="yes"/>
      <point x="699" y="655"/>
      <point x="727" y="675"/>
      <point x="737" y="709" type="curve" smooth="yes"/>
      <point x="871" y="1159" type="line" smooth="yes"/>
      <point x="881" y="1194"/>
      <point x="869" y="1209"/>
      <point x="839" y="1209" type="curve" smooth="yes"/>
    </contour>
  </outline>
</glyph>
<glyph name="parenright" format="1">
  <advance width="1228"/>
  <unicode hex="0029"/>
  <outline>
    <contour>
      <point x="593" y="1331"/>
      <point x="563" y="1316"/>
      <point x="541" y="1292" type="curve" smooth="yes"/>
      <point x="516" y="1265"/>
      <point x="503" y="1226"/>
      <point x="522" y="1212" type="curve" smooth="yes"/>
      <point x="671" y="1101"/>
      <point x="808" y="901"/>
      <point x="808" y="615" type="curve"/>
      <point x="808" y="234"/>
      <point x="597" y="-90"/>
      <point x="258" y="-266" type="curve" smooth="yes"/>
      <point x="233" y="-279"/>
      <point x="233" y="-322"/>
      <point x="248" y="-357" type="curve" smooth="yes"/>
      <point x="261" y="-389"/>
      <point x="287" y="-413"/>
      <point x="319" y="-398" type="curve" smooth="yes"/>
      <point x="692" y="-216"/>
      <point x="955" y="189"/>
      <point x="955" y="615" type="curve" smooth="yes"/>
      <point x="955" y="950"/>
      <point x="788" y="1198"/>
      <point x="618" y="1314" type="curve" smooth="yes"/>
    </contour>
  </outline>
</glyph>
<glyph name="comma" format="1">
  <advance width="1228"/>
  <unicode hex="002C"/>
  <outline>
    <contour>
      <point x="729" y="231" type="line" smooth="yes"/>
      <point x="753" y="266"/>
      <point x="745" y="294"/>
      <point x="712" y="294" type="curve" smooth="yes"/>
      <point x="504" y="294" type="line" smooth="yes"/>
      <point x="476" y="294"/>
      <point x="455" y="280"/>
      <point x="445" y="254" type="curve" smooth="yes"/>
      <point x="261" y="-228" type="line" smooth="yes"/>
      <point x="245" y="-270"/>
      <point x="273" y="-294"/>
      <point x="312" y="-294" type="curve" smooth="yes"/>
      <point x="341" y="-294"/>
      <point x="367" y="-281"/>
      <point x="387" y="-253" type="curve" smooth="yes"/>
    </contour>
  </outline>
</glyph>
<glyph name="period" format="1">
  <advance width="1228"/>
  <unicode hex="002E"/>
  <outline>
    <contour>
      <point x="646" y="-22"/>
      <point x="740" y="65"/>
      <point x="740" y="172" type="curve" smooth="yes"/>
      <point x="740" y="251"/>
      <point x="680" y="316"/>
      <point x="595" y="316" type="curve" smooth="yes"/>
      <point x="495" y="316"/>
      <point x="398" y="230"/>
      <point x="398" y="124" type="curve" smooth="yes"/>
      <point x="398" y="43"/>
      <point x="459" y="-22"/>
      <point x="544" y="-22" type="curve" smooth="yes"/>
    </contour>
  </outline>
</glyph>
<glyph name="slash" format="1">
  <advance width="1228"/>
  <unicode hex="002F"/>
  <outline>
    <contour>
      <point x="1186" y="1271" type="line" smooth="yes"/>
      <point x="1210" y="1310"/>
      <point x="1160" y="1335"/>
      <point x="1111" y="1335" type="curve" smooth="yes"/>
      <point x="1081" y="1335"/>
      <point x="1051" y="1326"/>
      <point x="1038" y="1305" type="curve" smooth="yes"/>
      <point x="84" y="-233" type="line" smooth="yes"/>
      <point x="60" y="-272"/>
      <point x="110" y="-297"/>
      <point x="159" y="-297" type="curve" smooth="yes"/>
      <point x="189" y="-297"/>
      <point x="219" y="-288"/>
      <point x="232" y="-267" type="curve" smooth="yes"/>
    </contour>
  </outline>
</glyph>
<glyph name="zero" format="1">
  <advance width="1228"/>
  <unicode hex="0030"/>
  <outline>
    <contour>
      <point x="371" y="1209"/>
      <point x="210" y="747"/>
      <point x="210" y="431" type="curve" smooth="yes"/>
      <point x="210" y="158"/>
      <point x="337" y="-22"/>
      <point x="553" y="-22" type="curve" smooth="yes"/>
      <point x="926" y="-22"/>
      <point x="1087" y="440"/>
      <point x="1087" y="756" type="curve" smooth="yes"/>
      <point x="1087" y="1029"/>
      <point x="960" y="1209"/>
      <point x="744" y="1209" type="curve" smooth="yes"/>
    </contour>
    <contour>
      <point x="855" y="1061"/>
      <point x="932" y="954"/>
      <point x="932" y="761" type="curve" smooth="yes"/>
      <point x="932" y="484"/>
      <point x="800" y="126"/>
      <point x="566" y="126" type="curve" smooth="yes"/>
      <point x="441" y="126"/>
      <point x="365" y="232"/>
      <point x="365" y="426" type="curve" smooth="yes"/>
      <point x="365" y="703"/>
      <point x="497" y="1061"/>
      <point x="731" y="1061" type="curve" smooth="yes"/>
    </contour>
  </outline>
</glyph>
<glyph name="six" format="1">
  <advance width="1228"/>
  <unicode hex="0036"/>
  <outline>
    <contour>
      <point x="801" y="583"/>
      <point x="879" y="512"/>
      <point x="879" y="401" type="curve" smooth="yes"/>
      <point x="879" y="288"/>
      <point x="799" y="126"/>
      <point x="582" y="126" type="curve" smooth="yes"/>
      <point x="446" y="126"/>
      <point x="367" y="204"/>
      <point x="367" y="319" type="curve" smooth="yes"/>
      <point x="367" y="486"/>
      <point x="510" y="583"/>
      <point x="663" y="583" type="curve" smooth="yes"/>
    </contour>
    <contour>
      <point x="1089" y="1063"/>
      <point x="1110" y="1083"/>
      <point x="1110" y="1142" type="curve" smooth="yes"/>
      <point x="1110" y="1197"/>
      <point x="1087" y="1210"/>
      <point x="1057" y="1209" type="curve" smooth="yes"/>
      <point x="465" y="1182"/>
      <point x="213" y="757"/>
      <point x="213" y="372" type="curve" smooth="yes"/>
      <point x="213" y="295"/>
      <point x="224" y="229"/>
      <point x="246" y="176" type="curve" smooth="yes"/>
      <point x="299" y="46"/>
      <point x="424" y="-22"/>
      <point x="566" y="-22" type="curve" smooth="yes"/>
      <point x="872" y="-22"/>
      <point x="1037" y="202"/>
      <point x="1037" y="417" type="curve" smooth="yes"/>
      <point x="1037" y="604"/>
      <point x="901" y="731"/>
      <point x="705" y="731" type="curve" smooth="yes"/>
      <point x="591" y="731"/>
      <point x="483" y="685"/>
      <point x="397" y="600" type="curve"/>
      <point x="480" y="859"/>
      <point x="691" y="1043"/>
      <point x="1062" y="1062" type="curve"/>
    </contour>
  </outline>
</glyph>
<glyph name="seven" format="1">
  <advance width="1228"/>
  <unicode hex="0037"/>
  <outline>
    <contour>
      <point x="380" y="56" type="line" smooth="yes"/>
      <point x="352" y="7"/>
      <point x="394" y="-22"/>
      <point x="442" y="-22" type="curve" smooth="yes"/>
      <point x="476" y="-22"/>
      <point x="512" y="-8"/>
      <point x="531" y="24" type="curve" smooth="yes"/>
      <point x="1143" y="1079" type="line" smooth="yes"/>
      <point x="1147" y="1087"/>
      <point x="1153" y="1102"/>
      <point x="1156" y="1119" type="curve" smooth="yes"/>
      <point x="1165" y="1169"/>
      <point x="1150" y="1187"/>
      <point x="1105" y="1187" type="curve" smooth="yes"/>
      <point x="431" y="1187" type="line" smooth="yes"/>
      <point x="386" y="1187"/>
      <point x="365" y="1169"/>
      <point x="356" y="1119" type="curve" smooth="yes"/>
      <point x="318" y="905" type="line" smooth="yes"/>
      <point x="310" y="859"/>
      <point x="326" y="840"/>
      <point x="382" y="840" type="curve" smooth="yes"/>
      <point x="438" y="840"/>
      <point x="460" y="859"/>
      <point x="468" y="905" type="curve" smooth="yes"/>
      <point x="494" y="1051" type="line"/>
      <point x="963" y="1051" type="line"/>
    </contour>
  </outline>
</glyph>
<glyph name="nine" format="1">
  <advance width="1228"/>
  <unicode hex="0039"/>
  <outline>
    <contour>
      <point x="495" y="604"/>
      <point x="417" y="675"/>
      <point x="417" y="786" type="curve" smooth="yes"/>
      <point x="417" y="899"/>
      <point x="497" y="1061"/>
      <point x="714" y="1061" type="curve" smooth="yes"/>
      <point x="850" y="1061"/>
      <point x="929" y="983"/>
      <point x="929" y="868" type="curve" smooth="yes"/>
      <point x="929" y="701"/>
      <point x="786" y="604"/>
      <point x="633" y="604" type="curve"/>
    </contour>
    <contour>
      <point x="207" y="124"/>
      <point x="186" y="104"/>
      <point x="186" y="45" type="curve" smooth="yes"/>
      <point x="186" y="-10"/>
      <point x="209" y="-23"/>
      <point x="239" y="-22" type="curve" smooth="yes"/>
      <point x="831" y="5"/>
      <point x="1083" y="430"/>
      <point x="1083" y="815" type="curve" smooth="yes"/>
      <point x="1083" y="892"/>
      <point x="1072" y="958"/>
      <point x="1050" y="1011" type="curve" smooth="yes"/>
      <point x="997" y="1141"/>
      <point x="872" y="1209"/>
      <point x="730" y="1209" type="curve" smooth="yes"/>
      <point x="424" y="1209"/>
      <point x="259" y="985"/>
      <point x="259" y="770" type="curve" smooth="yes"/>
      <point x="259" y="583"/>
      <point x="395" y="456"/>
      <point x="591" y="456" type="curve" smooth="yes"/>
      <point x="705" y="456"/>
      <point x="813" y="502"/>
      <point x="899" y="587" type="curve"/>
      <point x="816" y="328"/>
      <point x="605" y="144"/>
      <point x="234" y="125" type="curve"/>
    </contour>
  </outline>
</glyph>
<glyph name="colon" format="1">
  <advance width="1228"/>
  <unicode hex="003A"/>
  <outline>
    <contour>
      <point x="646" y="-22"/>
      <point x="740" y="65"/>
      <point x="740" y="172" type="curve" smooth="yes"/>
      <point x="740" y="251"/>
      <point x="680" y="316"/>
      <point x="595" y="316" type="curve" smooth="yes"/>
      <point x="495" y="316"/>
      <point x="398" y="230"/>
      <point x="398" y="124" type="curve" smooth="yes"/>
      <point x="398" y="43"/>
      <point x="459" y="-22"/>
      <point x="544" y="-22" type="curve" smooth="yes"/>
    </contour>
    <contour>
      <point x="758" y="608"/>
      <point x="852" y="695"/>
      <point x="852" y="802" type="curve" smooth="yes"/>
      <point x="852" y="881"/>
      <point x="792" y="946"/>
      <point x="707" y="946" type="curve" smooth="yes"/>
      <point x="607" y="946"/>
      <point x="510" y="860"/>
      <point x="510" y="754" type="curve" smooth="yes"/>
      <point x="510" y="673"/>
      <point x="571" y="608"/>
      <point x="656" y="608" type="curve" smooth="yes"/>
    </contour>
  </outline>
</glyph>
<glyph name="semicolon" format="1">
  <advance width="1228"/>
  <unicode hex="003B"/>
  <outline>
    <contour>
      <point x="758" y="608"/>
      <point x="852" y="695"/>
      <point x="852" y="802" type="curve" smooth="yes"/>
      <point x="852" y="881"/>
      <point x="792" y="946"/>
      <point x="707" y="946" type="curve" smooth="yes"/>
      <point x="607" y="946"/>
      <point x="510" y="860"/>
      <point x="510" y="754" type="curve" smooth="yes"/>
      <point x="510" y="673"/>
      <point x="571" y="608"/>
      <point x="656" y="608" type="curve" smooth="yes"/>
    </contour>
    <contour>
      <point x="729" y="231" type="line" smooth="yes"/>
      <point x="753" y="266"/>
      <point x="745" y="294"/>
      <point x="712" y="294" type="curve" smooth="yes"/>
      <point x="504" y="294" type="line" smooth="yes"/>
      <point x="476" y="294"/>
      <point x="455" y="280"/>
      <point x="445" y="254" type="curve" smooth="yes"/>
      <point x="261" y="-228" type="line" smooth="yes"/>
      <point x="245" y="-270"/>
      <point x="273" y="-294"/>
      <point x="312" y="-294" type="curve" smooth="yes"/>
      <point x="341" y="-294"/>
      <point x="367" y="-281"/>
      <point x="387" y="-253" type="curve" smooth="yes"/>
    </contour>
  </outline>
</glyph>
<glyph name="less" format="1">
  <advance width="1228"/>
  <unicode hex="003C"/>
  <outline>
    <contour>
      <point x="386" y="576" type="line"/>
      <point x="1108" y="894" type="line" smooth="yes"/>
      <point x="1154" y="914"/>
      <point x="1164" y="947"/>
      <point x="1149" y="993" type="curve" smooth="yes"/>
      <point x="1135" y="1037"/>
      <point x="1105" y="1053"/>
      <point x="1061" y="1033" type="curve" smooth="yes"/>
      <point x="216" y="652" type="line" smooth="yes"/>
      <point x="182" y="636"/>
      <point x="163" y="618"/>
      <point x="157" y="583" type="curve" smooth="yes"/>
      <point x="151" y="548"/>
      <point x="163" y="530"/>
      <point x="192" y="514" type="curve" smooth="yes"/>
      <point x="902" y="133" type="line" smooth="yes"/>
      <point x="939" y="113"/>
      <point x="970" y="122"/>
      <point x="1000" y="166" type="curve" smooth="yes"/>
      <point x="1031" y="212"/>
      <point x="1026" y="241"/>
      <point x="988" y="261" type="curve" smooth="yes"/>
    </contour>
  </outline>
</glyph>
<glyph name="equal" format="1">
  <advance width="1228"/>
  <unicode hex="003D"/>
  <outline>
    <contour>
      <point x="312" y="850" type="line" smooth="yes"/>
      <point x="267" y="850"/>
      <point x="246" y="832"/>
      <point x="237" y="782" type="curve" smooth="yes"/>
      <point x="229" y="732"/>
      <point x="243" y="714"/>
      <point x="288" y="714" type="curve" smooth="yes"/>
      <point x="1050" y="714" type="line" smooth="yes"/>
      <point x="1095" y="714"/>
      <point x="1117" y="732"/>
      <point x="1125" y="782" type="curve" smooth="yes"/>
      <point x="1134" y="832"/>
      <point x="1119" y="850"/>
      <point x="1074" y="850" type="curve" smooth="yes"/>
    </contour>
    <contour>
      <point x="242" y="450" type="line" smooth="yes"/>
      <point x="197" y="450"/>
      <point x="176" y="432"/>
      <point x="167" y="382" type="curve" smooth="yes"/>
      <point x="158" y="332"/>
      <point x="173" y="314"/>
      <point x="218" y="314" type="curve" smooth="yes"/>
      <point x="980" y="314" type="line" smooth="yes"/>
      <point x="1025" y="314"/>
      <point x="1046" y="332"/>
      <point x="1055" y="382" type="curve" smooth="yes"/>
      <point x="1064" y="432"/>
      <point x="1049" y="450"/>
      <point x="1004" y="450" type="curve" smooth="yes"/>
    </contour>
  </outline>
</glyph>
<glyph name="at" format="1">
  <advance width="1228"/>
  <unicode hex="0040"/>
  <outline>
    <contour>
      <point x="346" y="1078"/>
      <point x="38" y="668"/>
      <point x="38" y="270" type="curve" smooth="yes"/>
      <point x="38" y="9"/>
      <point x="198" y="-153"/>
      <point x="475" y="-153" type="curve" smooth="yes"/>
      <point x="585" y="-153"/>
      <point x="694" y="-132"/>
      <point x="770" y="-101" type="curve" smooth="yes"/>
      <point x="792" y="-92"/>
      <point x="799" y="-70"/>
      <point x="792" y="-35" type="curve" smooth="yes"/>
      <point x="785" y="1"/>
      <point x="770" y="14"/>
      <point x="746" y="7" type="curve" smooth="yes"/>
      <point x="675" y="-14"/>
      <point x="580" y="-30"/>
      <point x="484" y="-30" type="curve" smooth="yes"/>
      <point x="272" y="-30"/>
      <point x="161" y="88"/>
      <point x="161" y="282" type="curve" smooth="yes"/>
      <point x="161" y="591"/>
      <point x="407" y="955"/>
      <point x="753" y="955" type="curve" smooth="yes"/>
      <point x="962" y="955"/>
      <point x="1082" y="834"/>
      <point x="1082" y="634" type="curve" smooth="yes"/>
      <point x="1082" y="483"/>
      <point x="1012" y="263"/>
      <point x="864" y="263" type="curve" smooth="yes"/>
      <point x="824" y="263"/>
      <point x="803" y="288"/>
      <point x="803" y="327" type="curve" smooth="yes"/>
      <point x="803" y="350"/>
      <point x="810" y="377"/>
      <point x="821" y="404" type="curve" smooth="yes"/>
      <point x="951" y="706" type="line" smooth="yes"/>
      <point x="959" y="726"/>
      <point x="945" y="742"/>
      <point x="920" y="752" type="curve" smooth="yes"/>
      <point x="891" y="764"/>
      <point x="869" y="761"/>
      <point x="860" y="748" type="curve" smooth="yes"/>
      <point x="818" y="685" type="line"/>
      <point x="804" y="744"/>
      <point x="772" y="785"/>
      <point x="708" y="785" type="curve" smooth="yes"/>
      <point x="514" y="785"/>
      <point x="310" y="492"/>
      <point x="310" y="303" type="curve" smooth="yes"/>
      <point x="310" y="193"/>
      <point x="377" y="132"/>
      <point x="462" y="132" type="curve" smooth="yes"/>
      <point x="547" y="132"/>
      <point x="618" y="184"/>
      <point x="691" y="267" type="curve"/>
      <point x="709" y="184"/>
      <point x="761" y="137"/>
      <point x="847" y="137" type="curve" smooth="yes"/>
      <point x="1067" y="137"/>
      <point x="1202" y="389"/>
      <point x="1202" y="641" type="curve" smooth="yes"/>
      <point x="1202" y="899"/>
      <point x="1040" y="1078"/>
      <point x="770" y="1078" type="curve" smooth="yes"/>
    </contour>
    <contour>
      <point x="721" y="658"/>
      <point x="743" y="634"/>
      <point x="743" y="590" type="curve" smooth="yes"/>
      <point x="743" y="494"/>
      <point x="627" y="266"/>
      <point x="500" y="266" type="curve" smooth="yes"/>
      <point x="469" y="266"/>
      <point x="448" y="284"/>
      <point x="448" y="327" type="curve" smooth="yes"/>
      <point x="448" y="458"/>
      <point x="593" y="658"/>
      <point x="682" y="658" type="curve" smooth="yes"/>
    </contour>
  </outline>
</glyph>
<glyph name="B" format="1">
  <advance width="1228"/>
  <unicode hex="0042"/>
  <outline>
    <contour>
      <point x="282" y="1187" type="line" smooth="yes"/>
      <point x="237" y="1187"/>
      <point x="216" y="1169"/>
      <point x="207" y="1119" type="curve" smooth="yes"/>
      <point x="198" y="1069"/>
      <point x="213" y="1051"/>
      <point x="258" y="1051" type="curve" smooth="yes"/>
      <point x="380" y="1051" type="line"/>
      <point x="218" y="136" type="line"/>
      <point x="96" y="136" type="line" smooth="yes"/>
      <point x="51" y="136"/>
      <point x="30" y="118"/>
      <point x="21" y="68" type="curve" smooth="yes"/>
      <point x="13" y="18"/>
      <point x="28" y="0"/>
      <point x="73" y="0" type="curve" smooth="yes"/>
      <point x="650" y="0" type="line" smooth="yes"/>
      <point x="808" y="0"/>
      <point x="915" y="50"/>
      <point x="984" y="122" type="curve" smooth="yes"/>
      <point x="1056" y="199"/>
      <point x="1086" y="299"/>
      <point x="1086" y="390" type="curve" smooth="yes"/>
      <point x="1086" y="506"/>
      <point x="1024" y="593"/>
      <point x="914" y="631" type="curve"/>
      <point x="1025" y="689"/>
      <point x="1094" y="775"/>
      <point x="1094" y="918" type="curve" smooth="yes"/>
      <point x="1094" y="1076"/>
      <point x="986" y="1187"/>
      <point x="773" y="1187" type="curve" smooth="yes"/>
    </contour>
    <contour>
      <point x="857" y="545"/>
      <point x="929" y="492"/>
      <point x="929" y="388" type="curve" smooth="yes"/>
      <point x="929" y="316"/>
      <point x="906" y="258"/>
      <point x="864" y="215" type="curve" smooth="yes"/>
      <point x="813" y="164"/>
      <point x="733" y="136"/>
      <point x="633" y="136" type="curve" smooth="yes"/>
      <point x="368" y="136" type="line"/>
      <point x="441" y="545" type="line"/>
      <point x="711" y="545" type="line" smooth="yes"/>
    </contour>
    <contour>
      <point x="875" y="1051"/>
      <point x="941" y="1001"/>
      <point x="941" y="907" type="curve" smooth="yes"/>
      <point x="941" y="854"/>
      <point x="926" y="803"/>
      <point x="891" y="763" type="curve" smooth="yes"/>
      <point x="849" y="714"/>
      <point x="778" y="681"/>
      <point x="672" y="681" type="curve" smooth="yes"/>
      <point x="465" y="681" type="line"/>
      <point x="530" y="1051" type="line"/>
      <point x="737" y="1051" type="line" smooth="yes"/>
    </contour>
  </outline>
</glyph>
<glyph name="C" format="1">
  <advance width="1228"/>
  <unicode hex="0043"/>
  <outline>
    <contour>
      <point x="1086" y="1209"/>
      <point x="1063" y="1190"/>
      <point x="1055" y="1144" type="curve" smooth="yes"/>
      <point x="1044" y="1080" type="line"/>
      <point x="993" y="1159"/>
      <point x="903" y="1209"/>
      <point x="772" y="1209" type="curve" smooth="yes"/>
      <point x="387" y="1209"/>
      <point x="140" y="840"/>
      <point x="140" y="453" type="curve" smooth="yes"/>
      <point x="140" y="166"/>
      <point x="305" y="-22"/>
      <point x="575" y="-22" type="curve" smooth="yes"/>
      <point x="729" y="-22"/>
      <point x="881" y="22"/>
      <point x="1023" y="106" type="curve" smooth="yes"/>
      <point x="1063" y="130"/>
      <point x="1068" y="161"/>
      <point x="1045" y="207" type="curve" smooth="yes"/>
      <point x="1021" y="254"/>
      <point x="986" y="262"/>
      <point x="956" y="242" type="curve" smooth="yes"/>
      <point x="847" y="170"/>
      <point x="718" y="126"/>
      <point x="586" y="126" type="curve" smooth="yes"/>
      <point x="404" y="126"/>
      <point x="298" y="251"/>
      <point x="298" y="461" type="curve" smooth="yes"/>
      <point x="298" y="755"/>
      <point x="472" y="1061"/>
      <point x="761" y="1061" type="curve" smooth="yes"/>
      <point x="954" y="1061"/>
      <point x="1020" y="945"/>
      <point x="997" y="814" type="curve" smooth="yes"/>
      <point x="989" y="768"/>
      <point x="1005" y="749"/>
      <point x="1061" y="749" type="curve" smooth="yes"/>
      <point x="1117" y="749"/>
      <point x="1139" y="768"/>
      <point x="1147" y="814" type="curve" smooth="yes"/>
      <point x="1205" y="1144" type="line" smooth="yes"/>
      <point x="1213" y="1190"/>
      <point x="1198" y="1209"/>
      <point x="1142" y="1209" type="curve" smooth="yes"/>
    </contour>
  </outline>
</glyph>
<glyph name="F" format="1">
  <advance width="1228"/>
  <unicode hex="0046"/>
  <outline>
    <contour>
      <point x="282" y="1187" type="line" smooth="yes"/>
      <point x="237" y="1187"/>
      <point x="216" y="1169"/>
      <point x="207" y="1119" type="curve" smooth="yes"/>
      <point x="198" y="1069"/>
      <point x="213" y="1051"/>
      <point x="258" y="1051" type="curve" smooth="yes"/>
      <point x="390" y="1051" type="line"/>
      <point x="228" y="136" type="line"/>
      <point x="96" y="136" type="line" smooth="yes"/>
      <point x="51" y="136"/>
      <point x="30" y="118"/>
      <point x="21" y="68" type="curve" smooth="yes"/>
      <point x="13" y="18"/>
      <point x="28" y="0"/>
      <point x="73" y="0" type="curve" smooth="yes"/>
      <point x="587" y="0" type="line" smooth="yes"/>
      <point x="632" y="0"/>
      <point x="653" y="18"/>
      <point x="661" y="68" type="curve" smooth="yes"/>
      <point x="670" y="118"/>
      <point x="655" y="136"/>
      <point x="610" y="136" type="curve" smooth="yes"/>
      <point x="378" y="136" type="line"/>
      <point x="447" y="524" type="line"/>
      <point x="697" y="524" type="line"/>
      <point x="681" y="433" type="line" smooth="yes"/>
      <point x="673" y="387"/>
      <point x="688" y="368"/>
      <point x="744" y="368" type="curve" smooth="yes"/>
      <point x="800" y="368"/>
      <point x="823" y="387"/>
      <point x="831" y="433" type="curve" smooth="yes"/>
      <point x="887" y="751" type="line" smooth="yes"/>
      <point x="895" y="797"/>
      <point x="879" y="816"/>
      <point x="823" y="816" type="curve" smooth="yes"/>
      <point x="767" y="816"/>
      <point x="745" y="797"/>
      <point x="737" y="751" type="curve" smooth="yes"/>
      <point x="721" y="660" type="line"/>
      <point x="471" y="660" type="line"/>
      <point x="540" y="1051" type="line"/>
      <point x="1075" y="1051" type="line"/>
      <point x="1040" y="855" type="line" smooth="yes"/>
      <point x="1032" y="809"/>
      <point x="1048" y="790"/>
      <point x="1104" y="790" type="curve" smooth="yes"/>
      <point x="1160" y="790"/>
      <point x="1182" y="809"/>
      <point x="1190" y="855" type="curve" smooth="yes"/>
      <point x="1237" y="1119" type="line" smooth="yes"/>
      <point x="1246" y="1169"/>
      <point x="1231" y="1187"/>
      <point x="1186" y="1187" type="curve" smooth="yes"/>
    </contour>
  </outline>
</glyph>
<glyph name="I" format="1">
  <advance width="1228"/>
  <unicode hex="0049"/>
  <outline>
    <contour>
      <point x="492" y="136" type="line"/>
      <point x="226" y="136" type="line" smooth="yes"/>
      <point x="181" y="136"/>
      <point x="160" y="118"/>
      <point x="151" y="68" type="curve" smooth="yes"/>
      <point x="143" y="18"/>
      <point x="158" y="0"/>
      <point x="203" y="0" type="curve" smooth="yes"/>
      <point x="905" y="0" type="line" smooth="yes"/>
      <point x="950" y="0"/>
      <point x="971" y="18"/>
      <point x="979" y="68" type="curve" smooth="yes"/>
      <point x="988" y="118"/>
      <point x="973" y="136"/>
      <point x="928" y="136" type="curve" smooth="yes"/>
      <point x="642" y="136" type="line"/>
      <point x="804" y="1051" type="line"/>
      <point x="1050" y="1051" type="line" smooth="yes"/>
      <point x="1095" y="1051"/>
      <point x="1116" y="1069"/>
      <point x="1125" y="1119" type="curve" smooth="yes"/>
      <point x="1134" y="1169"/>
      <point x="1119" y="1187"/>
      <point x="1074" y="1187" type="curve" smooth="yes"/>
      <point x="412" y="1187" type="line" smooth="yes"/>
      <point x="367" y="1187"/>
      <point x="346" y="1169"/>
      <point x="337" y="1119" type="curve" smooth="yes"/>
      <point x="328" y="1069"/>
      <point x="343" y="1051"/>
      <point x="388" y="1051" type="curve" smooth="yes"/>
      <point x="654" y="1051" type="line"/>
    </contour>
  </outline>
</glyph>
<glyph name="K" format="1">
  <advance width="1228"/>
  <unicode hex="004B"/>
  <outline>
    <contour>
      <point x="910" y="1187" type="line" smooth="yes"/>
      <point x="865" y="1187"/>
      <point x="844" y="1169"/>
      <point x="835" y="1119" type="curve" smooth="yes"/>
      <point x="826" y="1069"/>
      <point x="841" y="1051"/>
      <point x="886" y="1051" type="curve" smooth="yes"/>
      <point x="949" y="1051" type="line"/>
      <point x="447" y="635" type="line"/>
      <point x="520" y="1051" type="line"/>
      <point x="612" y="1051" type="line" smooth="yes"/>
      <point x="657" y="1051"/>
      <point x="678" y="1069"/>
      <point x="687" y="1119" type="curve" smooth="yes"/>
      <point x="696" y="1169"/>
      <point x="681" y="1187"/>
      <point x="636" y="1187" type="curve" smooth="yes"/>
      <point x="282" y="1187" type="line" smooth="yes"/>
      <point x="237" y="1187"/>
      <point x="216" y="1169"/>
      <point x="207" y="1119" type="curve" smooth="yes"/>
      <point x="198" y="1069"/>
      <point x="213" y="1051"/>
      <point x="258" y="1051" type="curve" smooth="yes"/>
      <point x="370" y="1051" type="line"/>
      <point x="208" y="136" type="line"/>
      <point x="96" y="136" type="line" smooth="yes"/>
      <point x="51" y="136"/>
      <point x="30" y="118"/>
      <point x="21" y="68" type="curve" smooth="yes"/>
      <point x="13" y="18"/>
      <point x="28" y="0"/>
      <point x="73" y="0" type="curve" smooth="yes"/>
      <point x="497" y="0" type="line" smooth="yes"/>
      <point x="542" y="0"/>
      <point x="563" y="18"/>
      <point x="571" y="68" type="curve" smooth="yes"/>
      <point x="580" y="118"/>
      <point x="565" y="136"/>
      <point x="520" y="136" type="curve" smooth="yes"/>
      <point x="358" y="136" type="line"/>
      <point x="411" y="436" type="line"/>
      <point x="446" y="465" type="line" smooth="yes"/>
      <point x="494" y="505"/>
      <point x="553" y="524"/>
      <point x="609" y="524" type="curve" smooth="yes"/>
      <point x="673" y="524"/>
      <point x="720" y="500"/>
      <point x="744" y="454" type="curve" smooth="yes"/>
      <point x="787" y="371"/>
      <point x="795" y="245"/>
      <point x="830" y="139" type="curve" smooth="yes"/>
      <point x="864" y="37"/>
      <point x="919" y="0"/>
      <point x="978" y="0" type="curve" smooth="yes"/>
      <point x="1055" y="0" type="line" smooth="yes"/>
      <point x="1100" y="0"/>
      <point x="1121" y="18"/>
      <point x="1129" y="68" type="curve" smooth="yes"/>
      <point x="1138" y="118"/>
      <point x="1123" y="136"/>
      <point x="1078" y="136" type="curve" smooth="yes"/>
      <point x="1045" y="136" type="line" smooth="yes"/>
      <point x="1007" y="136"/>
      <point x="984" y="164"/>
      <point x="968" y="208" type="curve" smooth="yes"/>
      <point x="935" y="297"/>
      <point x="928" y="449"/>
      <point x="869" y="547" type="curve" smooth="yes"/>
      <point x="821" y="626"/>
      <point x="754" y="652"/>
      <point x="663" y="646" type="curve"/>
      <point x="1158" y="1051" type="line"/>
      <point x="1210" y="1051" type="line" smooth="yes"/>
      <point x="1255" y="1051"/>
      <point x="1276" y="1069"/>
      <point x="1285" y="1119" type="curve" smooth="yes"/>
      <point x="1294" y="1169"/>
      <point x="1279" y="1187"/>
      <point x="1234" y="1187" type="curve" smooth="yes"/>
    </contour>
  </outline>
</glyph>
<glyph name="M" format="1">
  <advance width="1228"/>
  <unicode hex="004D"/>
  <outline>
    <contour>
      <point x="100" y="136" type="line"/>
      <point x="46" y="136" type="line" smooth="yes"/>
      <point x="1" y="136"/>
      <point x="-20" y="118"/>
      <point x="-29" y="68" type="curve" smooth="yes"/>
      <point x="-37" y="18"/>
      <point x="-22" y="0"/>
      <point x="23" y="0" type="curve" smooth="yes"/>
      <point x="337" y="0" type="line" smooth="yes"/>
      <point x="382" y="0"/>
      <point x="403" y="18"/>
      <point x="411" y="68" type="curve" smooth="yes"/>
      <point x="420" y="118"/>
      <point x="405" y="136"/>
      <point x="360" y="136" type="curve" smooth="yes"/>
      <point x="249" y="136" type="line"/>
      <point x="415" y="955" type="line"/>
      <point x="519" y="385" type="line" smooth="yes"/>
      <point x="528" y="338"/>
      <point x="553" y="320"/>
      <point x="600" y="320" type="curve" smooth="yes"/>
      <point x="647" y="320"/>
      <point x="678" y="338"/>
      <point x="703" y="385" type="curve" smooth="yes"/>
      <point x="1008" y="955" type="line"/>
      <point x="885" y="136" type="line"/>
      <point x="774" y="136" type="line" smooth="yes"/>
      <point x="729" y="136"/>
      <point x="708" y="118"/>
      <point x="699" y="68" type="curve" smooth="yes"/>
      <point x="691" y="18"/>
      <point x="706" y="0"/>
      <point x="751" y="0" type="curve" smooth="yes"/>
      <point x="1065" y="0" type="line" smooth="yes"/>
      <point x="1110" y="0"/>
      <point x="1131" y="18"/>
      <point x="1139" y="68" type="curve" smooth="yes"/>
      <point x="1148" y="118"/>
      <point x="1133" y="136"/>
      <point x="1088" y="136" type="curve" smooth="yes"/>
      <point x="1034" y="136" type="line"/>
      <point x="1170" y="1051" type="line"/>
      <point x="1220" y="1051" type="line" smooth="yes"/>
      <point x="1265" y="1051"/>
      <point x="1286" y="1069"/>
      <point x="1295" y="1119" type="curve" smooth="yes"/>
      <point x="1304" y="1169"/>
      <point x="1289" y="1187"/>
      <point x="1244" y="1187" type="curve" smooth="yes"/>
      <point x="1027" y="1187" type="line" smooth="yes"/>
      <point x="995" y="1187"/>
      <point x="974" y="1177"/>
      <point x="962" y="1154" type="curve" smooth="yes"/>
      <point x="634" y="545" type="line"/>
      <point x="519" y="1154" type="line" smooth="yes"/>
      <point x="515" y="1177"/>
      <point x="499" y="1187"/>
      <point x="467" y="1187" type="curve" smooth="yes"/>
      <point x="262" y="1187" type="line" smooth="yes"/>
      <point x="217" y="1187"/>
      <point x="196" y="1169"/>
      <point x="187" y="1119" type="curve" smooth="yes"/>
      <point x="178" y="1069"/>
      <point x="193" y="1051"/>
      <point x="238" y="1051" type="curve" smooth="yes"/>
      <point x="287" y="1051" type="line"/>
    </contour>
  </outline>
</glyph>
<glyph name="O" format="1">
  <advance width="1228"/>
  <unicode hex="004F"/>
  <outline>
    <contour>
      <point x="534" y="1209"/>
      <point x="374" y="1108"/>
      <point x="268" y="961" type="curve" smooth="yes"/>
      <point x="165" y="818"/>
      <point x="112" y="636"/>
      <point x="112" y="459" type="curve" smooth="yes"/>
      <point x="112" y="169"/>
      <point x="283" y="-22"/>
      <point x="555" y="-22" type="curve" smooth="yes"/>
      <point x="763" y="-22"/>
      <point x="923" y="79"/>
      <point x="1029" y="226" type="curve" smooth="yes"/>
      <point x="1132" y="369"/>
      <point x="1185" y="551"/>
      <point x="1185" y="728" type="curve" smooth="yes"/>
      <point x="1185" y="1018"/>
      <point x="1014" y="1209"/>
      <point x="742" y="1209" type="curve" smooth="yes"/>
    </contour>
    <contour>
      <point x="918" y="1061"/>
      <point x="1028" y="933"/>
      <point x="1028" y="722" type="curve" smooth="yes"/>
      <point x="1028" y="580"/>
      <point x="985" y="426"/>
      <point x="901" y="309" type="curve" smooth="yes"/>
      <point x="824" y="201"/>
      <point x="711" y="126"/>
      <point x="566" y="126" type="curve" smooth="yes"/>
      <point x="379" y="126"/>
      <point x="269" y="254"/>
      <point x="269" y="465" type="curve" smooth="yes"/>
      <point x="269" y="607"/>
      <point x="312" y="761"/>
      <point x="396" y="878" type="curve" smooth="yes"/>
      <point x="473" y="986"/>
      <point x="586" y="1061"/>
      <point x="731" y="1061" type="curve" smooth="yes"/>
    </contour>
  </outline>
</glyph>
<glyph name="Q" format="1">
  <advance width="1228"/>
  <unicode hex="0051"/>
  <outline>
    <contour>
      <point x="322" y="1209"/>
      <point x="116" y="825"/>
      <point x="116" y="492" type="curve" smooth="yes"/>
      <point x="116" y="286"/>
      <point x="207" y="134"/>
      <point x="362" y="67" type="curve"/>
      <point x="141" y="-142" type="line" smooth="yes"/>
      <point x="119" y="-163"/>
      <point x="127" y="-200"/>
      <point x="151" y="-233" type="curve" smooth="yes"/>
      <point x="174" y="-264"/>
      <point x="201" y="-279"/>
      <point x="229" y="-269" type="curve"/>
      <point x="323" y="-232"/>
      <point x="398" y="-220"/>
      <point x="461" y="-220" type="curve" smooth="yes"/>
      <point x="576" y="-220"/>
      <point x="654" y="-259"/>
      <point x="746" y="-259" type="curve" smooth="yes"/>
      <point x="810" y="-259"/>
      <point x="880" y="-241"/>
      <point x="973" y="-179" type="curve" smooth="yes"/>
      <point x="1007" y="-157"/>
      <point x="1003" y="-115"/>
      <point x="986" y="-84" type="curve" smooth="yes"/>
      <point x="969" y="-54"/>
      <point x="939" y="-32"/>
      <point x="914" y="-48" type="curve" smooth="yes"/>
      <point x="846" y="-92"/>
      <point x="792" y="-105"/>
      <point x="742" y="-105" type="curve" smooth="yes"/>
      <point x="666" y="-105"/>
      <point x="600" y="-73"/>
      <point x="509" y="-73" type="curve" smooth="yes"/>
      <point x="466" y="-73"/>
      <point x="418" y="-80"/>
      <point x="360" y="-100" type="curve"/>
      <point x="508" y="30" type="line"/>
      <point x="526" y="29"/>
      <point x="544" y="28"/>
      <point x="563" y="28" type="curve" smooth="yes"/>
      <point x="983" y="28"/>
      <point x="1189" y="413"/>
      <point x="1189" y="746" type="curve" smooth="yes"/>
      <point x="1189" y="1028"/>
      <point x="1015" y="1209"/>
      <point x="742" y="1209" type="curve" smooth="yes"/>
    </contour>
    <contour>
      <point x="919" y="1061"/>
      <point x="1031" y="942"/>
      <point x="1031" y="737" type="curve" smooth="yes"/>
      <point x="1031" y="479"/>
      <point x="881" y="176"/>
      <point x="575" y="176" type="curve" smooth="yes"/>
      <point x="386" y="176"/>
      <point x="273" y="294"/>
      <point x="273" y="500" type="curve" smooth="yes"/>
      <point x="273" y="758"/>
      <point x="425" y="1061"/>
      <point x="731" y="1061" type="curve" smooth="yes"/>
    </contour>
  </outline>
</glyph>
<glyph name="R" format="1">
  <advance width="1228"/>
  <unicode hex="0052"/>
  <outline>
    <contour>
      <point x="282" y="1187" type="line" smooth="yes"/>
      <point x="237" y="1187"/>
      <point x="216" y="1169"/>
      <point x="207" y="1119" type="curve" smooth="yes"/>
      <point x="198" y="1069"/>
      <point x="213" y="1051"/>
      <point x="258" y="1051" type="curve" smooth="yes"/>
      <point x="380" y="1051" type="line"/>
      <point x="218" y="136" type="line"/>
      <point x="96" y="136" type="line" smooth="yes"/>
      <point x="51" y="136"/>
      <point x="30" y="118"/>
      <point x="21" y="68" type="curve" smooth="yes"/>
      <point x="13" y="18"/>
      <point x="28" y="0"/>
      <point x="73" y="0" type="curve" smooth="yes"/>
      <point x="475" y="0" type="line" smooth="yes"/>
      <point x="520" y="0"/>
      <point x="541" y="18"/>
      <point x="549" y="68" type="curve" smooth="yes"/>
      <point x="558" y="118"/>
      <point x="543" y="136"/>
      <point x="498" y="136" type="curve" smooth="yes"/>
      <point x="368" y="136" type="line"/>
      <point x="435" y="515" type="line"/>
      <point x="497" y="515" type="line" smooth="yes"/>
      <point x="616" y="515"/>
      <point x="686" y="489"/>
      <point x="740" y="401" type="curve" smooth="yes"/>
      <point x="785" y="330"/>
      <point x="810" y="234"/>
      <point x="843" y="146" type="curve" smooth="yes"/>
      <point x="883" y="40"/>
      <point x="939" y="0"/>
      <point x="996" y="0" type="curve" smooth="yes"/>
      <point x="1055" y="0" type="line" smooth="yes"/>
      <point x="1100" y="0"/>
      <point x="1121" y="18"/>
      <point x="1129" y="68" type="curve" smooth="yes"/>
      <point x="1138" y="118"/>
      <point x="1123" y="136"/>
      <point x="1078" y="136" type="curve" smooth="yes"/>
      <point x="1056" y="136" type="line" smooth="yes"/>
      <point x="1017" y="136"/>
      <point x="993" y="175"/>
      <point x="972" y="230" type="curve" smooth="yes"/>
      <point x="944" y="302"/>
      <point x="917" y="398"/>
      <point x="871" y="470" type="curve" smooth="yes"/>
      <point x="850" y="502"/>
      <point x="821" y="530"/>
      <point x="788" y="546" type="curve"/>
      <point x="986" y="587"/>
      <point x="1129" y="709"/>
      <point x="1129" y="906" type="curve" smooth="yes"/>
      <point x="1129" y="1072"/>
      <point x="1004" y="1187"/>
      <point x="778" y="1187" type="curve" smooth="yes"/>
    </contour>
    <contour>
      <point x="890" y="1051"/>
      <point x="971" y="994"/>
      <point x="971" y="891" type="curve" smooth="yes"/>
      <point x="971" y="841"/>
      <point x="958" y="786"/>
      <point x="918" y="740" type="curve" smooth="yes"/>
      <point x="874" y="689"/>
      <point x="795" y="651"/>
      <point x="662" y="651" type="curve" smooth="yes"/>
      <point x="459" y="651" type="line"/>
      <point x="530" y="1051" type="line"/>
      <point x="743" y="1051" type="line" smooth="yes"/>
    </contour>
  </outline>
</glyph>
<glyph name="X" format="1">
  <advance width="1228"/>
  <unicode hex="0058"/>
  <outline>
    <contour>
      <point x="920" y="1187" type="line" smooth="yes"/>
      <point x="875" y="1187"/>
      <point x="854" y="1169"/>
      <point x="845" y="1119" type="curve" smooth="yes"/>
      <point x="836" y="1069"/>
      <point x="851" y="1051"/>
      <point x="896" y="1051" type="curve" smooth="yes"/>
      <point x="948" y="1051" type="line"/>
      <point x="671" y="735" type="line"/>
      <point x="505" y="1051" type="line"/>
      <point x="602" y="1051" type="line" smooth="yes"/>
      <point x="647" y="1051"/>
      <point x="668" y="1069"/>
      <point x="677" y="1119" type="curve" smooth="yes"/>
      <point x="686" y="1169"/>
      <point x="671" y="1187"/>
      <point x="626" y="1187" type="curve" smooth="yes"/>
      <point x="282" y="1187" type="line" smooth="yes"/>
      <point x="237" y="1187"/>
      <point x="216" y="1169"/>
      <point x="207" y="1119" type="curve" smooth="yes"/>
      <point x="198" y="1069"/>
      <point x="213" y="1051"/>
      <point x="258" y="1051" type="curve" smooth="yes"/>
      <point x="335" y="1051" type="line"/>
      <point x="564" y="629" type="line"/>
      <point x="120" y="136" type="line"/>
      <point x="66" y="136" type="line" smooth="yes"/>
      <point x="21" y="136"/>
      <point x="0" y="118"/>
      <point x="-9" y="68" type="curve" smooth="yes"/>
      <point x="-17" y="18"/>
      <point x="-2" y="0"/>
      <point x="43" y="0" type="curve" smooth="yes"/>
      <point x="367" y="0" type="line" smooth="yes"/>
      <point x="412" y="0"/>
      <point x="433" y="18"/>
      <point x="441" y="68" type="curve" smooth="yes"/>
      <point x="450" y="118"/>
      <point x="435" y="136"/>
      <point x="390" y="136" type="curve" smooth="yes"/>
      <point x="315" y="136" type="line"/>
      <point x="640" y="501" type="line"/>
      <point x="831" y="136" type="line"/>
      <point x="714" y="136" type="line" smooth="yes"/>
      <point x="669" y="136"/>
      <point x="648" y="118"/>
      <point x="639" y="68" type="curve" smooth="yes"/>
      <point x="631" y="18"/>
      <point x="646" y="0"/>
      <point x="691" y="0" type="curve" smooth="yes"/>
      <point x="1045" y="0" type="line" smooth="yes"/>
      <point x="1090" y="0"/>
      <point x="1111" y="18"/>
      <point x="1119" y="68" type="curve" smooth="yes"/>
      <point x="1128" y="118"/>
      <point x="1113" y="136"/>
      <point x="1068" y="136" type="curve" smooth="yes"/>
      <point x="1002" y="136" type="line"/>
      <point x="747" y="607" type="line"/>
      <point x="1143" y="1051" type="line"/>
      <point x="1200" y="1051" type="line" smooth="yes"/>
      <point x="1245" y="1051"/>
      <point x="1266" y="1069"/>
      <point x="1275" y="1119" type="curve" smooth="yes"/>
      <point x="1284" y="1169"/>
      <point x="1269" y="1187"/>
      <point x="1224" y="1187" type="curve" smooth="yes"/>
    </contour>
  </outline>
</glyph>
<glyph name="Z" format="1">
  <advance width="1228"/>
  <unicode hex="005A"/>
  <outline>
    <contour>
      <point x="350" y="136" type="line"/>
      <point x="1150" y="1080" type="line" smooth="yes"/>
      <point x="1159" y="1090"/>
      <point x="1164" y="1103"/>
      <point x="1167" y="1119" type="curve" smooth="yes"/>
      <point x="1176" y="1169"/>
      <point x="1161" y="1187"/>
      <point x="1116" y="1187" type="curve" smooth="yes"/>
      <point x="380" y="1187" type="line" smooth="yes"/>
      <point x="335" y="1187"/>
      <point x="314" y="1169"/>
      <point x="305" y="1119" type="curve" smooth="yes"/>
      <point x="249" y="802" type="line" smooth="yes"/>
      <point x="241" y="756"/>
      <point x="256" y="737"/>
      <point x="312" y="737" type="curve" smooth="yes"/>
      <point x="368" y="737"/>
      <point x="391" y="756"/>
      <point x="399" y="802" type="curve" smooth="yes"/>
      <point x="443" y="1051" type="line"/>
      <point x="935" y="1051" type="line"/>
      <point x="140" y="111" type="line" smooth="yes"/>
      <point x="130" y="99"/>
      <point x="122" y="86"/>
      <point x="118" y="68" type="curve" smooth="yes"/>
      <point x="110" y="18"/>
      <point x="125" y="0"/>
      <point x="170" y="0" type="curve" smooth="yes"/>
      <point x="936" y="0" type="line" smooth="yes"/>
      <point x="981" y="0"/>
      <point x="1002" y="18"/>
      <point x="1010" y="68" type="curve" smooth="yes"/>
      <point x="1070" y="405" type="line" smooth="yes"/>
      <point x="1078" y="451"/>
      <point x="1062" y="470"/>
      <point x="1006" y="470" type="curve" smooth="yes"/>
      <point x="950" y="470"/>
      <point x="928" y="451"/>
      <point x="920" y="405" type="curve" smooth="yes"/>
      <point x="872" y="136" type="line"/>
    </contour>
  </outline>
</glyph>
<glyph name="bracketleft" format="1">
  <advance width="1228"/>
  <unicode hex="005B"/>
  <outline>
    <contour>
      <point x="364" y="-257" type="line"/>
      <point x="617" y="1176" type="line"/>
      <point x="944" y="1176" type="line" smooth="yes"/>
      <point x="989" y="1176"/>
      <point x="1010" y="1194"/>
      <point x="1019" y="1244" type="curve" smooth="yes"/>
      <point x="1028" y="1294"/>
      <point x="1013" y="1312"/>
      <point x="968" y="1312" type="curve" smooth="yes"/>
      <point x="554" y="1312" type="line" smooth="yes"/>
      <point x="509" y="1312"/>
      <point x="488" y="1294"/>
      <point x="479" y="1244" type="curve" smooth="yes"/>
      <point x="202" y="-325" type="line" smooth="yes"/>
      <point x="193" y="-375"/>
      <point x="208" y="-393"/>
      <point x="253" y="-393" type="curve" smooth="yes"/>
      <point x="667" y="-393" type="line" smooth="yes"/>
      <point x="712" y="-393"/>
      <point x="733" y="-375"/>
      <point x="742" y="-325" type="curve" smooth="yes"/>
      <point x="751" y="-275"/>
      <point x="736" y="-257"/>
      <point x="691" y="-257" type="curve" smooth="yes"/>
    </contour>
  </outline>
</glyph>
<glyph name="backslash" format="1">
  <advance width="1228"/>
  <unicode hex="005C"/>
  <outline>
    <contour>
      <point x="770" y="-267" type="line" smooth="yes"/>
      <point x="776" y="-288"/>
      <point x="799" y="-297"/>
      <point x="825" y="-297" type="curve" smooth="yes"/>
      <point x="869" y="-297"/>
      <point x="921" y="-272"/>
      <point x="910" y="-233" type="curve" smooth="yes"/>
      <point x="500" y="1305" type="line" smooth="yes"/>
      <point x="494" y="1326"/>
      <point x="470" y="1335"/>
      <point x="444" y="1335" type="curve" smooth="yes"/>
      <point x="400" y="1335"/>
      <point x="349" y="1310"/>
      <point x="360" y="1271" type="curve" smooth="yes"/>
    </contour>
  </outline>
</glyph>
<glyph name="bracketright" format="1">
  <advance width="1228"/>
  <unicode hex="005D"/>
  <outline>
    <contour>
      <point x="632" y="-257" type="line"/>
      <point x="305" y="-257" type="line" smooth="yes"/>
      <point x="260" y="-257"/>
      <point x="239" y="-275"/>
      <point x="230" y="-325" type="curve" smooth="yes"/>
      <point x="221" y="-375"/>
      <point x="236" y="-393"/>
      <point x="281" y="-393" type="curve" smooth="yes"/>
      <point x="695" y="-393" type="line" smooth="yes"/>
      <point x="740" y="-393"/>
      <point x="761" y="-375"/>
      <point x="770" y="-325" type="curve" smooth="yes"/>
      <point x="1047" y="1244" type="line" smooth="yes"/>
      <point x="1056" y="1294"/>
      <point x="1041" y="1312"/>
      <point x="996" y="1312" type="curve" smooth="yes"/>
      <point x="582" y="1312" type="line" smooth="yes"/>
      <point x="537" y="1312"/>
      <point x="516" y="1294"/>
      <point x="507" y="1244" type="curve" smooth="yes"/>
      <point x="498" y="1194"/>
      <point x="513" y="1176"/>
      <point x="558" y="1176" type="curve" smooth="yes"/>
      <point x="885" y="1176" type="line"/>
    </contour>
  </outline>
</glyph>
<glyph name="underscore" format="1">
  <advance width="1228"/>
  <unicode hex="005F"/>
  <outline>
    <contour>
      <point x="1193" y="-393" type="line" smooth="yes"/>
      <point x="1208" y="-393"/>
      <point x="1218" y="-385"/>
      <point x="1228" y="-325" type="curve" smooth="yes"/>
      <point x="1239" y="-265"/>
      <point x="1232" y="-257"/>
      <point x="1217" y="-257" type="curve" smooth="yes"/>
      <point x="-20" y="-257" type="line" smooth="yes"/>
      <point x="-35" y="-257"/>
      <point x="-44" y="-265"/>
      <point x="-55" y="-325" type="curve" smooth="yes"/>
      <point x="-65" y="-385"/>
      <point x="-59" y="-393"/>
      <point x="-44" y="-393" type="curve" smooth="yes"/>
    </contour>
  </outline>
</glyph>
<glyph name="grave" format="1">
  <advance width="1228"/>
  <unicode hex="0060"/>
  <outline>
    <contour>
      <point x="526" y="1363" type="line" smooth="yes"/>
      <point x="492" y="1382"/>
      <point x="467" y="1384"/>
      <point x="425" y="1309" type="curve" smooth="yes"/>
      <point x="386" y="1238"/>
      <point x="398" y="1211"/>
      <point x="425" y="1202" type="curve" smooth="yes"/>
      <point x="906" y="1039" type="line" smooth="yes"/>
      <point x="931" y="1031"/>
      <point x="952" y="1048"/>
      <point x="961" y="1071" type="curve" smooth="yes"/>
      <point x="970" y="1094"/>
      <point x="965" y="1120"/>
      <point x="942" y="1133" type="curve" smooth="yes"/>
    </contour>
  </outline>
</glyph>
<glyph name="a" format="1">
  <advance width="1228"/>
  <unicode hex="0061"/>
  <outline>
    <contour>
      <point x="292" y="946"/>
      <point x="131" y="625"/>
      <point x="131" y="366" type="curve" smooth="yes"/>
      <point x="131" y="127"/>
      <point x="280" y="-22"/>
      <point x="495" y="-22" type="curve" smooth="yes"/>
      <point x="623" y="-22"/>
      <point x="739" y="34"/>
      <point x="840" y="143" type="curve"/>
      <point x="846" y="55"/>
      <point x="904" y="0"/>
      <point x="986" y="0" type="curve" smooth="yes"/>
      <point x="1037" y="0" type="line" smooth="yes"/>
      <point x="1082" y="0"/>
      <point x="1103" y="18"/>
      <point x="1111" y="68" type="curve" smooth="yes"/>
      <point x="1120" y="118"/>
      <point x="1105" y="136"/>
      <point x="1060" y="136" type="curve" smooth="yes"/>
      <point x="1035" y="136" type="line" smooth="yes"/>
      <point x="998" y="136"/>
      <point x="984" y="160"/>
      <point x="991" y="201" type="curve" smooth="yes"/>
      <point x="1109" y="869" type="line" smooth="yes"/>
      <point x="1117" y="915"/>
      <point x="1106" y="934"/>
      <point x="1050" y="934" type="curve" smooth="yes"/>
      <point x="994" y="934"/>
      <point x="977" y="915"/>
      <point x="969" y="869" type="curve" smooth="yes"/>
      <point x="950" y="766" type="line"/>
      <point x="887" y="873"/>
      <point x="782" y="946"/>
      <point x="645" y="946" type="curve" smooth="yes"/>
    </contour>
    <contour>
      <point x="793" y="798"/>
      <point x="894" y="705"/>
      <point x="894" y="541" type="curve" smooth="yes"/>
      <point x="894" y="335"/>
      <point x="758" y="126"/>
      <point x="521" y="126" type="curve" smooth="yes"/>
      <point x="368" y="126"/>
      <point x="288" y="226"/>
      <point x="288" y="375" type="curve" smooth="yes"/>
      <point x="288" y="581"/>
      <point x="414" y="798"/>
      <point x="639" y="798" type="curve" smooth="yes"/>
    </contour>
  </outline>
</glyph>
<glyph name="b" format="1">
  <advance width="1228"/>
  <unicode hex="0062"/>
  <outline>
    <contour>
      <point x="251" y="1312" type="line" smooth="yes"/>
      <point x="206" y="1312"/>
      <point x="185" y="1294"/>
      <point x="176" y="1244" type="curve" smooth="yes"/>
      <point x="167" y="1194"/>
      <point x="182" y="1176"/>
      <point x="227" y="1176" type="curve" smooth="yes"/>
      <point x="329" y="1176" type="line"/>
      <point x="131" y="55" type="line" smooth="yes"/>
      <point x="123" y="9"/>
      <point x="134" y="-10"/>
      <point x="190" y="-10" type="curve" smooth="yes"/>
      <point x="246" y="-10"/>
      <point x="263" y="9"/>
      <point x="271" y="55" type="curve" smooth="yes"/>
      <point x="290" y="158" type="line"/>
      <point x="353" y="51"/>
      <point x="458" y="-22"/>
      <point x="595" y="-22" type="curve" smooth="yes"/>
      <point x="948" y="-22"/>
      <point x="1109" y="299"/>
      <point x="1109" y="558" type="curve" smooth="yes"/>
      <point x="1109" y="797"/>
      <point x="960" y="946"/>
      <point x="745" y="946" type="curve" smooth="yes"/>
      <point x="617" y="946"/>
      <point x="507" y="890"/>
      <point x="411" y="791" type="curve"/>
      <point x="491" y="1244" type="line" smooth="yes"/>
      <point x="500" y="1294"/>
      <point x="485" y="1312"/>
      <point x="440" y="1312" type="curve" smooth="yes"/>
    </contour>
    <contour>
      <point x="872" y="798"/>
      <point x="952" y="698"/>
      <point x="952" y="549" type="curve" smooth="yes"/>
      <point x="952" y="343"/>
      <point x="826" y="126"/>
      <point x="601" y="126" type="curve" smooth="yes"/>
      <point x="447" y="126"/>
      <point x="346" y="219"/>
      <point x="346" y="383" type="curve" smooth="yes"/>
      <point x="346" y="589"/>
      <point x="482" y="798"/>
      <point x="719" y="798" type="curve"/>
    </contour>
  </outline>
</glyph>
<glyph name="e" format="1">
  <advance width="1228"/>
  <unicode hex="0065"/>
  <outline>
    <contour>
      <point x="379" y="946"/>
      <point x="148" y="684"/>
      <point x="148" y="354" type="curve" smooth="yes"/>
      <point x="148" y="122"/>
      <point x="287" y="-22"/>
      <point x="539" y="-22" type="curve" smooth="yes"/>
      <point x="694" y="-22"/>
      <point x="856" y="16"/>
      <point x="969" y="66" type="curve" smooth="yes"/>
      <point x="1011" y="85"/>
      <point x="1026" y="114"/>
      <point x="1010" y="166" type="curve" smooth="yes"/>
      <point x="994" y="217"/>
      <point x="962" y="232"/>
      <point x="929" y="215" type="curve" smooth="yes"/>
      <point x="828" y="164"/>
      <point x="688" y="123"/>
      <point x="554" y="123" type="curve" smooth="yes"/>
      <point x="398" y="123"/>
      <point x="304" y="194"/>
      <point x="304" y="361" type="curve" smooth="yes"/>
      <point x="304" y="602"/>
      <point x="449" y="801"/>
      <point x="704" y="801" type="curve" smooth="yes"/>
      <point x="849" y="801"/>
      <point x="921" y="734"/>
      <point x="921" y="650" type="curve" smooth="yes"/>
      <point x="921" y="592"/>
      <point x="899" y="558"/>
      <point x="822" y="550" type="curve" smooth="yes"/>
      <point x="281" y="488" type="line"/>
      <point x="248" y="348" type="line"/>
      <point x="853" y="411" type="line" smooth="yes"/>
      <point x="1015" y="428"/>
      <point x="1079" y="520"/>
      <point x="1079" y="655" type="curve" smooth="yes"/>
      <point x="1079" y="821"/>
      <point x="941" y="946"/>
      <point x="719" y="946" type="curve" smooth="yes"/>
    </contour>
  </outline>
</glyph>
<glyph name="f" format="1">
  <advance width="1228"/>
  <unicode hex="0066"/>
  <outline>
    <contour>
      <point x="768" y="1317"/>
      <point x="627" y="1186"/>
      <point x="588" y="967" type="curve" smooth="yes"/>
      <point x="566" y="844" type="line"/>
      <point x="368" y="844" type="line" smooth="yes"/>
      <point x="323" y="844"/>
      <point x="302" y="826"/>
      <point x="293" y="776" type="curve" smooth="yes"/>
      <point x="285" y="726"/>
      <point x="299" y="708"/>
      <point x="344" y="708" type="curve" smooth="yes"/>
      <point x="542" y="708" type="line"/>
      <point x="404" y="-78" type="line" smooth="yes"/>
      <point x="382" y="-206"/>
      <point x="317" y="-264"/>
      <point x="208" y="-264" type="curve" smooth="yes"/>
      <point x="136" y="-264"/>
      <point x="66" y="-243"/>
      <point x="2" y="-195" type="curve" smooth="yes"/>
      <point x="-25" y="-175"/>
      <point x="-57" y="-180"/>
      <point x="-86" y="-226" type="curve" smooth="yes"/>
      <point x="-116" y="-274"/>
      <point x="-106" y="-303"/>
      <point x="-77" y="-324" type="curve" smooth="yes"/>
      <point x="4" y="-382"/>
      <point x="98" y="-410"/>
      <point x="195" y="-410" type="curve" smooth="yes"/>
      <point x="395" y="-410"/>
      <point x="517" y="-293"/>
      <point x="552" y="-91" type="curve" smooth="yes"/>
      <point x="692" y="708" type="line"/>
      <point x="1038" y="708" type="line" smooth="yes"/>
      <point x="1083" y="708"/>
      <point x="1105" y="726"/>
      <point x="1113" y="776" type="curve" smooth="yes"/>
      <point x="1122" y="826"/>
      <point x="1107" y="844"/>
      <point x="1062" y="844" type="curve" smooth="yes"/>
      <point x="716" y="844" type="line"/>
      <point x="736" y="954" type="line" smooth="yes"/>
      <point x="760" y="1091"/>
      <point x="835" y="1171"/>
      <point x="976" y="1171" type="curve" smooth="yes"/>
      <point x="1055" y="1171"/>
      <point x="1132" y="1153"/>
      <point x="1204" y="1124" type="curve" smooth="yes"/>
      <point x="1236" y="1111"/>
      <point x="1267" y="1119"/>
      <point x="1286" y="1174" type="curve" smooth="yes"/>
      <point x="1304" y="1225"/>
      <point x="1282" y="1252"/>
      <point x="1249" y="1266" type="curve" smooth="yes"/>
      <point x="1174" y="1297"/>
      <point x="1086" y="1317"/>
      <point x="992" y="1317" type="curve" smooth="yes"/>
    </contour>
  </outline>
</glyph>
<glyph name="g" format="1">
  <advance width="1228"/>
  <unicode hex="0067"/>
  <outline>
    <contour>
      <point x="343" y="946"/>
      <point x="152" y="685"/>
      <point x="152" y="400" type="curve" smooth="yes"/>
      <point x="152" y="172"/>
      <point x="302" y="28"/>
      <point x="518" y="28" type="curve" smooth="yes"/>
      <point x="647" y="28"/>
      <point x="754" y="78"/>
      <point x="851" y="174" type="curve"/>
      <point x="818" y="-17" type="line" smooth="yes"/>
      <point x="793" y="-164"/>
      <point x="689" y="-262"/>
      <point x="511" y="-262" type="curve" smooth="yes"/>
      <point x="414" y="-262"/>
      <point x="309" y="-244"/>
      <point x="222" y="-206" type="curve" smooth="yes"/>
      <point x="190" y="-192"/>
      <point x="161" y="-204"/>
      <point x="140" y="-256" type="curve" smooth="yes"/>
      <point x="119" y="-307"/>
      <point x="133" y="-336"/>
      <point x="167" y="-350" type="curve" smooth="yes"/>
      <point x="265" y="-390"/>
      <point x="380" y="-410"/>
      <point x="495" y="-410" type="curve" smooth="yes"/>
      <point x="757" y="-410"/>
      <point x="921" y="-279"/>
      <point x="963" y="-40" type="curve" smooth="yes"/>
      <point x="1124" y="869" type="line" smooth="yes"/>
      <point x="1132" y="915"/>
      <point x="1121" y="934"/>
      <point x="1065" y="934" type="curve" smooth="yes"/>
      <point x="1009" y="934"/>
      <point x="992" y="915"/>
      <point x="984" y="869" type="curve" smooth="yes"/>
      <point x="965" y="766" type="line"/>
      <point x="905" y="877"/>
      <point x="806" y="946"/>
      <point x="670" y="946" type="curve" smooth="yes"/>
    </contour>
    <contour>
      <point x="809" y="798"/>
      <point x="913" y="710"/>
      <point x="913" y="556" type="curve" smooth="yes"/>
      <point x="913" y="383"/>
      <point x="794" y="176"/>
      <point x="545" y="176" type="curve" smooth="yes"/>
      <point x="390" y="176"/>
      <point x="309" y="271"/>
      <point x="309" y="412" type="curve" smooth="yes"/>
      <point x="309" y="602"/>
      <point x="430" y="798"/>
      <point x="654" y="798" type="curve" smooth="yes"/>
    </contour>
  </outline>
</glyph>
<glyph name="j" format="1">
  <advance width="1228"/>
  <unicode hex="006A"/>
  <outline>
    <contour>
      <point x="422" y="924" type="line" smooth="yes"/>
      <point x="377" y="924"/>
      <point x="356" y="906"/>
      <point x="347" y="856" type="curve" smooth="yes"/>
      <point x="339" y="806"/>
      <point x="353" y="788"/>
      <point x="398" y="788" type="curve" smooth="yes"/>
      <point x="821" y="788" type="line"/>
      <point x="674" y="-49" type="line" smooth="yes"/>
      <point x="648" y="-196"/>
      <point x="592" y="-269"/>
      <point x="458" y="-269" type="curve" smooth="yes"/>
      <point x="365" y="-269"/>
      <point x="268" y="-228"/>
      <point x="190" y="-172" type="curve" smooth="yes"/>
      <point x="163" y="-152"/>
      <point x="129" y="-153"/>
      <point x="99" y="-204" type="curve" smooth="yes"/>
      <point x="69" y="-255"/>
      <point x="81" y="-281"/>
      <point x="110" y="-302" type="curve" smooth="yes"/>
      <point x="199" y="-365"/>
      <point x="327" y="-415"/>
      <point x="442" y="-415" type="curve" smooth="yes"/>
      <point x="674" y="-415"/>
      <point x="782" y="-291"/>
      <point x="822" y="-62" type="curve" smooth="yes"/>
      <point x="983" y="856" type="line" smooth="yes"/>
      <point x="992" y="906"/>
      <point x="977" y="924"/>
      <point x="932" y="924" type="curve" smooth="yes"/>
    </contour>
    <contour>
      <point x="902" y="1363"/>
      <point x="879" y="1344"/>
      <point x="871" y="1298" type="curve" smooth="yes"/>
      <point x="848" y="1168" type="line" smooth="yes"/>
      <point x="840" y="1122"/>
      <point x="856" y="1103"/>
      <point x="932" y="1103" type="curve" smooth="yes"/>
      <point x="1008" y="1103"/>
      <point x="1030" y="1122"/>
      <point x="1038" y="1168" type="curve" smooth="yes"/>
      <point x="1061" y="1298" type="line" smooth="yes"/>
      <point x="1069" y="1344"/>
      <point x="1054" y="1363"/>
      <point x="978" y="1363" type="curve" smooth="yes"/>
    </contour>
  </outline>
</glyph>
<glyph name="k" format="1">
  <advance width="1228"/>
  <unicode hex="006B"/>
  <outline>
    <contour>
      <point x="291" y="1312" type="line" smooth="yes"/>
      <point x="246" y="1312"/>
      <point x="225" y="1294"/>
      <point x="216" y="1244" type="curve" smooth="yes"/>
      <point x="207" y="1194"/>
      <point x="222" y="1176"/>
      <point x="267" y="1176" type="curve" smooth="yes"/>
      <point x="398" y="1176" type="line"/>
      <point x="200" y="55" type="line" smooth="yes"/>
      <point x="192" y="9"/>
      <point x="207" y="-10"/>
      <point x="263" y="-10" type="curve" smooth="yes"/>
      <point x="265" y="-10" type="line" smooth="yes"/>
      <point x="318" y="-10"/>
      <point x="342" y="9"/>
      <point x="350" y="55" type="curve" smooth="yes"/>
      <point x="397" y="321" type="line"/>
      <point x="415" y="334" type="line" smooth="yes"/>
      <point x="455" y="363"/>
      <point x="516" y="379"/>
      <point x="564" y="379" type="curve" smooth="yes"/>
      <point x="615" y="379"/>
      <point x="662" y="361"/>
      <point x="694" y="325" type="curve" smooth="yes"/>
      <point x="753" y="256"/>
      <point x="759" y="127"/>
      <point x="848" y="40" type="curve" smooth="yes"/>
      <point x="876" y="12"/>
      <point x="918" y="0"/>
      <point x="963" y="0" type="curve" smooth="yes"/>
      <point x="1006" y="0" type="line" smooth="yes"/>
      <point x="1051" y="0"/>
      <point x="1072" y="18"/>
      <point x="1080" y="68" type="curve" smooth="yes"/>
      <point x="1089" y="118"/>
      <point x="1074" y="136"/>
      <point x="1029" y="136" type="curve" smooth="yes"/>
      <point x="1005" y="136" type="line" smooth="yes"/>
      <point x="977" y="136"/>
      <point x="956" y="148"/>
      <point x="940" y="167" type="curve" smooth="yes"/>
      <point x="891" y="224"/>
      <point x="877" y="346"/>
      <point x="805" y="424" type="curve" smooth="yes"/>
      <point x="757" y="477"/>
      <point x="701" y="497"/>
      <point x="634" y="486" type="curve"/>
      <point x="1048" y="788" type="line"/>
      <point x="1103" y="788" type="line" smooth="yes"/>
      <point x="1148" y="788"/>
      <point x="1170" y="806"/>
      <point x="1178" y="856" type="curve" smooth="yes"/>
      <point x="1187" y="906"/>
      <point x="1172" y="924"/>
      <point x="1127" y="924" type="curve" smooth="yes"/>
      <point x="793" y="924" type="line" smooth="yes"/>
      <point x="748" y="924"/>
      <point x="727" y="906"/>
      <point x="718" y="856" type="curve" smooth="yes"/>
      <point x="710" y="806"/>
      <point x="724" y="788"/>
      <point x="769" y="788" type="curve" smooth="yes"/>
      <point x="823" y="788" type="line"/>
      <point x="428" y="497" type="line"/>
      <point x="560" y="1244" type="line" smooth="yes"/>
      <point x="569" y="1294"/>
      <point x="554" y="1312"/>
      <point x="509" y="1312" type="curve" smooth="yes"/>
    </contour>
  </outline>
</glyph>
<glyph name="p" format="1">
  <advance width="1228"/>
  <unicode hex="0070"/>
  <outline>
    <contour>
      <point x="627" y="946"/>
      <point x="511" y="889"/>
      <point x="410" y="786" type="curve"/>
      <point x="422" y="856" type="line" smooth="yes"/>
      <point x="431" y="906"/>
      <point x="416" y="924"/>
      <point x="371" y="924" type="curve" smooth="yes"/>
      <point x="212" y="924" type="line" smooth="yes"/>
      <point x="167" y="924"/>
      <point x="146" y="906"/>
      <point x="137" y="856" type="curve" smooth="yes"/>
      <point x="129" y="806"/>
      <point x="143" y="788"/>
      <point x="188" y="788" type="curve" smooth="yes"/>
      <point x="270" y="788" type="line"/>
      <point x="86" y="-257" type="line"/>
      <point x="4" y="-257" type="line" smooth="yes"/>
      <point x="-41" y="-257"/>
      <point x="-62" y="-275"/>
      <point x="-70" y="-325" type="curve" smooth="yes"/>
      <point x="-79" y="-375"/>
      <point x="-65" y="-393"/>
      <point x="-20" y="-393" type="curve" smooth="yes"/>
      <point x="464" y="-393" type="line" smooth="yes"/>
      <point x="509" y="-393"/>
      <point x="530" y="-375"/>
      <point x="539" y="-325" type="curve" smooth="yes"/>
      <point x="548" y="-275"/>
      <point x="533" y="-257"/>
      <point x="488" y="-257" type="curve" smooth="yes"/>
      <point x="236" y="-257" type="line"/>
      <point x="316" y="194" type="line"/>
      <point x="375" y="91"/>
      <point x="471" y="28"/>
      <point x="604" y="28" type="curve" smooth="yes"/>
      <point x="931" y="28"/>
      <point x="1122" y="289"/>
      <point x="1122" y="574" type="curve" smooth="yes"/>
      <point x="1122" y="802"/>
      <point x="971" y="946"/>
      <point x="755" y="946" type="curve" smooth="yes"/>
    </contour>
    <contour>
      <point x="884" y="798"/>
      <point x="965" y="703"/>
      <point x="965" y="562" type="curve" smooth="yes"/>
      <point x="965" y="372"/>
      <point x="844" y="176"/>
      <point x="620" y="176" type="curve" smooth="yes"/>
      <point x="465" y="176"/>
      <point x="361" y="264"/>
      <point x="361" y="418" type="curve" smooth="yes"/>
      <point x="361" y="591"/>
      <point x="480" y="798"/>
      <point x="729" y="798" type="curve" smooth="yes"/>
    </contour>
  </outline>
</glyph>
<glyph name="q" format="1">
  <advance width="1228"/>
  <unicode hex="0071"/>
  <outline>
    <contour>
      <point x="343" y="946"/>
      <point x="152" y="685"/>
      <point x="152" y="400" type="curve" smooth="yes"/>
      <point x="152" y="172"/>
      <point x="302" y="28"/>
      <point x="518" y="28" type="curve"/>
      <point x="647" y="28"/>
      <point x="754" y="78"/>
      <point x="851" y="174" type="curve"/>
      <point x="776" y="-252" type="line"/>
      <point x="554" y="-252" type="line" smooth="yes"/>
      <point x="509" y="-252"/>
      <point x="488" y="-270"/>
      <point x="479" y="-320" type="curve" smooth="yes"/>
      <point x="470" y="-370"/>
      <point x="485" y="-388"/>
      <point x="530" y="-388" type="curve" smooth="yes"/>
      <point x="1014" y="-388" type="line" smooth="yes"/>
      <point x="1059" y="-388"/>
      <point x="1080" y="-370"/>
      <point x="1089" y="-320" type="curve" smooth="yes"/>
      <point x="1098" y="-270"/>
      <point x="1083" y="-252"/>
      <point x="1038" y="-252" type="curve" smooth="yes"/>
      <point x="926" y="-252" type="line"/>
      <point x="1124" y="869" type="line" smooth="yes"/>
      <point x="1132" y="915"/>
      <point x="1121" y="934"/>
      <point x="1065" y="934" type="curve" smooth="yes"/>
      <point x="1009" y="934"/>
      <point x="992" y="915"/>
      <point x="984" y="869" type="curve" smooth="yes"/>
      <point x="965" y="766" type="line"/>
      <point x="905" y="877"/>
      <point x="806" y="946"/>
      <point x="670" y="946" type="curve" smooth="yes"/>
    </contour>
    <contour>
      <point x="809" y="798"/>
      <point x="913" y="710"/>
      <point x="913" y="556" type="curve" smooth="yes"/>
      <point x="913" y="383"/>
      <point x="794" y="176"/>
      <point x="545" y="176" type="curve" smooth="yes"/>
      <point x="390" y="176"/>
      <point x="309" y="271"/>
      <point x="309" y="412" type="curve" smooth="yes"/>
      <point x="309" y="602"/>
      <point x="430" y="798"/>
      <point x="654" y="798" type="curve" smooth="yes"/>
    </contour>
  </outline>
</glyph>
<glyph name="r" format="1">
  <advance width="1228"/>
  <unicode hex="0072"/>
  <outline>
    <contour>
      <point x="332" y="924" type="line" smooth="yes"/>
      <point x="287" y="924"/>
      <point x="266" y="906"/>
      <point x="257" y="856" type="curve" smooth="yes"/>
      <point x="249" y="806"/>
      <point x="263" y="788"/>
      <point x="308" y="788" type="curve" smooth="yes"/>
      <point x="435" y="788" type="line"/>
      <point x="320" y="136" type="line"/>
      <point x="163" y="136" type="line" smooth="yes"/>
      <point x="118" y="136"/>
      <point x="97" y="118"/>
      <point x="88" y="68" type="curve" smooth="yes"/>
      <point x="80" y="18"/>
      <point x="95" y="0"/>
      <point x="140" y="0" type="curve" smooth="yes"/>
      <point x="784" y="0" type="line" smooth="yes"/>
      <point x="829" y="0"/>
      <point x="850" y="18"/>
      <point x="858" y="68" type="curve" smooth="yes"/>
      <point x="867" y="118"/>
      <point x="852" y="136"/>
      <point x="807" y="136" type="curve" smooth="yes"/>
      <point x="470" y="136" type="line"/>
      <point x="501" y="310" type="line" smooth="yes"/>
      <point x="545" y="560"/>
      <point x="795" y="779"/>
      <point x="977" y="779" type="curve" smooth="yes"/>
      <point x="1012" y="779"/>
      <point x="1045" y="771"/>
      <point x="1073" y="753" type="curve" smooth="yes"/>
      <point x="1107" y="731"/>
      <point x="1136" y="748"/>
      <point x="1162" y="798" type="curve" smooth="yes"/>
      <point x="1188" y="848"/>
      <point x="1170" y="883"/>
      <point x="1135" y="906" type="curve" smooth="yes"/>
      <point x="1094" y="933"/>
      <point x="1048" y="946"/>
      <point x="999" y="946" type="curve" smooth="yes"/>
      <point x="852" y="946"/>
      <point x="682" y="832"/>
      <point x="552" y="654" type="curve"/>
      <point x="587" y="856" type="line" smooth="yes"/>
      <point x="596" y="906"/>
      <point x="581" y="924"/>
      <point x="536" y="924" type="curve" smooth="yes"/>
    </contour>
  </outline>
</glyph>
<glyph name="s" format="1">
  <advance width="1228"/>
  <unicode hex="0073"/>
  <outline>
    <contour>
      <point x="969" y="946"/>
      <point x="947" y="927"/>
      <point x="939" y="881" type="curve" smooth="yes"/>
      <point x="931" y="836" type="line"/>
      <point x="868" y="904"/>
      <point x="766" y="946"/>
      <point x="634" y="946" type="curve" smooth="yes"/>
      <point x="361" y="946"/>
      <point x="229" y="794"/>
      <point x="229" y="629" type="curve" smooth="yes"/>
      <point x="229" y="529"/>
      <point x="295" y="477"/>
      <point x="385" y="447" type="curve" smooth="yes"/>
      <point x="510" y="405"/>
      <point x="640" y="411"/>
      <point x="763" y="382" type="curve" smooth="yes"/>
      <point x="827" y="367"/>
      <point x="871" y="342"/>
      <point x="871" y="293" type="curve" smooth="yes"/>
      <point x="871" y="230"/>
      <point x="815" y="123"/>
      <point x="603" y="123" type="curve" smooth="yes"/>
      <point x="418" y="123"/>
      <point x="319" y="178"/>
      <point x="292" y="307" type="curve" smooth="yes"/>
      <point x="286" y="336"/>
      <point x="274" y="348"/>
      <point x="245" y="348" type="curve" smooth="yes"/>
      <point x="189" y="348"/>
      <point x="166" y="329"/>
      <point x="158" y="283" type="curve" smooth="yes"/>
      <point x="116" y="43" type="line" smooth="yes"/>
      <point x="108" y="-3"/>
      <point x="124" y="-22"/>
      <point x="180" y="-22" type="curve" smooth="yes"/>
      <point x="236" y="-22"/>
      <point x="258" y="-3"/>
      <point x="266" y="43" type="curve" smooth="yes"/>
      <point x="276" y="99" type="line"/>
      <point x="343" y="18"/>
      <point x="443" y="-22"/>
      <point x="588" y="-22" type="curve" smooth="yes"/>
      <point x="937" y="-22"/>
      <point x="1031" y="187"/>
      <point x="1031" y="320" type="curve" smooth="yes"/>
      <point x="1031" y="425"/>
      <point x="962" y="480"/>
      <point x="870" y="510" type="curve" smooth="yes"/>
      <point x="749" y="549"/>
      <point x="620" y="547"/>
      <point x="498" y="573" type="curve" smooth="yes"/>
      <point x="432" y="587"/>
      <point x="389" y="609"/>
      <point x="389" y="655" type="curve" smooth="yes"/>
      <point x="389" y="728"/>
      <point x="461" y="801"/>
      <point x="619" y="801" type="curve" smooth="yes"/>
      <point x="775" y="801"/>
      <point x="886" y="768"/>
      <point x="925" y="652" type="curve" smooth="yes"/>
      <point x="931" y="635"/>
      <point x="945" y="626"/>
      <point x="969" y="626" type="curve" smooth="yes"/>
      <point x="1025" y="626"/>
      <point x="1047" y="645"/>
      <point x="1055" y="691" type="curve" smooth="yes"/>
      <point x="1089" y="881" type="line" smooth="yes"/>
      <point x="1097" y="927"/>
      <point x="1081" y="946"/>
      <point x="1025" y="946" type="curve" smooth="yes"/>
    </contour>
  </outline>
</glyph>
<glyph name="u" format="1">
  <advance width="1228"/>
  <unicode hex="0075"/>
  <outline>
    <contour>
      <point x="799" y="924" type="line" smooth="yes"/>
      <point x="754" y="924"/>
      <point x="733" y="906"/>
      <point x="724" y="856" type="curve" smooth="yes"/>
      <point x="716" y="806"/>
      <point x="730" y="788"/>
      <point x="775" y="788" type="curve" smooth="yes"/>
      <point x="917" y="788" type="line"/>
      <point x="870" y="522" type="line" smooth="yes"/>
      <point x="831" y="304"/>
      <point x="651" y="126"/>
      <point x="480" y="126" type="curve" smooth="yes"/>
      <point x="389" y="126"/>
      <point x="347" y="180"/>
      <point x="347" y="265" type="curve" smooth="yes"/>
      <point x="347" y="282"/>
      <point x="349" y="300"/>
      <point x="352" y="319" type="curve" smooth="yes"/>
      <point x="447" y="856" type="line" smooth="yes"/>
      <point x="456" y="906"/>
      <point x="441" y="924"/>
      <point x="396" y="924" type="curve" smooth="yes"/>
      <point x="227" y="924" type="line" smooth="yes"/>
      <point x="182" y="924"/>
      <point x="161" y="906"/>
      <point x="152" y="856" type="curve" smooth="yes"/>
      <point x="144" y="806"/>
      <point x="158" y="788"/>
      <point x="203" y="788" type="curve" smooth="yes"/>
      <point x="285" y="788" type="line"/>
      <point x="201" y="314" type="line" smooth="yes"/>
      <point x="196" y="288"/>
      <point x="194" y="262"/>
      <point x="194" y="238" type="curve" smooth="yes"/>
      <point x="194" y="80"/>
      <point x="289" y="-22"/>
      <point x="449" y="-22" type="curve" smooth="yes"/>
      <point x="580" y="-22"/>
      <point x="709" y="52"/>
      <point x="821" y="188" type="curve"/>
      <point x="800" y="68" type="line" smooth="yes"/>
      <point x="791" y="18"/>
      <point x="806" y="0"/>
      <point x="851" y="0" type="curve"/>
      <point x="1011" y="0" type="line" smooth="yes"/>
      <point x="1056" y="0"/>
      <point x="1077" y="18"/>
      <point x="1085" y="68" type="curve" smooth="yes"/>
      <point x="1094" y="118"/>
      <point x="1079" y="136"/>
      <point x="1034" y="136" type="curve" smooth="yes"/>
      <point x="952" y="136" type="line"/>
      <point x="1079" y="856" type="line" smooth="yes"/>
      <point x="1088" y="906"/>
      <point x="1073" y="924"/>
      <point x="1028" y="924" type="curve" smooth="yes"/>
    </contour>
  </outline>
</glyph>
<glyph name="w" format="1">
  <advance width="1228"/>
  <unicode hex="0077"/>
  <outline>
    <contour>
      <point x="142" y="788" type="line"/>
      <point x="204" y="43" type="line" smooth="yes"/>
      <point x="208" y="-4"/>
      <point x="227" y="-22"/>
      <point x="278" y="-22" type="curve" smooth="yes"/>
      <point x="335" y="-22"/>
      <point x="371" y="-3"/>
      <point x="395" y="43" type="curve" smooth="yes"/>
      <point x="627" y="477" type="line"/>
      <point x="703" y="43" type="line" smooth="yes"/>
      <point x="711" y="-2"/>
      <point x="739" y="-22"/>
      <point x="796" y="-22" type="curve" smooth="yes"/>
      <point x="847" y="-22"/>
      <point x="873" y="-5"/>
      <point x="894" y="43" type="curve" smooth="yes"/>
      <point x="1222" y="788" type="line"/>
      <point x="1243" y="788" type="line" smooth="yes"/>
      <point x="1288" y="788"/>
      <point x="1310" y="806"/>
      <point x="1318" y="856" type="curve" smooth="yes"/>
      <point x="1327" y="906"/>
      <point x="1312" y="924"/>
      <point x="1267" y="924" type="curve" smooth="yes"/>
      <point x="993" y="924" type="line" smooth="yes"/>
      <point x="948" y="924"/>
      <point x="927" y="906"/>
      <point x="918" y="856" type="curve" smooth="yes"/>
      <point x="910" y="806"/>
      <point x="924" y="788"/>
      <point x="969" y="788" type="curve" smooth="yes"/>
      <point x="1067" y="788" type="line"/>
      <point x="817" y="206" type="line"/>
      <point x="734" y="677" type="line" smooth="yes"/>
      <point x="729" y="703"/>
      <point x="709" y="717"/>
      <point x="664" y="717" type="curve" smooth="yes"/>
      <point x="620" y="717"/>
      <point x="594" y="696"/>
      <point x="580" y="670" type="curve" smooth="yes"/>
      <point x="331" y="206" type="line"/>
      <point x="289" y="788" type="line"/>
      <point x="415" y="788" type="line" smooth="yes"/>
      <point x="460" y="788"/>
      <point x="482" y="806"/>
      <point x="490" y="856" type="curve" smooth="yes"/>
      <point x="499" y="906"/>
      <point x="484" y="924"/>
      <point x="439" y="924" type="curve" smooth="yes"/>
      <point x="145" y="924" type="line" smooth="yes"/>
      <point x="100" y="924"/>
      <point x="79" y="906"/>
      <point x="70" y="856" type="curve" smooth="yes"/>
      <point x="62" y="806"/>
      <point x="76" y="788"/>
      <point x="121" y="788" type="curve" smooth="yes"/>
    </contour>
  </outline>
</glyph>
<glyph name="x" format="1">
  <advance width="1228"/>
  <unicode hex="0078"/>
  <outline>
    <contour>
      <point x="873" y="924" type="line" smooth="yes"/>
      <point x="828" y="924"/>
      <point x="807" y="906"/>
      <point x="798" y="856" type="curve" smooth="yes"/>
      <point x="790" y="806"/>
      <point x="804" y="788"/>
      <point x="849" y="788" type="curve" smooth="yes"/>
      <point x="893" y="788" type="line"/>
      <point x="644" y="561" type="line"/>
      <point x="474" y="788" type="line"/>
      <point x="555" y="788" type="line" smooth="yes"/>
      <point x="600" y="788"/>
      <point x="622" y="806"/>
      <point x="630" y="856" type="curve" smooth="yes"/>
      <point x="639" y="906"/>
      <point x="624" y="924"/>
      <point x="579" y="924" type="curve" smooth="yes"/>
      <point x="235" y="924" type="line" smooth="yes"/>
      <point x="190" y="924"/>
      <point x="169" y="906"/>
      <point x="160" y="856" type="curve" smooth="yes"/>
      <point x="152" y="806"/>
      <point x="166" y="788"/>
      <point x="211" y="788" type="curve" smooth="yes"/>
      <point x="288" y="788" type="line"/>
      <point x="525" y="479" type="line"/>
      <point x="138" y="136" type="line"/>
      <point x="86" y="136" type="line" smooth="yes"/>
      <point x="41" y="136"/>
      <point x="20" y="118"/>
      <point x="11" y="68" type="curve" smooth="yes"/>
      <point x="3" y="18"/>
      <point x="18" y="0"/>
      <point x="63" y="0" type="curve" smooth="yes"/>
      <point x="377" y="0" type="line" smooth="yes"/>
      <point x="422" y="0"/>
      <point x="443" y="18"/>
      <point x="451" y="68" type="curve" smooth="yes"/>
      <point x="460" y="118"/>
      <point x="445" y="136"/>
      <point x="400" y="136" type="curve" smooth="yes"/>
      <point x="332" y="136" type="line"/>
      <point x="613" y="390" type="line"/>
      <point x="805" y="136" type="line"/>
      <point x="704" y="136" type="line" smooth="yes"/>
      <point x="659" y="136"/>
      <point x="638" y="118"/>
      <point x="629" y="68" type="curve" smooth="yes"/>
      <point x="621" y="18"/>
      <point x="636" y="0"/>
      <point x="681" y="0" type="curve" smooth="yes"/>
      <point x="1025" y="0" type="line" smooth="yes"/>
      <point x="1070" y="0"/>
      <point x="1091" y="18"/>
      <point x="1099" y="68" type="curve" smooth="yes"/>
      <point x="1108" y="118"/>
      <point x="1093" y="136"/>
      <point x="1048" y="136" type="curve" smooth="yes"/>
      <point x="991" y="136" type="line"/>
      <point x="731" y="473" type="line"/>
      <point x="1086" y="788" type="line"/>
      <point x="1153" y="788" type="line" smooth="yes"/>
      <point x="1198" y="788"/>
      <point x="1220" y="806"/>
      <point x="1228" y="856" type="curve" smooth="yes"/>
      <point x="1237" y="906"/>
      <point x="1222" y="924"/>
      <point x="1177" y="924" type="curve" smooth="yes"/>
    </contour>
  </outline>
</glyph>
<glyph name="y" format="1">
  <advance width="1228"/>
  <unicode hex="0079"/>
  <outline>
    <contour>
      <point x="893" y="924" type="line" smooth="yes"/>
      <point x="848" y="924"/>
      <point x="827" y="906"/>
      <point x="818" y="856" type="curve" smooth="yes"/>
      <point x="810" y="806"/>
      <point x="824" y="788"/>
      <point x="869" y="788" type="curve" smooth="yes"/>
      <point x="954" y="788" type="line"/>
      <point x="586" y="226" type="line"/>
      <point x="403" y="788" type="line"/>
      <point x="535" y="788" type="line" smooth="yes"/>
      <point x="580" y="788"/>
      <point x="602" y="806"/>
      <point x="610" y="856" type="curve" smooth="yes"/>
      <point x="619" y="906"/>
      <point x="604" y="924"/>
      <point x="559" y="924" type="curve" smooth="yes"/>
      <point x="205" y="924" type="line" smooth="yes"/>
      <point x="160" y="924"/>
      <point x="139" y="906"/>
      <point x="130" y="856" type="curve" smooth="yes"/>
      <point x="122" y="806"/>
      <point x="136" y="788"/>
      <point x="181" y="788" type="curve" smooth="yes"/>
      <point x="247" y="788" type="line"/>
      <point x="484" y="78" type="line"/>
      <point x="303" y="-192"/>
      <point x="234" y="-253"/>
      <point x="47" y="-263" type="curve" smooth="yes"/>
      <point x="11" y="-265"/>
      <point x="-15" y="-289"/>
      <point x="-15" y="-347" type="curve" smooth="yes"/>
      <point x="-15" y="-400"/>
      <point x="16" y="-415"/>
      <point x="56" y="-414" type="curve" smooth="yes"/>
      <point x="277" y="-406"/>
      <point x="394" y="-313"/>
      <point x="568" y="-50" type="curve" smooth="yes"/>
      <point x="1124" y="788" type="line"/>
      <point x="1183" y="788" type="line" smooth="yes"/>
      <point x="1228" y="788"/>
      <point x="1250" y="806"/>
      <point x="1258" y="856" type="curve" smooth="yes"/>
      <point x="1267" y="906"/>
      <point x="1252" y="924"/>
      <point x="1207" y="924" type="curve" smooth="yes"/>
    </contour>
  </outline>
</glyph>
<glyph name="braceleft" format="1">
  <advance width="1228"/>
  <unicode hex="007B"/>
  <outline>
    <contour>
      <point x="610" y="540"/>
      <point x="677" y="638"/>
      <point x="699" y="760" type="curve" smooth="yes"/>
      <point x="728" y="927" type="line" smooth="yes"/>
      <point x="758" y="1099"/>
      <point x="838" y="1176"/>
      <point x="984" y="1176" type="curve" smooth="yes"/>
      <point x="1029" y="1176"/>
      <point x="1050" y="1194"/>
      <point x="1059" y="1244" type="curve" smooth="yes"/>
      <point x="1068" y="1294"/>
      <point x="1053" y="1312"/>
      <point x="1008" y="1312" type="curve" smooth="yes"/>
      <point x="775" y="1312"/>
      <point x="628" y="1210"/>
      <point x="583" y="956" type="curve" smooth="yes"/>
      <point x="550" y="770" type="line" smooth="yes"/>
      <point x="525" y="625"/>
      <point x="443" y="549"/>
      <point x="296" y="549" type="curve" smooth="yes"/>
      <point x="251" y="549"/>
      <point x="230" y="531"/>
      <point x="221" y="481" type="curve" smooth="yes"/>
      <point x="212" y="431"/>
      <point x="227" y="413"/>
      <point x="272" y="413" type="curve" smooth="yes"/>
      <point x="419" y="413"/>
      <point x="474" y="338"/>
      <point x="449" y="193" type="curve" smooth="yes"/>
      <point x="414" y="-3" type="line" smooth="yes"/>
      <point x="369" y="-257"/>
      <point x="477" y="-393"/>
      <point x="707" y="-393" type="curve" smooth="yes"/>
      <point x="752" y="-393"/>
      <point x="773" y="-375"/>
      <point x="782" y="-325" type="curve" smooth="yes"/>
      <point x="791" y="-275"/>
      <point x="776" y="-257"/>
      <point x="731" y="-257" type="curve" smooth="yes"/>
      <point x="581" y="-257"/>
      <point x="532" y="-187"/>
      <point x="563" y="-8" type="curve" smooth="yes"/>
      <point x="600" y="203" type="line" smooth="yes"/>
      <point x="622" y="325"/>
      <point x="589" y="424"/>
      <point x="502" y="482" type="curve"/>
    </contour>
  </outline>
</glyph>
<glyph name="bar" format="1">
  <advance width="1228"/>
  <unicode hex="007C"/>
  <outline>
    <contour>
      <point x="407" y="-350" type="line" smooth="yes"/>
      <point x="399" y="-396"/>
      <point x="414" y="-415"/>
      <point x="470" y="-415" type="curve" smooth="yes"/>
      <point x="526" y="-415"/>
      <point x="549" y="-396"/>
      <point x="557" y="-350" type="curve" smooth="yes"/>
      <point x="842" y="1269" type="line" smooth="yes"/>
      <point x="850" y="1315"/>
      <point x="835" y="1334"/>
      <point x="779" y="1334" type="curve" smooth="yes"/>
      <point x="723" y="1334"/>
      <point x="700" y="1315"/>
      <point x="692" y="1269" type="curve" smooth="yes"/>
    </contour>
  </outline>
</glyph>
<glyph name="braceright" format="1">
  <advance width="1228"/>
  <unicode hex="007D"/>
  <outline>
    <contour>
      <point x="646" y="422"/>
      <point x="579" y="324"/>
      <point x="557" y="202" type="curve" smooth="yes"/>
      <point x="521" y="-8" type="line" smooth="yes"/>
      <point x="491" y="-180"/>
      <point x="411" y="-257"/>
      <point x="265" y="-257" type="curve" smooth="yes"/>
      <point x="220" y="-257"/>
      <point x="199" y="-275"/>
      <point x="190" y="-325" type="curve" smooth="yes"/>
      <point x="181" y="-375"/>
      <point x="196" y="-393"/>
      <point x="241" y="-393" type="curve" smooth="yes"/>
      <point x="474" y="-393"/>
      <point x="621" y="-291"/>
      <point x="666" y="-37" type="curve" smooth="yes"/>
      <point x="706" y="192" type="line" smooth="yes"/>
      <point x="731" y="337"/>
      <point x="813" y="413"/>
      <point x="960" y="413" type="curve" smooth="yes"/>
      <point x="1005" y="413"/>
      <point x="1026" y="431"/>
      <point x="1035" y="481" type="curve" smooth="yes"/>
      <point x="1044" y="531"/>
      <point x="1029" y="549"/>
      <point x="984" y="549" type="curve" smooth="yes"/>
      <point x="837" y="549"/>
      <point x="782" y="624"/>
      <point x="807" y="769" type="curve" smooth="yes"/>
      <point x="835" y="922" type="line" smooth="yes"/>
      <point x="880" y="1176"/>
      <point x="772" y="1312"/>
      <point x="542" y="1312" type="curve" smooth="yes"/>
      <point x="497" y="1312"/>
      <point x="476" y="1294"/>
      <point x="467" y="1244" type="curve" smooth="yes"/>
      <point x="458" y="1194"/>
      <point x="473" y="1176"/>
      <point x="518" y="1176" type="curve" smooth="yes"/>
      <point x="668" y="1176"/>
      <point x="717" y="1106"/>
      <point x="686" y="927" type="curve" smooth="yes"/>
      <point x="656" y="759" type="line" smooth="yes"/>
      <point x="634" y="637"/>
      <point x="667" y="538"/>
      <point x="754" y="480" type="curve"/>
    </contour>
  </outline>
</glyph>
<glyph name="asciitilde" format="1">
  <advance width="1228"/>
  <unicode hex="007E"/>
  <outline>
    <contour>
      <point x="1117" y="581"/>
      <point x="1115" y="616"/>
      <point x="1101" y="643" type="curve" smooth="yes"/>
      <point x="1086" y="670"/>
      <point x="1059" y="689"/>
      <point x="1033" y="672" type="curve" smooth="yes"/>
      <point x="968" y="630"/>
      <point x="910" y="614"/>
      <point x="854" y="614" type="curve" smooth="yes"/>
      <point x="720" y="614"/>
      <point x="604" y="700"/>
      <point x="460" y="700" type="curve" smooth="yes"/>
      <point x="383" y="700"/>
      <point x="299" y="676"/>
      <point x="200" y="601" type="curve" smooth="yes"/>
      <point x="173" y="581"/>
      <point x="175" y="544"/>
      <point x="191" y="517" type="curve" smooth="yes"/>
      <point x="206" y="491"/>
      <point x="234" y="474"/>
      <point x="259" y="490" type="curve" smooth="yes"/>
      <point x="324" y="532"/>
      <point x="383" y="548"/>
      <point x="438" y="548" type="curve" smooth="yes"/>
      <point x="572" y="548"/>
      <point x="688" y="462"/>
      <point x="832" y="462" type="curve" smooth="yes"/>
      <point x="908" y="462"/>
      <point x="992" y="486"/>
      <point x="1091" y="561" type="curve" smooth="yes"/>
    </contour>
  </outline>
</glyph>
<glyph name="exclamdown" format="1">
  <advance width="1228"/>
  <unicode hex="00A1"/>
  <outline>
    <contour>
      <point x="601" y="460"/>
      <point x="578" y="443"/>
      <point x="570" y="412" type="curve" smooth="yes"/>
      <point x="407" y="-235" type="line" smooth="yes"/>
      <point x="398" y="-270"/>
      <point x="409" y="-285"/>
      <point x="439" y="-285" type="curve" smooth="yes"/>
      <point x="569" y="-285" type="line" smooth="yes"/>
      <point x="599" y="-285"/>
      <point x="616" y="-270"/>
      <point x="619" y="-235" type="curve" smooth="yes"/>
      <point x="685" y="412" type="line" smooth="yes"/>
      <point x="688" y="443"/>
      <point x="670" y="460"/>
      <point x="636" y="460" type="curve" smooth="yes"/>
    </contour>
    <contour>
      <point x="605" y="946"/>
      <point x="519" y="867"/>
      <point x="519" y="771" type="curve" smooth="yes"/>
      <point x="519" y="697"/>
      <point x="573" y="638"/>
      <point x="651" y="638" type="curve" smooth="yes"/>
      <point x="742" y="638"/>
      <point x="829" y="717"/>
      <point x="829" y="814" type="curve" smooth="yes"/>
      <point x="829" y="887"/>
      <point x="775" y="946"/>
      <point x="697" y="946" type="curve" smooth="yes"/>
    </contour>
  </outline>
</glyph>
<glyph name="sterling" format="1">
  <advance width="1228"/>
  <unicode hex="00A3"/>
  <outline>
    <contour>
      <point x="498" y="1209"/>
      <point x="360" y="1011"/>
      <point x="360" y="839" type="curve" smooth="yes"/>
      <point x="360" y="758"/>
      <point x="390" y="690"/>
      <point x="412" y="620" type="curve"/>
      <point x="312" y="620" type="line" smooth="yes"/>
      <point x="267" y="620"/>
      <point x="246" y="602"/>
      <point x="237" y="552" type="curve" smooth="yes"/>
      <point x="228" y="502"/>
      <point x="243" y="484"/>
      <point x="288" y="484" type="curve" smooth="yes"/>
      <point x="432" y="484" type="line"/>
      <point x="424" y="334"/>
      <point x="322" y="218"/>
      <point x="161" y="92" type="curve" smooth="yes"/>
      <point x="136" y="72"/>
      <point x="142" y="31"/>
      <point x="163" y="1" type="curve" smooth="yes"/>
      <point x="182" y="-26"/>
      <point x="212" y="-45"/>
      <point x="241" y="-34" type="curve" smooth="yes"/>
      <point x="336" y="3"/>
      <point x="410" y="15"/>
      <point x="471" y="15" type="curve" smooth="yes"/>
      <point x="581" y="15"/>
      <point x="652" y="-22"/>
      <point x="739" y="-22" type="curve" smooth="yes"/>
      <point x="799" y="-22"/>
      <point x="866" y="-5"/>
      <point x="959" y="56" type="curve" smooth="yes"/>
      <point x="993" y="79"/>
      <point x="991" y="118"/>
      <point x="974" y="148" type="curve" smooth="yes"/>
      <point x="957" y="177"/>
      <point x="927" y="196"/>
      <point x="901" y="179" type="curve" smooth="yes"/>
      <point x="835" y="136"/>
      <point x="785" y="123"/>
      <point x="740" y="123" type="curve" smooth="yes"/>
      <point x="667" y="123"/>
      <point x="608" y="158"/>
      <point x="518" y="158" type="curve" smooth="yes"/>
      <point x="481" y="158"/>
      <point x="439" y="152"/>
      <point x="389" y="135" type="curve"/>
      <point x="499" y="231"/>
      <point x="574" y="348"/>
      <point x="583" y="484" type="curve"/>
      <point x="860" y="484" type="line" smooth="yes"/>
      <point x="905" y="484"/>
      <point x="926" y="502"/>
      <point x="935" y="552" type="curve" smooth="yes"/>
      <point x="944" y="602"/>
      <point x="929" y="620"/>
      <point x="884" y="620" type="curve" smooth="yes"/>
      <point x="569" y="620" type="line"/>
      <point x="548" y="700"/>
      <point x="512" y="764"/>
      <point x="513" y="837" type="curve"/>
      <point x="513" y="937"/>
      <point x="590" y="1061"/>
      <point x="734" y="1061" type="curve" smooth="yes"/>
      <point x="814" y="1061"/>
      <point x="877" y="1043"/>
      <point x="920" y="1014" type="curve"/>
      <point x="904" y="924" type="line" smooth="yes"/>
      <point x="896" y="878"/>
      <point x="912" y="859"/>
      <point x="968" y="859" type="curve" smooth="yes"/>
      <point x="1024" y="859"/>
      <point x="1046" y="878"/>
      <point x="1054" y="924" type="curve" smooth="yes"/>
      <point x="1077" y="1051" type="line"/>
      <point x="1081" y="1077"/>
      <point x="1078" y="1094"/>
      <point x="1065" y="1105" type="curve" smooth="yes"/>
      <point x="989" y="1168"/>
      <point x="875" y="1209"/>
      <point x="751" y="1209" type="curve" smooth="yes"/>
    </contour>
  </outline>
</glyph>
<glyph name="yen" format="1">
  <advance width="1228"/>
  <unicode hex="00A5"/>
  <outline>
    <contour>
      <point x="252" y="510" type="line" smooth="yes"/>
      <point x="207" y="510"/>
      <point x="186" y="492"/>
      <point x="177" y="442" type="curve" smooth="yes"/>
      <point x="169" y="392"/>
      <point x="183" y="374"/>
      <point x="228" y="374" type="curve" smooth="yes"/>
      <point x="534" y="374" type="line"/>
      <point x="492" y="136" type="line"/>
      <point x="276" y="136" type="line" smooth="yes"/>
      <point x="231" y="136"/>
      <point x="210" y="118"/>
      <point x="201" y="68" type="curve" smooth="yes"/>
      <point x="193" y="18"/>
      <point x="208" y="0"/>
      <point x="253" y="0" type="curve" smooth="yes"/>
      <point x="855" y="0" type="line" smooth="yes"/>
      <point x="900" y="0"/>
      <point x="921" y="18"/>
      <point x="929" y="68" type="curve" smooth="yes"/>
      <point x="938" y="118"/>
      <point x="923" y="136"/>
      <point x="878" y="136" type="curve" smooth="yes"/>
      <point x="642" y="136" type="line"/>
      <point x="684" y="374" type="line"/>
      <point x="990" y="374" type="line" smooth="yes"/>
      <point x="1035" y="374"/>
      <point x="1057" y="392"/>
      <point x="1065" y="442" type="curve" smooth="yes"/>
      <point x="1074" y="492"/>
      <point x="1059" y="510"/>
      <point x="1014" y="510" type="curve" smooth="yes"/>
      <point x="723" y="510" type="line"/>
      <point x="862" y="684" type="line"/>
      <point x="1065" y="684" type="line" smooth="yes"/>
      <point x="1110" y="684"/>
      <point x="1131" y="702"/>
      <point x="1140" y="752" type="curve" smooth="yes"/>
      <point x="1149" y="802"/>
      <point x="1134" y="820"/>
      <point x="1089" y="820" type="curve" smooth="yes"/>
      <point x="971" y="820" type="line"/>
      <point x="1156" y="1051" type="line"/>
      <point x="1220" y="1051" type="line" smooth="yes"/>
      <point x="1265" y="1051"/>
      <point x="1286" y="1069"/>
      <point x="1295" y="1119" type="curve" smooth="yes"/>
      <point x="1304" y="1169"/>
      <point x="1289" y="1187"/>
      <point x="1244" y="1187" type="curve" smooth="yes"/>
      <point x="940" y="1187" type="line" smooth="yes"/>
      <point x="895" y="1187"/>
      <point x="874" y="1169"/>
      <point x="865" y="1119" type="curve" smooth="yes"/>
      <point x="856" y="1069"/>
      <point x="871" y="1051"/>
      <point x="916" y="1051" type="curve" smooth="yes"/>
      <point x="977" y="1051" type="line"/>
      <point x="653" y="642" type="line"/>
      <point x="475" y="1051" type="line"/>
      <point x="572" y="1051" type="line" smooth="yes"/>
      <point x="617" y="1051"/>
      <point x="638" y="1069"/>
      <point x="647" y="1119" type="curve" smooth="yes"/>
      <point x="656" y="1169"/>
      <point x="641" y="1187"/>
      <point x="596" y="1187" type="curve" smooth="yes"/>
      <point x="262" y="1187" type="line" smooth="yes"/>
      <point x="217" y="1187"/>
      <point x="196" y="1169"/>
      <point x="187" y="1119" type="curve" smooth="yes"/>
      <point x="178" y="1069"/>
      <point x="193" y="1051"/>
      <point x="238" y="1051" type="curve" smooth="yes"/>
      <point x="312" y="1051" type="line"/>
      <point x="414" y="820" type="line"/>
      <point x="287" y="820" type="line" smooth="yes"/>
      <point x="242" y="820"/>
      <point x="221" y="802"/>
      <point x="212" y="752" type="curve" smooth="yes"/>
      <point x="203" y="702"/>
      <point x="218" y="684"/>
      <point x="263" y="684" type="curve" smooth="yes"/>
      <point x="474" y="684" type="line"/>
      <point x="551" y="510" type="line"/>
    </contour>
  </outline>
</glyph>
<glyph name="brokenbar" format="1">
  <advance width="1228"/>
  <unicode hex="00A6"/>
  <outline>
    <contour>
      <point x="408" y="-345" type="line" smooth="yes"/>
      <point x="400" y="-391"/>
      <point x="415" y="-410"/>
      <point x="471" y="-410" type="curve" smooth="yes"/>
      <point x="527" y="-410"/>
      <point x="550" y="-391"/>
      <point x="558" y="-345" type="curve" smooth="yes"/>
      <point x="667" y="274" type="line" smooth="yes"/>
      <point x="675" y="320"/>
      <point x="659" y="339"/>
      <point x="603" y="339" type="curve" smooth="yes"/>
      <point x="547" y="339"/>
      <point x="525" y="320"/>
      <point x="517" y="274" type="curve" smooth="yes"/>
    </contour>
    <contour>
      <point x="583" y="650" type="line" smooth="yes"/>
      <point x="575" y="604"/>
      <point x="591" y="585"/>
      <point x="647" y="585" type="curve" smooth="yes"/>
      <point x="703" y="585"/>
      <point x="725" y="604"/>
      <point x="733" y="650" type="curve" smooth="yes"/>
      <point x="842" y="1269" type="line" smooth="yes"/>
      <point x="850" y="1315"/>
      <point x="835" y="1334"/>
      <point x="779" y="1334" type="curve" smooth="yes"/>
      <point x="723" y="1334"/>
      <point x="700" y="1315"/>
      <point x="692" y="1269" type="curve" smooth="yes"/>
    </contour>
  </outline>
</glyph>
<glyph name="section" format="1">
  <advance width="1228"/>
  <unicode hex="00A7"/>
  <outline>
    <contour>
      <point x="708" y="1187" type="line" smooth="yes"/>
      <point x="524" y="1187"/>
      <point x="423" y="1097"/>
      <point x="399" y="957" type="curve" smooth="yes"/>
      <point x="392" y="918"/>
      <point x="393" y="881"/>
      <point x="400" y="847" type="curve"/>
      <point x="298" y="784"/>
      <point x="237" y="729"/>
      <point x="221" y="639" type="curve" smooth="yes"/>
      <point x="201" y="523"/>
      <point x="259" y="437"/>
      <point x="351" y="373" type="curve" smooth="yes"/>
      <point x="613" y="191" type="line" smooth="yes"/>
      <point x="687" y="140"/>
      <point x="718" y="85"/>
      <point x="706" y="14" type="curve" smooth="yes"/>
      <point x="694" y="-56"/>
      <point x="641" y="-94"/>
      <point x="546" y="-94" type="curve" smooth="yes"/>
      <point x="303" y="-94" type="line"/>
      <point x="329" y="55" type="line" smooth="yes"/>
      <point x="337" y="101"/>
      <point x="322" y="120"/>
      <point x="266" y="120" type="curve" smooth="yes"/>
      <point x="210" y="120"/>
      <point x="187" y="101"/>
      <point x="179" y="55" type="curve" smooth="yes"/>
      <point x="141" y="-162" type="line" smooth="yes"/>
      <point x="132" y="-212"/>
      <point x="147" y="-230"/>
      <point x="192" y="-230" type="curve" smooth="yes"/>
      <point x="548" y="-230" type="line" smooth="yes"/>
      <point x="732" y="-230"/>
      <point x="833" y="-140"/>
      <point x="857" y="0" type="curve" smooth="yes"/>
      <point x="864" y="39"/>
      <point x="863" y="75"/>
      <point x="856" y="109" type="curve"/>
      <point x="958" y="172"/>
      <point x="1018" y="227"/>
      <point x="1035" y="318" type="curve"/>
      <point x="1055" y="434"/>
      <point x="997" y="520"/>
      <point x="905" y="584" type="curve" smooth="yes"/>
      <point x="643" y="766" type="line" smooth="yes"/>
      <point x="569" y="817"/>
      <point x="538" y="872"/>
      <point x="550" y="943" type="curve" smooth="yes"/>
      <point x="562" y="1013"/>
      <point x="615" y="1051"/>
      <point x="710" y="1051" type="curve" smooth="yes"/>
      <point x="953" y="1051" type="line"/>
      <point x="931" y="922" type="line" smooth="yes"/>
      <point x="923" y="876"/>
      <point x="938" y="857"/>
      <point x="994" y="857" type="curve" smooth="yes"/>
      <point x="1050" y="857"/>
      <point x="1073" y="876"/>
      <point x="1081" y="922" type="curve" smooth="yes"/>
      <point x="1115" y="1119" type="line" smooth="yes"/>
      <point x="1124" y="1169"/>
      <point x="1109" y="1187"/>
      <point x="1064" y="1187" type="curve" smooth="yes"/>
    </contour>
    <contour>
      <point x="482" y="697"/>
      <point x="514" y="669"/>
      <point x="550" y="644" type="curve" smooth="yes"/>
      <point x="812" y="462" type="line" smooth="yes"/>
      <point x="869" y="422"/>
      <point x="893" y="388"/>
      <point x="883" y="332" type="curve" smooth="yes"/>
      <point x="876" y="290"/>
      <point x="847" y="258"/>
      <point x="798" y="228" type="curve"/>
      <point x="773" y="260"/>
      <point x="742" y="288"/>
      <point x="706" y="313" type="curve"/>
      <point x="444" y="495" type="line" smooth="yes"/>
      <point x="387" y="535"/>
      <point x="363" y="569"/>
      <point x="373" y="625" type="curve" smooth="yes"/>
      <point x="380" y="667"/>
      <point x="409" y="699"/>
      <point x="457" y="729" type="curve"/>
    </contour>
  </outline>
</glyph>
<glyph name="dieresis" format="1">
  <advance width="1228"/>
  <unicode hex="00A8"/>
  <outline>
    <contour>
      <point x="590" y="1070"/>
      <point x="660" y="1133"/>
      <point x="660" y="1213" type="curve" smooth="yes"/>
      <point x="660" y="1272"/>
      <point x="616" y="1320"/>
      <point x="553" y="1320" type="curve" smooth="yes"/>
      <point x="479" y="1320"/>
      <point x="408" y="1255"/>
      <point x="408" y="1178" type="curve" smooth="yes"/>
      <point x="408" y="1118"/>
      <point x="452" y="1070"/>
      <point x="516" y="1070" type="curve" smooth="yes"/>
    </contour>
    <contour>
      <point x="1030" y="1070"/>
      <point x="1100" y="1133"/>
      <point x="1100" y="1213" type="curve" smooth="yes"/>
      <point x="1100" y="1272"/>
      <point x="1056" y="1320"/>
      <point x="993" y="1320" type="curve" smooth="yes"/>
      <point x="919" y="1320"/>
      <point x="848" y="1255"/>
      <point x="848" y="1178" type="curve" smooth="yes"/>
      <point x="848" y="1118"/>
      <point x="892" y="1070"/>
      <point x="956" y="1070" type="curve" smooth="yes"/>
    </contour>
  </outline>
</glyph>
<glyph name="ordfeminine" format="1">
  <advance width="1228"/>
  <unicode hex="00AA"/>
  <outline>
    <contour>
      <point x="423" y="1209"/>
      <point x="289" y="962"/>
      <point x="289" y="763" type="curve" smooth="yes"/>
      <point x="289" y="580"/>
      <point x="413" y="465"/>
      <point x="579" y="465" type="curve" smooth="yes"/>
      <point x="677" y="465"/>
      <point x="766" y="498"/>
      <point x="844" y="582" type="curve"/>
      <point x="853" y="517"/>
      <point x="889" y="483"/>
      <point x="952" y="483" type="curve" smooth="yes"/>
      <point x="1001" y="483" type="line" smooth="yes"/>
      <point x="1036" y="483"/>
      <point x="1053" y="499"/>
      <point x="1060" y="541" type="curve" smooth="yes"/>
      <point x="1068" y="584"/>
      <point x="1057" y="602"/>
      <point x="1022" y="602" type="curve" smooth="yes"/>
      <point x="1005" y="602" type="line" smooth="yes"/>
      <point x="972" y="602"/>
      <point x="957" y="616"/>
      <point x="964" y="657" type="curve" smooth="yes"/>
      <point x="1051" y="1150" type="line" smooth="yes"/>
      <point x="1057" y="1185"/>
      <point x="1048" y="1200"/>
      <point x="995" y="1200" type="curve" smooth="yes"/>
      <point x="942" y="1200"/>
      <point x="930" y="1185"/>
      <point x="923" y="1150" type="curve" smooth="yes"/>
      <point x="910" y="1083" type="line"/>
      <point x="873" y="1158"/>
      <point x="801" y="1209"/>
      <point x="694" y="1209" type="curve" smooth="yes"/>
    </contour>
    <contour>
      <point x="800" y="1077"/>
      <point x="867" y="1020"/>
      <point x="867" y="898" type="curve" smooth="yes"/>
      <point x="867" y="739"/>
      <point x="781" y="597"/>
      <point x="599" y="597" type="curve" smooth="yes"/>
      <point x="496" y="597"/>
      <point x="432" y="660"/>
      <point x="432" y="770" type="curve" smooth="yes"/>
      <point x="432" y="929"/>
      <point x="532" y="1077"/>
      <point x="685" y="1077" type="curve" smooth="yes"/>
    </contour>
  </outline>
</glyph>
<glyph name="guillemetleft" format="1">
  <advance width="1228"/>
  <unicode hex="00AB"/>
  <outline>
    <contour>
      <point x="583" y="950"/>
      <point x="552" y="954"/>
      <point x="530" y="934" type="curve" smooth="yes"/>
      <point x="184" y="620" type="line" smooth="yes"/>
      <point x="170" y="608"/>
      <point x="169" y="586"/>
      <point x="179" y="572" type="curve" smooth="yes"/>
      <point x="448" y="201" type="line" smooth="yes"/>
      <point x="465" y="177"/>
      <point x="497" y="174"/>
      <point x="541" y="204" type="curve" smooth="yes"/>
      <point x="582" y="233"/>
      <point x="585" y="260"/>
      <point x="567" y="285" type="curve" smooth="yes"/>
      <point x="349" y="578" type="line"/>
      <point x="628" y="827" type="line" smooth="yes"/>
      <point x="652" y="849"/>
      <point x="654" y="875"/>
      <point x="620" y="911" type="curve" smooth="yes"/>
    </contour>
    <contour>
      <point x="1083" y="950"/>
      <point x="1051" y="954"/>
      <point x="1030" y="934" type="curve" smooth="yes"/>
      <point x="664" y="600" type="line" smooth="yes"/>
      <point x="650" y="588"/>
      <point x="649" y="566"/>
      <point x="659" y="552" type="curve" smooth="yes"/>
      <point x="908" y="201" type="line" smooth="yes"/>
      <point x="925" y="177"/>
      <point x="957" y="174"/>
      <point x="1001" y="204" type="curve" smooth="yes"/>
      <point x="1042" y="233"/>
      <point x="1045" y="260"/>
      <point x="1027" y="285" type="curve" smooth="yes"/>
      <point x="829" y="558" type="line"/>
      <point x="1128" y="827" type="line" smooth="yes"/>
      <point x="1152" y="849"/>
      <point x="1154" y="875"/>
      <point x="1120" y="911" type="curve" smooth="yes"/>
    </contour>
  </outline>
</glyph>
<glyph name="guillemotleft" format="1">
  <advance width="1228"/>
  <unicode hex="00AB"/>
  <outline>
    <contour>
      <point x="659" y="845" type="line" smooth="yes"/>
      <point x="684" y="878"/>
      <point x="667" y="911"/>
      <point x="638" y="930" type="curve" smooth="yes"/>
      <point x="608" y="949"/>
      <point x="566" y="954"/>
      <point x="543" y="925" type="curve" smooth="yes"/>
      <point x="288" y="599" type="line" smooth="yes"/>
      <point x="276" y="584"/>
      <point x="273" y="566"/>
      <point x="279" y="551" type="curve" smooth="yes"/>
      <point x="420" y="225" type="line" smooth="yes"/>
      <point x="433" y="196"/>
      <point x="475" y="192"/>
      <point x="510" y="204" type="curve" smooth="yes"/>
      <point x="545" y="216"/>
      <point x="572" y="242"/>
      <point x="558" y="275" type="curve" smooth="yes"/>
      <point x="434" y="560" type="line"/>
    </contour>
    <contour>
      <point x="1059" y="845" type="line" smooth="yes"/>
      <point x="1084" y="878"/>
      <point x="1067" y="911"/>
      <point x="1038" y="930" type="curve" smooth="yes"/>
      <point x="1008" y="949"/>
      <point x="966" y="954"/>
      <point x="943" y="925" type="curve" smooth="yes"/>
      <point x="688" y="599" type="line" smooth="yes"/>
      <point x="676" y="584"/>
      <point x="673" y="566"/>
      <point x="679" y="551" type="curve" smooth="yes"/>
      <point x="820" y="225" type="line" smooth="yes"/>
      <point x="833" y="196"/>
      <point x="875" y="192"/>
      <point x="910" y="204" type="curve" smooth="yes"/>
      <point x="945" y="216"/>
      <point x="972" y="242"/>
      <point x="958" y="275" type="curve" smooth="yes"/>
      <point x="834" y="560" type="line"/>
    </contour>
  </outline>
</glyph>
<glyph name="logicalnot" format="1">
  <advance width="1228"/>
  <unicode hex="00AC"/>
  <outline>
    <contour>
      <point x="983" y="709" type="line"/>
      <point x="925" y="383" type="line" smooth="yes"/>
      <point x="917" y="337"/>
      <point x="933" y="318"/>
      <point x="989" y="318" type="curve" smooth="yes"/>
      <point x="1045" y="318"/>
      <point x="1067" y="337"/>
      <point x="1075" y="383" type="curve" smooth="yes"/>
      <point x="1145" y="777" type="line" smooth="yes"/>
      <point x="1153" y="827"/>
      <point x="1138" y="845"/>
      <point x="1093" y="845" type="curve" smooth="yes"/>
      <point x="281" y="845" type="line" smooth="yes"/>
      <point x="236" y="845"/>
      <point x="215" y="827"/>
      <point x="207" y="777" type="curve" smooth="yes"/>
      <point x="198" y="727"/>
      <point x="213" y="709"/>
      <point x="258" y="709" type="curve" smooth="yes"/>
    </contour>
  </outline>
</glyph>
<glyph name="registered" format="1">
  <advance width="1228"/>
  <unicode hex="00AE"/>
  <outline>
    <contour>
      <point x="926" y="-22"/>
      <point x="1235" y="306"/>
      <point x="1235" y="705" type="curve" smooth="yes"/>
      <point x="1235" y="991"/>
      <point x="1043" y="1209"/>
      <point x="744" y="1209" type="curve" smooth="yes"/>
      <point x="373" y="1209"/>
      <point x="61" y="883"/>
      <point x="61" y="484" type="curve" smooth="yes"/>
      <point x="61" y="197"/>
      <point x="254" y="-22"/>
      <point x="553" y="-22" type="curve" smooth="yes"/>
    </contour>
    <contour>
      <point x="325" y="98"/>
      <point x="182" y="257"/>
      <point x="182" y="487" type="curve" smooth="yes"/>
      <point x="182" y="826"/>
      <point x="438" y="1089"/>
      <point x="736" y="1089" type="curve" smooth="yes"/>
      <point x="971" y="1089"/>
      <point x="1114" y="931"/>
      <point x="1114" y="702" type="curve" smooth="yes"/>
      <point x="1114" y="363"/>
      <point x="861" y="98"/>
      <point x="561" y="98" type="curve" smooth="yes"/>
    </contour>
    <contour>
      <point x="374" y="335" type="line"/>
      <point x="365" y="289"/>
      <point x="377" y="270"/>
      <point x="423" y="270" type="curve" smooth="yes"/>
      <point x="469" y="270"/>
      <point x="490" y="289"/>
      <point x="498" y="335" type="curve" smooth="yes"/>
      <point x="521" y="470" type="line"/>
      <point x="622" y="470" type="line"/>
      <point x="746" y="291" type="line" smooth="yes"/>
      <point x="765" y="264"/>
      <point x="784" y="257"/>
      <point x="825" y="285" type="curve" smooth="yes"/>
      <point x="866" y="313"/>
      <point x="866" y="336"/>
      <point x="842" y="369" type="curve" smooth="yes"/>
      <point x="751" y="491" type="line"/>
      <point x="867" y="528"/>
      <point x="933" y="615"/>
      <point x="933" y="726" type="curve" smooth="yes"/>
      <point x="933" y="836"/>
      <point x="850" y="917"/>
      <point x="718" y="917" type="curve" smooth="yes"/>
      <point x="541" y="917" type="line" smooth="yes"/>
      <point x="496" y="917"/>
      <point x="473" y="899"/>
      <point x="465" y="854" type="curve" smooth="yes"/>
    </contour>
    <contour>
      <point x="695" y="800" type="line" smooth="yes"/>
      <point x="768" y="800"/>
      <point x="803" y="769"/>
      <point x="803" y="718" type="curve" smooth="yes"/>
      <point x="803" y="648"/>
      <point x="755" y="587"/>
      <point x="648" y="587" type="curve" smooth="yes"/>
      <point x="542" y="587" type="line"/>
      <point x="580" y="800" type="line"/>
    </contour>
  </outline>
</glyph>
<glyph name="degree" format="1">
  <advance width="1228"/>
  <unicode hex="00B0"/>
  <outline>
    <contour>
      <point x="768" y="649"/>
      <point x="901" y="809"/>
      <point x="901" y="967" type="curve" smooth="yes"/>
      <point x="901" y="1101"/>
      <point x="798" y="1209"/>
      <point x="659" y="1209" type="curve" smooth="yes"/>
      <point x="470" y="1209"/>
      <point x="337" y="1045"/>
      <point x="337" y="892" type="curve" smooth="yes"/>
      <point x="337" y="758"/>
      <point x="441" y="649"/>
      <point x="580" y="649" type="curve" smooth="yes"/>
    </contour>
    <contour>
      <point x="522" y="784"/>
      <point x="472" y="836"/>
      <point x="472" y="904" type="curve" smooth="yes"/>
      <point x="472" y="995"/>
      <point x="557" y="1074"/>
      <point x="645" y="1074" type="curve" smooth="yes"/>
      <point x="716" y="1074"/>
      <point x="766" y="1022"/>
      <point x="766" y="954" type="curve" smooth="yes"/>
      <point x="766" y="863"/>
      <point x="682" y="784"/>
      <point x="594" y="784" type="curve" smooth="yes"/>
    </contour>
  </outline>
</glyph>
<glyph name="plusminus" format="1">
  <advance width="1228"/>
  <unicode hex="00B1"/>
  <outline>
    <contour>
      <point x="594" y="674" type="line"/>
      <point x="550" y="421" type="line" smooth="yes"/>
      <point x="542" y="376"/>
      <point x="557" y="358"/>
      <point x="607" y="358" type="curve" smooth="yes"/>
      <point x="657" y="358"/>
      <point x="678" y="376"/>
      <point x="686" y="421" type="curve" smooth="yes"/>
      <point x="730" y="674" type="line"/>
      <point x="1043" y="674" type="line" smooth="yes"/>
      <point x="1088" y="674"/>
      <point x="1110" y="692"/>
      <point x="1118" y="742" type="curve" smooth="yes"/>
      <point x="1127" y="792"/>
      <point x="1112" y="810"/>
      <point x="1067" y="810" type="curve" smooth="yes"/>
      <point x="754" y="810" type="line"/>
      <point x="799" y="1063" type="line" smooth="yes"/>
      <point x="807" y="1108"/>
      <point x="792" y="1126"/>
      <point x="742" y="1126" type="curve" smooth="yes"/>
      <point x="692" y="1126"/>
      <point x="671" y="1108"/>
      <point x="663" y="1063" type="curve" smooth="yes"/>
      <point x="618" y="810" type="line"/>
      <point x="305" y="810" type="line" smooth="yes"/>
      <point x="260" y="810"/>
      <point x="239" y="792"/>
      <point x="230" y="742" type="curve" smooth="yes"/>
      <point x="222" y="692"/>
      <point x="236" y="674"/>
      <point x="281" y="674" type="curve" smooth="yes"/>
    </contour>
    <contour>
      <point x="207" y="250" type="line" smooth="yes"/>
      <point x="162" y="250"/>
      <point x="140" y="232"/>
      <point x="132" y="182" type="curve" smooth="yes"/>
      <point x="123" y="132"/>
      <point x="138" y="114"/>
      <point x="183" y="114" type="curve" smooth="yes"/>
      <point x="945" y="114" type="line" smooth="yes"/>
      <point x="990" y="114"/>
      <point x="1011" y="132"/>
      <point x="1020" y="182" type="curve" smooth="yes"/>
      <point x="1028" y="232"/>
      <point x="1014" y="250"/>
      <point x="969" y="250" type="curve" smooth="yes"/>
    </contour>
  </outline>
</glyph>
<glyph name="threesuperior" format="1">
  <advance width="1228"/>
  <unicode hex="00B3"/>
  <outline>
    <contour>
      <point x="471" y="1257"/>
      <point x="460" y="1242"/>
      <point x="457" y="1223" type="curve" smooth="yes"/>
      <point x="437" y="1113" type="line" smooth="yes"/>
      <point x="431" y="1080"/>
      <point x="446" y="1062"/>
      <point x="495" y="1062" type="curve" smooth="yes"/>
      <point x="545" y="1062"/>
      <point x="566" y="1080"/>
      <point x="572" y="1113" type="curve" smooth="yes"/>
      <point x="583" y="1176" type="line"/>
      <point x="629" y="1194"/>
      <point x="679" y="1205"/>
      <point x="735" y="1205" type="curve" smooth="yes"/>
      <point x="827" y="1205"/>
      <point x="883" y="1171"/>
      <point x="883" y="1104" type="curve" smooth="yes"/>
      <point x="883" y="1007"/>
      <point x="812" y="965"/>
      <point x="689" y="965" type="curve" smooth="yes"/>
      <point x="650" y="965" type="line" smooth="yes"/>
      <point x="608" y="965"/>
      <point x="593" y="922"/>
      <point x="593" y="884" type="curve" smooth="yes"/>
      <point x="593" y="858"/>
      <point x="603" y="840"/>
      <point x="628" y="840" type="curve" smooth="yes"/>
      <point x="680" y="840" type="line" smooth="yes"/>
      <point x="779" y="840"/>
      <point x="845" y="817"/>
      <point x="845" y="741" type="curve" smooth="yes"/>
      <point x="845" y="647"/>
      <point x="765" y="594"/>
      <point x="633" y="594" type="curve" smooth="yes"/>
      <point x="558" y="594"/>
      <point x="482" y="617"/>
      <point x="423" y="650" type="curve" smooth="yes"/>
      <point x="417" y="653"/>
      <point x="410" y="655"/>
      <point x="404" y="655" type="curve" smooth="yes"/>
      <point x="366" y="655"/>
      <point x="332" y="591"/>
      <point x="332" y="561" type="curve" smooth="yes"/>
      <point x="332" y="548"/>
      <point x="336" y="537"/>
      <point x="347" y="530" type="curve" smooth="yes"/>
      <point x="421" y="485"/>
      <point x="523" y="465"/>
      <point x="617" y="465" type="curve" smooth="yes"/>
      <point x="862" y="465"/>
      <point x="987" y="588"/>
      <point x="987" y="755" type="curve" smooth="yes"/>
      <point x="987" y="835"/>
      <point x="946" y="890"/>
      <point x="878" y="915" type="curve"/>
      <point x="971" y="960"/>
      <point x="1026" y="1030"/>
      <point x="1026" y="1131" type="curve" smooth="yes"/>
      <point x="1026" y="1251"/>
      <point x="934" y="1334"/>
      <point x="769" y="1334" type="curve" smooth="yes"/>
      <point x="679" y="1334"/>
      <point x="572" y="1312"/>
      <point x="485" y="1265" type="curve" smooth="yes"/>
    </contour>
  </outline>
</glyph>
<glyph name="paragraph" format="1">
  <advance width="1228"/>
  <unicode hex="00B6"/>
  <outline>
    <contour>
      <point x="677" y="1187" type="line" smooth="yes"/>
      <point x="360" y="1187"/>
      <point x="205" y="997"/>
      <point x="205" y="789" type="curve" smooth="yes"/>
      <point x="205" y="617"/>
      <point x="337" y="508"/>
      <point x="544" y="502" type="curve"/>
      <point x="394" y="-350" type="line" smooth="yes"/>
      <point x="386" y="-396"/>
      <point x="401" y="-415"/>
      <point x="457" y="-415" type="curve" smooth="yes"/>
      <point x="513" y="-415"/>
      <point x="536" y="-396"/>
      <point x="544" y="-350" type="curve" smooth="yes"/>
      <point x="791" y="1051" type="line"/>
      <point x="951" y="1051" type="line"/>
      <point x="704" y="-350" type="line" smooth="yes"/>
      <point x="696" y="-396"/>
      <point x="711" y="-415"/>
      <point x="767" y="-415" type="curve" smooth="yes"/>
      <point x="823" y="-415"/>
      <point x="846" y="-396"/>
      <point x="854" y="-350" type="curve" smooth="yes"/>
      <point x="1101" y="1051" type="line"/>
      <point x="1169" y="1051" type="line" smooth="yes"/>
      <point x="1214" y="1051"/>
      <point x="1235" y="1069"/>
      <point x="1244" y="1119" type="curve" smooth="yes"/>
      <point x="1253" y="1169"/>
      <point x="1238" y="1187"/>
      <point x="1193" y="1187" type="curve" smooth="yes"/>
    </contour>
  </outline>
</glyph>
<glyph name="periodcentered" format="1">
  <advance width="1228"/>
  <unicode hex="00B7"/>
  <outline>
    <contour>
      <point x="723" y="413"/>
      <point x="817" y="500"/>
      <point x="817" y="607" type="curve" smooth="yes"/>
      <point x="817" y="686"/>
      <point x="757" y="751"/>
      <point x="672" y="751" type="curve" smooth="yes"/>
      <point x="572" y="751"/>
      <point x="475" y="665"/>
      <point x="475" y="559" type="curve" smooth="yes"/>
      <point x="475" y="478"/>
      <point x="536" y="413"/>
      <point x="621" y="413" type="curve" smooth="yes"/>
    </contour>
  </outline>
</glyph>
<glyph name="onesuperior" format="1">
  <advance width="1228"/>
  <unicode hex="00B9"/>
  <outline>
    <contour>
      <point x="606" y="608" type="line"/>
      <point x="402" y="608" type="line" smooth="yes"/>
      <point x="361" y="608"/>
      <point x="339" y="582"/>
      <point x="339" y="528" type="curve" smooth="yes"/>
      <point x="339" y="497"/>
      <point x="354" y="483"/>
      <point x="380" y="483" type="curve" smooth="yes"/>
      <point x="913" y="483" type="line" smooth="yes"/>
      <point x="955" y="483"/>
      <point x="975" y="511"/>
      <point x="975" y="564" type="curve" smooth="yes"/>
      <point x="975" y="595"/>
      <point x="961" y="608"/>
      <point x="935" y="608" type="curve" smooth="yes"/>
      <point x="741" y="608" type="line"/>
      <point x="862" y="1292" type="line" smooth="yes"/>
      <point x="866" y="1318"/>
      <point x="853" y="1334"/>
      <point x="827" y="1334" type="curve" smooth="yes"/>
      <point x="820" y="1334"/>
      <point x="812" y="1333"/>
      <point x="802" y="1330" type="curve" smooth="yes"/>
      <point x="503" y="1239" type="line" smooth="yes"/>
      <point x="475" y="1231"/>
      <point x="459" y="1216"/>
      <point x="459" y="1184" type="curve" smooth="yes"/>
      <point x="459" y="1153"/>
      <point x="473" y="1117"/>
      <point x="497" y="1117" type="curve" smooth="yes"/>
      <point x="504" y="1117"/>
      <point x="513" y="1119"/>
      <point x="523" y="1122" type="curve" smooth="yes"/>
      <point x="707" y="1179" type="line"/>
    </contour>
  </outline>
</glyph>
<glyph name="ordmasculine" format="1">
  <advance width="1228"/>
  <unicode hex="00BA"/>
  <outline>
    <contour>
      <point x="473" y="1209"/>
      <point x="308" y="989"/>
      <point x="308" y="778" type="curve" smooth="yes"/>
      <point x="308" y="596"/>
      <point x="442" y="465"/>
      <point x="635" y="465" type="curve" smooth="yes"/>
      <point x="911" y="465"/>
      <point x="1074" y="688"/>
      <point x="1074" y="895" type="curve" smooth="yes"/>
      <point x="1074" y="1077"/>
      <point x="939" y="1209"/>
      <point x="747" y="1209" type="curve" smooth="yes"/>
    </contour>
    <contour>
      <point x="859" y="1077"/>
      <point x="934" y="1000"/>
      <point x="934" y="887" type="curve" smooth="yes"/>
      <point x="934" y="722"/>
      <point x="807" y="597"/>
      <point x="649" y="597" type="curve" smooth="yes"/>
      <point x="523" y="597"/>
      <point x="447" y="674"/>
      <point x="447" y="787" type="curve" smooth="yes"/>
      <point x="447" y="924"/>
      <point x="552" y="1077"/>
      <point x="733" y="1077" type="curve" smooth="yes"/>
    </contour>
  </outline>
</glyph>
<glyph name="guillemetright" format="1">
  <advance width="1228"/>
  <unicode hex="00BB"/>
  <outline>
    <contour>
      <point x="244" y="895"/>
      <point x="241" y="868"/>
      <point x="259" y="843" type="curve" smooth="yes"/>
      <point x="457" y="570" type="line"/>
      <point x="158" y="301" type="line" smooth="yes"/>
      <point x="134" y="279"/>
      <point x="132" y="253"/>
      <point x="166" y="217" type="curve" smooth="yes"/>
      <point x="203" y="178"/>
      <point x="235" y="174"/>
      <point x="256" y="194" type="curve" smooth="yes"/>
      <point x="622" y="528" type="line" smooth="yes"/>
      <point x="636" y="540"/>
      <point x="637" y="562"/>
      <point x="627" y="576" type="curve" smooth="yes"/>
      <point x="378" y="927" type="line" smooth="yes"/>
      <point x="361" y="951"/>
      <point x="329" y="954"/>
      <point x="285" y="924" type="curve" smooth="yes"/>
    </contour>
    <contour>
      <point x="704" y="895"/>
      <point x="700" y="868"/>
      <point x="719" y="843" type="curve" smooth="yes"/>
      <point x="937" y="550" type="line"/>
      <point x="658" y="301" type="line" smooth="yes"/>
      <point x="634" y="279"/>
      <point x="632" y="253"/>
      <point x="666" y="217" type="curve" smooth="yes"/>
      <point x="703" y="178"/>
      <point x="734" y="174"/>
      <point x="756" y="194" type="curve" smooth="yes"/>
      <point x="1102" y="508" type="line" smooth="yes"/>
      <point x="1116" y="520"/>
      <point x="1117" y="542"/>
      <point x="1107" y="556" type="curve" smooth="yes"/>
      <point x="838" y="927" type="line" smooth="yes"/>
      <point x="821" y="951"/>
      <point x="789" y="954"/>
      <point x="745" y="924" type="curve" smooth="yes"/>
    </contour>
  </outline>
</glyph>
<glyph name="guillemotright" format="1">
  <advance width="1228"/>
  <unicode hex="00BB"/>
  <outline>
    <contour>
      <point x="231" y="305" type="line"/>
      <point x="206" y="272"/>
      <point x="223" y="239"/>
      <point x="252" y="220" type="curve" smooth="yes"/>
      <point x="282" y="201"/>
      <point x="324" y="196"/>
      <point x="347" y="225" type="curve" smooth="yes"/>
      <point x="602" y="551" type="line" smooth="yes"/>
      <point x="614" y="566"/>
      <point x="617" y="584"/>
      <point x="611" y="599" type="curve" smooth="yes"/>
      <point x="470" y="925" type="line" smooth="yes"/>
      <point x="457" y="954"/>
      <point x="415" y="958"/>
      <point x="380" y="946" type="curve" smooth="yes"/>
      <point x="345" y="934"/>
      <point x="318" y="908"/>
      <point x="332" y="875" type="curve" smooth="yes"/>
      <point x="456" y="590" type="line"/>
    </contour>
    <contour>
      <point x="631" y="305" type="line"/>
      <point x="606" y="272"/>
      <point x="623" y="239"/>
      <point x="652" y="220" type="curve" smooth="yes"/>
      <point x="682" y="201"/>
      <point x="724" y="196"/>
      <point x="747" y="225" type="curve" smooth="yes"/>
      <point x="1002" y="551" type="line" smooth="yes"/>
      <point x="1014" y="566"/>
      <point x="1017" y="584"/>
      <point x="1011" y="599" type="curve" smooth="yes"/>
      <point x="870" y="925" type="line" smooth="yes"/>
      <point x="857" y="954"/>
      <point x="815" y="958"/>
      <point x="780" y="946" type="curve" smooth="yes"/>
      <point x="745" y="934"/>
      <point x="718" y="908"/>
      <point x="732" y="875" type="curve" smooth="yes"/>
      <point x="856" y="590" type="line"/>
    </contour>
  </outline>
</glyph>
<glyph name="questiondown" format="1">
  <advance width="1228"/>
  <unicode hex="00BF"/>
  <outline>
    <contour>
      <point x="687" y="828"/>
      <point x="659" y="808"/>
      <point x="651" y="777" type="curve" smooth="yes"/>
      <point x="617" y="641" type="line"/>
      <point x="448" y="576"/>
      <point x="335" y="516"/>
      <point x="278" y="410" type="curve" smooth="yes"/>
      <point x="250" y="357"/>
      <point x="235" y="297"/>
      <point x="235" y="240" type="curve" smooth="yes"/>
      <point x="235" y="87"/>
      <point x="346" y="-22"/>
      <point x="545" y="-22" type="curve" smooth="yes"/>
      <point x="664" y="-22"/>
      <point x="778" y="6"/>
      <point x="889" y="64" type="curve" smooth="yes"/>
      <point x="909" y="75"/>
      <point x="919" y="92"/>
      <point x="924" y="120" type="curve" smooth="yes"/>
      <point x="948" y="252" type="line" smooth="yes"/>
      <point x="956" y="298"/>
      <point x="940" y="317"/>
      <point x="884" y="317" type="curve" smooth="yes"/>
      <point x="828" y="317"/>
      <point x="806" y="298"/>
      <point x="798" y="252" type="curve" smooth="yes"/>
      <point x="783" y="168" type="line"/>
      <point x="716" y="141"/>
      <point x="641" y="126"/>
      <point x="560" y="126" type="curve" smooth="yes"/>
      <point x="450" y="126"/>
      <point x="394" y="178"/>
      <point x="394" y="257" type="curve" smooth="yes"/>
      <point x="394" y="296"/>
      <point x="405" y="337"/>
      <point x="427" y="367" type="curve" smooth="yes"/>
      <point x="465" y="421"/>
      <point x="537" y="459"/>
      <point x="652" y="503" type="curve" smooth="yes"/>
      <point x="726" y="531" type="line" smooth="yes"/>
      <point x="750" y="540"/>
      <point x="762" y="556"/>
      <point x="765" y="582" type="curve" smooth="yes"/>
      <point x="789" y="777" type="line" smooth="yes"/>
      <point x="793" y="808"/>
      <point x="771" y="828"/>
      <point x="729" y="828" type="curve" smooth="yes"/>
    </contour>
    <contour>
      <point x="701" y="1209"/>
      <point x="622" y="1139"/>
      <point x="622" y="1053" type="curve" smooth="yes"/>
      <point x="622" y="986"/>
      <point x="671" y="933"/>
      <point x="741" y="933" type="curve" smooth="yes"/>
      <point x="822" y="933"/>
      <point x="901" y="1003"/>
      <point x="901" y="1090" type="curve" smooth="yes"/>
      <point x="901" y="1156"/>
      <point x="852" y="1209"/>
      <point x="782" y="1209" type="curve" smooth="yes"/>
    </contour>
  </outline>
</glyph>
<glyph name="AE" format="1">
  <advance width="1228"/>
  <unicode hex="00C6"/>
  <outline>
    <contour>
      <point x="433" y="1187" type="line" smooth="yes"/>
      <point x="388" y="1187"/>
      <point x="367" y="1169"/>
      <point x="358" y="1119" type="curve" smooth="yes"/>
      <point x="349" y="1069"/>
      <point x="364" y="1051"/>
      <point x="409" y="1051" type="curve" smooth="yes"/>
      <point x="503" y="1051" type="line"/>
      <point x="66" y="136" type="line"/>
      <point x="16" y="136" type="line" smooth="yes"/>
      <point x="-29" y="136"/>
      <point x="-50" y="118"/>
      <point x="-59" y="68" type="curve" smooth="yes"/>
      <point x="-67" y="18"/>
      <point x="-52" y="0"/>
      <point x="-7" y="0" type="curve" smooth="yes"/>
      <point x="287" y="0" type="line" smooth="yes"/>
      <point x="332" y="0"/>
      <point x="353" y="18"/>
      <point x="361" y="68" type="curve" smooth="yes"/>
      <point x="370" y="118"/>
      <point x="355" y="136"/>
      <point x="310" y="136" type="curve" smooth="yes"/>
      <point x="227" y="136" type="line"/>
      <point x="340" y="374" type="line"/>
      <point x="561" y="374" type="line"/>
      <point x="507" y="68" type="line"/>
      <point x="499" y="18"/>
      <point x="514" y="0"/>
      <point x="559" y="0" type="curve" smooth="yes"/>
      <point x="1005" y="0" type="line" smooth="yes"/>
      <point x="1050" y="0"/>
      <point x="1071" y="18"/>
      <point x="1079" y="68" type="curve"/>
      <point x="1132" y="365" type="line" smooth="yes"/>
      <point x="1140" y="411"/>
      <point x="1124" y="430"/>
      <point x="1068" y="430" type="curve" smooth="yes"/>
      <point x="1012" y="430"/>
      <point x="990" y="411"/>
      <point x="982" y="365" type="curve" smooth="yes"/>
      <point x="941" y="136" type="line"/>
      <point x="669" y="136" type="line"/>
      <point x="742" y="549" type="line"/>
      <point x="934" y="549" type="line" smooth="yes"/>
      <point x="979" y="549"/>
      <point x="1000" y="567"/>
      <point x="1009" y="617" type="curve" smooth="yes"/>
      <point x="1018" y="667"/>
      <point x="1003" y="685"/>
      <point x="958" y="685" type="curve" smooth="yes"/>
      <point x="766" y="685" type="line"/>
      <point x="831" y="1051" type="line"/>
      <point x="1091" y="1051" type="line"/>
      <point x="1058" y="865" type="line" smooth="yes"/>
      <point x="1050" y="819"/>
      <point x="1066" y="800"/>
      <point x="1122" y="800" type="curve" smooth="yes"/>
      <point x="1178" y="800"/>
      <point x="1200" y="819"/>
      <point x="1208" y="865" type="curve" smooth="yes"/>
      <point x="1253" y="1119" type="line" smooth="yes"/>
      <point x="1262" y="1169"/>
      <point x="1247" y="1187"/>
      <point x="1202" y="1187" type="curve" smooth="yes"/>
    </contour>
    <contour>
      <point x="585" y="510" type="line"/>
      <point x="404" y="510" type="line"/>
      <point x="661" y="1051" type="line"/>
      <point x="681" y="1051" type="line"/>
    </contour>
  </outline>
</glyph>
<glyph name="Ccedilla" format="1">
  <advance width="1228"/>
  <unicode hex="00C7"/>
  <outline>
    <contour>
      <point x="468" y="-175" type="line" smooth="yes"/>
      <point x="461" y="-213"/>
      <point x="481" y="-218"/>
      <point x="500" y="-217" type="curve" smooth="yes"/>
      <point x="585" y="-212"/>
      <point x="634" y="-226"/>
      <point x="634" y="-271" type="curve" smooth="yes"/>
      <point x="634" y="-317"/>
      <point x="598" y="-352"/>
      <point x="518" y="-352" type="curve" smooth="yes"/>
      <point x="451" y="-352"/>
      <point x="380" y="-338"/>
      <point x="331" y="-318" type="curve" smooth="yes"/>
      <point x="309" y="-309"/>
      <point x="285" y="-329"/>
      <point x="272" y="-354" type="curve" smooth="yes"/>
      <point x="258" y="-380"/>
      <point x="256" y="-412"/>
      <point x="279" y="-424" type="curve" smooth="yes"/>
      <point x="342" y="-456"/>
      <point x="428" y="-472"/>
      <point x="517" y="-472" type="curve" smooth="yes"/>
      <point x="621" y="-472"/>
      <point x="693" y="-445"/>
      <point x="737" y="-398" type="curve" smooth="yes"/>
      <point x="774" y="-359"/>
      <point x="791" y="-299"/>
      <point x="791" y="-258" type="curve" smooth="yes"/>
      <point x="791" y="-177"/>
      <point x="735" y="-111"/>
      <point x="613" y="-113" type="curve"/>
      <point x="629" y="-20" type="line"/>
      <point x="764" y="-11"/>
      <point x="898" y="32"/>
      <point x="1023" y="106" type="curve" smooth="yes"/>
      <point x="1063" y="130"/>
      <point x="1068" y="161"/>
      <point x="1045" y="207" type="curve" smooth="yes"/>
      <point x="1021" y="254"/>
      <point x="986" y="262"/>
      <point x="956" y="242" type="curve" smooth="yes"/>
      <point x="847" y="170"/>
      <point x="718" y="126"/>
      <point x="586" y="126" type="curve" smooth="yes"/>
      <point x="404" y="126"/>
      <point x="298" y="251"/>
      <point x="298" y="461" type="curve" smooth="yes"/>
      <point x="298" y="755"/>
      <point x="472" y="1061"/>
      <point x="761" y="1061" type="curve" smooth="yes"/>
      <point x="954" y="1061"/>
      <point x="1020" y="945"/>
      <point x="997" y="814" type="curve" smooth="yes"/>
      <point x="989" y="768"/>
      <point x="1005" y="749"/>
      <point x="1061" y="749" type="curve" smooth="yes"/>
      <point x="1117" y="749"/>
      <point x="1139" y="768"/>
      <point x="1147" y="814" type="curve" smooth="yes"/>
      <point x="1205" y="1144" type="line" smooth="yes"/>
      <point x="1213" y="1190"/>
      <point x="1198" y="1209"/>
      <point x="1142" y="1209" type="curve" smooth="yes"/>
      <point x="1086" y="1209"/>
      <point x="1063" y="1190"/>
      <point x="1055" y="1144" type="curve" smooth="yes"/>
      <point x="1044" y="1080" type="line"/>
      <point x="993" y="1159"/>
      <point x="903" y="1209"/>
      <point x="772" y="1209" type="curve" smooth="yes"/>
      <point x="387" y="1209"/>
      <point x="140" y="840"/>
      <point x="140" y="453" type="curve" smooth="yes"/>
      <point x="140" y="195"/>
      <point x="273" y="17"/>
      <point x="495" y="-16" type="curve"/>
    </contour>
  </outline>
</glyph>
<glyph name="Eth" format="1">
  <advance width="1228"/>
  <unicode hex="00D0"/>
  <outline>
    <contour>
      <point x="162" y="680" type="line" smooth="yes"/>
      <point x="117" y="680"/>
      <point x="96" y="662"/>
      <point x="87" y="612" type="curve" smooth="yes"/>
      <point x="79" y="562"/>
      <point x="93" y="544"/>
      <point x="138" y="544" type="curve" smooth="yes"/>
      <point x="620" y="544" type="line" smooth="yes"/>
      <point x="665" y="544"/>
      <point x="687" y="562"/>
      <point x="695" y="612" type="curve" smooth="yes"/>
      <point x="704" y="662"/>
      <point x="689" y="680"/>
      <point x="644" y="680" type="curve" smooth="yes"/>
    </contour>
    <component base="D"/>
  </outline>
</glyph>
<glyph name="multiply" format="1">
  <advance width="1228"/>
  <unicode hex="00D7"/>
  <outline>
    <contour>
      <point x="432" y="937" type="line" smooth="yes"/>
      <point x="403" y="971"/>
      <point x="377" y="973"/>
      <point x="339" y="941" type="curve" smooth="yes"/>
      <point x="301" y="909"/>
      <point x="299" y="883"/>
      <point x="328" y="849" type="curve" smooth="yes"/>
      <point x="549" y="590" type="line"/>
      <point x="253" y="338" type="line" smooth="yes"/>
      <point x="219" y="309"/>
      <point x="217" y="283"/>
      <point x="249" y="245" type="curve" smooth="yes"/>
      <point x="281" y="207"/>
      <point x="307" y="205"/>
      <point x="341" y="234" type="curve" smooth="yes"/>
      <point x="638" y="486" type="line"/>
      <point x="860" y="227" type="line" smooth="yes"/>
      <point x="889" y="193"/>
      <point x="915" y="191"/>
      <point x="953" y="223" type="curve" smooth="yes"/>
      <point x="991" y="255"/>
      <point x="993" y="281"/>
      <point x="964" y="315" type="curve" smooth="yes"/>
      <point x="742" y="574" type="line"/>
      <point x="1038" y="826" type="line" smooth="yes"/>
      <point x="1072" y="855"/>
      <point x="1074" y="881"/>
      <point x="1042" y="919" type="curve" smooth="yes"/>
      <point x="1010" y="957"/>
      <point x="984" y="959"/>
      <point x="950" y="930" type="curve" smooth="yes"/>
      <point x="653" y="678" type="line"/>
    </contour>
  </outline>
</glyph>
<glyph name="Oslash" format="1">
  <advance width="1228"/>
  <unicode hex="00D8"/>
  <outline>
    <contour>
      <point x="1126" y="1220"/>
      <point x="1086" y="1217"/>
      <point x="1053" y="1179" type="curve" smooth="yes"/>
      <point x="122" y="90" type="line" smooth="yes"/>
      <point x="90" y="52"/>
      <point x="101" y="25"/>
      <point x="137" y="-3" type="curve" smooth="yes"/>
      <point x="172" y="-31"/>
      <point x="211" y="-28"/>
      <point x="243" y="10" type="curve" smooth="yes"/>
      <point x="1174" y="1099" type="line" smooth="yes"/>
      <point x="1206" y="1137"/>
      <point x="1196" y="1164"/>
      <point x="1161" y="1192" type="curve" smooth="yes"/>
    </contour>
    <component base="O"/>
  </outline>
</glyph>
<glyph name="Thorn" format="1">
  <advance width="1228"/>
  <unicode hex="00DE"/>
  <outline>
    <contour>
      <point x="302" y="1187" type="line" smooth="yes"/>
      <point x="257" y="1187"/>
      <point x="236" y="1169"/>
      <point x="227" y="1119" type="curve" smooth="yes"/>
      <point x="218" y="1069"/>
      <point x="233" y="1051"/>
      <point x="278" y="1051" type="curve" smooth="yes"/>
      <point x="444" y="1051" type="line"/>
      <point x="282" y="136" type="line"/>
      <point x="136" y="136" type="line" smooth="yes"/>
      <point x="91" y="136"/>
      <point x="70" y="118"/>
      <point x="61" y="68" type="curve" smooth="yes"/>
      <point x="53" y="18"/>
      <point x="68" y="0"/>
      <point x="113" y="0" type="curve" smooth="yes"/>
      <point x="635" y="0" type="line" smooth="yes"/>
      <point x="680" y="0"/>
      <point x="701" y="18"/>
      <point x="709" y="68" type="curve" smooth="yes"/>
      <point x="718" y="118"/>
      <point x="703" y="136"/>
      <point x="658" y="136" type="curve" smooth="yes"/>
      <point x="432" y="136" type="line"/>
      <point x="457" y="273" type="line"/>
      <point x="698" y="273" type="line" smooth="yes"/>
      <point x="1012" y="273"/>
      <point x="1111" y="496"/>
      <point x="1111" y="654" type="curve" smooth="yes"/>
      <point x="1111" y="809"/>
      <point x="1004" y="927"/>
      <point x="793" y="927" type="curve" smooth="yes"/>
      <point x="572" y="927" type="line"/>
      <point x="594" y="1051" type="line"/>
      <point x="800" y="1051" type="line" smooth="yes"/>
      <point x="845" y="1051"/>
      <point x="866" y="1069"/>
      <point x="875" y="1119" type="curve" smooth="yes"/>
      <point x="884" y="1169"/>
      <point x="869" y="1187"/>
      <point x="824" y="1187" type="curve" smooth="yes"/>
    </contour>
    <contour>
      <point x="894" y="791"/>
      <point x="953" y="729"/>
      <point x="953" y="641" type="curve" smooth="yes"/>
      <point x="953" y="538"/>
      <point x="892" y="409"/>
      <point x="691" y="409" type="curve" smooth="yes"/>
      <point x="481" y="409" type="line"/>
      <point x="548" y="791" type="line"/>
      <point x="758" y="791" type="line" smooth="yes"/>
    </contour>
  </outline>
</glyph>
<glyph name="eth" format="1">
  <advance width="1228"/>
  <unicode hex="00F0"/>
  <outline>
    <contour>
      <point x="465" y="1074" type="line" smooth="yes"/>
      <point x="420" y="1058"/>
      <point x="410" y="1033"/>
      <point x="425" y="988" type="curve" smooth="yes"/>
      <point x="439" y="946"/>
      <point x="465" y="930"/>
      <point x="510" y="946" type="curve" smooth="yes"/>
      <point x="764" y="1035" type="line"/>
      <point x="836" y="968"/>
      <point x="893" y="892"/>
      <point x="929" y="803" type="curve"/>
      <point x="865" y="853"/>
      <point x="783" y="886"/>
      <point x="690" y="886" type="curve" smooth="yes"/>
      <point x="350" y="886"/>
      <point x="142" y="639"/>
      <point x="142" y="363" type="curve" smooth="yes"/>
      <point x="142" y="137"/>
      <point x="308" y="-22"/>
      <point x="550" y="-22" type="curve" smooth="yes"/>
      <point x="822" y="-22"/>
      <point x="1042" y="140"/>
      <point x="1090" y="412" type="curve" smooth="yes"/>
      <point x="1101" y="473"/>
      <point x="1106" y="532"/>
      <point x="1106" y="587" type="curve" smooth="yes"/>
      <point x="1106" y="792"/>
      <point x="1034" y="957"/>
      <point x="917" y="1089" type="curve"/>
      <point x="1102" y="1154" type="line" smooth="yes"/>
      <point x="1147" y="1170"/>
      <point x="1156" y="1197"/>
      <point x="1142" y="1240" type="curve" smooth="yes"/>
      <point x="1127" y="1286"/>
      <point x="1101" y="1298"/>
      <point x="1057" y="1282" type="curve" smooth="yes"/>
      <point x="806" y="1194" type="line"/>
      <point x="745" y="1242"/>
      <point x="678" y="1285"/>
      <point x="606" y="1323" type="curve" smooth="yes"/>
      <point x="569" y="1343"/>
      <point x="540" y="1335"/>
      <point x="513" y="1288" type="curve" smooth="yes"/>
      <point x="487" y="1243"/>
      <point x="496" y="1215"/>
      <point x="533" y="1195" type="curve" smooth="yes"/>
      <point x="569" y="1176"/>
      <point x="603" y="1155"/>
      <point x="636" y="1134" type="curve"/>
    </contour>
    <contour>
      <point x="841" y="738"/>
      <point x="942" y="645"/>
      <point x="942" y="496" type="curve" smooth="yes"/>
      <point x="942" y="307"/>
      <point x="799" y="126"/>
      <point x="566" y="126" type="curve" smooth="yes"/>
      <point x="399" y="126"/>
      <point x="298" y="219"/>
      <point x="298" y="367" type="curve" smooth="yes"/>
      <point x="298" y="570"/>
      <point x="451" y="738"/>
      <point x="674" y="738" type="curve" smooth="yes"/>
    </contour>
  </outline>
</glyph>
<glyph name="divide" format="1">
  <advance width="1228"/>
  <unicode hex="00F7"/>
  <outline>
    <contour>
      <point x="750" y="806"/>
      <point x="817" y="867"/>
      <point x="817" y="943" type="curve" smooth="yes"/>
      <point x="817" y="1000"/>
      <point x="775" y="1045"/>
      <point x="715" y="1045" type="curve" smooth="yes"/>
      <point x="644" y="1045"/>
      <point x="575" y="985"/>
      <point x="575" y="909" type="curve" smooth="yes"/>
      <point x="575" y="852"/>
      <point x="618" y="806"/>
      <point x="679" y="806" type="curve" smooth="yes"/>
    </contour>
    <contour>
      <point x="650" y="120"/>
      <point x="717" y="181"/>
      <point x="717" y="257" type="curve" smooth="yes"/>
      <point x="717" y="314"/>
      <point x="675" y="359"/>
      <point x="615" y="359" type="curve" smooth="yes"/>
      <point x="544" y="359"/>
      <point x="475" y="299"/>
      <point x="475" y="223" type="curve" smooth="yes"/>
      <point x="475" y="166"/>
      <point x="518" y="120"/>
      <point x="579" y="120" type="curve" smooth="yes"/>
    </contour>
    <contour>
      <point x="277" y="650" type="line" smooth="yes"/>
      <point x="232" y="650"/>
      <point x="211" y="632"/>
      <point x="202" y="582" type="curve" smooth="yes"/>
      <point x="193" y="532"/>
      <point x="208" y="514"/>
      <point x="253" y="514" type="curve" smooth="yes"/>
      <point x="1015" y="514" type="line" smooth="yes"/>
      <point x="1060" y="514"/>
      <point x="1081" y="532"/>
      <point x="1090" y="582" type="curve" smooth="yes"/>
      <point x="1099" y="632"/>
      <point x="1084" y="650"/>
      <point x="1039" y="650" type="curve" smooth="yes"/>
    </contour>
  </outline>
</glyph>
<glyph name="oslash" format="1">
  <advance width="1228"/>
  <unicode hex="00F8"/>
  <outline>
    <contour>
      <point x="357" y="946"/>
      <point x="126" y="679"/>
      <point x="126" y="386" type="curve" smooth="yes"/>
      <point x="126" y="309"/>
      <point x="144" y="238"/>
      <point x="178" y="179" type="curve"/>
      <point x="85" y="101" type="line" smooth="yes"/>
      <point x="47" y="69"/>
      <point x="53" y="41"/>
      <point x="81" y="6" type="curve" smooth="yes"/>
      <point x="108" y="-29"/>
      <point x="146" y="-31"/>
      <point x="185" y="1" type="curve" smooth="yes"/>
      <point x="268" y="71" type="line"/>
      <point x="341" y="12"/>
      <point x="438" y="-22"/>
      <point x="550" y="-22" type="curve" smooth="yes"/>
      <point x="893" y="-22"/>
      <point x="1124" y="245"/>
      <point x="1124" y="538" type="curve" smooth="yes"/>
      <point x="1124" y="615"/>
      <point x="1105" y="685"/>
      <point x="1071" y="745" type="curve"/>
      <point x="1163" y="822" type="line"/>
      <point x="1203" y="854"/>
      <point x="1197" y="883"/>
      <point x="1169" y="918" type="curve" smooth="yes"/>
      <point x="1142" y="953"/>
      <point x="1103" y="955"/>
      <point x="1064" y="923" type="curve" smooth="yes"/>
      <point x="981" y="853" type="line"/>
      <point x="908" y="912"/>
      <point x="812" y="946"/>
      <point x="700" y="946" type="curve" smooth="yes"/>
    </contour>
    <contour>
      <point x="960" y="607"/>
      <point x="967" y="570"/>
      <point x="967" y="530" type="curve" smooth="yes"/>
      <point x="967" y="317"/>
      <point x="801" y="126"/>
      <point x="566" y="126" type="curve" smooth="yes"/>
      <point x="496" y="126"/>
      <point x="437" y="143"/>
      <point x="391" y="174" type="curve"/>
      <point x="947" y="640" type="line"/>
    </contour>
    <contour>
      <point x="754" y="798"/>
      <point x="813" y="781"/>
      <point x="858" y="750" type="curve"/>
      <point x="303" y="284" type="line"/>
      <point x="290" y="317"/>
      <point x="283" y="354"/>
      <point x="283" y="394" type="curve" smooth="yes"/>
      <point x="283" y="607"/>
      <point x="449" y="798"/>
      <point x="684" y="798" type="curve" smooth="yes"/>
    </contour>
  </outline>
</glyph>
<glyph name="thorn" format="1">
  <advance width="1228"/>
  <unicode hex="00FE"/>
  <outline>
    <contour>
      <point x="281" y="1312" type="line" smooth="yes"/>
      <point x="236" y="1312"/>
      <point x="215" y="1294"/>
      <point x="206" y="1244" type="curve" smooth="yes"/>
      <point x="198" y="1194"/>
      <point x="212" y="1176"/>
      <point x="257" y="1176" type="curve" smooth="yes"/>
      <point x="339" y="1176" type="line"/>
      <point x="86" y="-257" type="line"/>
      <point x="4" y="-257" type="line" smooth="yes"/>
      <point x="-41" y="-257"/>
      <point x="-62" y="-275"/>
      <point x="-70" y="-325" type="curve" smooth="yes"/>
      <point x="-79" y="-375"/>
      <point x="-65" y="-393"/>
      <point x="-20" y="-393" type="curve" smooth="yes"/>
      <point x="464" y="-393" type="line" smooth="yes"/>
      <point x="509" y="-393"/>
      <point x="530" y="-375"/>
      <point x="539" y="-325" type="curve" smooth="yes"/>
      <point x="548" y="-275"/>
      <point x="533" y="-257"/>
      <point x="488" y="-257" type="curve" smooth="yes"/>
      <point x="236" y="-257" type="line"/>
      <point x="316" y="194" type="line"/>
      <point x="375" y="91"/>
      <point x="471" y="28"/>
      <point x="604" y="28" type="curve" smooth="yes"/>
      <point x="931" y="28"/>
      <point x="1122" y="289"/>
      <point x="1122" y="574" type="curve" smooth="yes"/>
      <point x="1122" y="802"/>
      <point x="971" y="946"/>
      <point x="755" y="946" type="curve" smooth="yes"/>
      <point x="632" y="946"/>
      <point x="520" y="894"/>
      <point x="422" y="798" type="curve"/>
      <point x="501" y="1244" type="line" smooth="yes"/>
      <point x="510" y="1294"/>
      <point x="495" y="1312"/>
      <point x="450" y="1312" type="curve" smooth="yes"/>
    </contour>
    <contour>
      <point x="884" y="798"/>
      <point x="965" y="703"/>
      <point x="965" y="562" type="curve" smooth="yes"/>
      <point x="965" y="372"/>
      <point x="844" y="176"/>
      <point x="620" y="176" type="curve" smooth="yes"/>
      <point x="465" y="176"/>
      <point x="361" y="264"/>
      <point x="361" y="418" type="curve" smooth="yes"/>
      <point x="361" y="591"/>
      <point x="480" y="798"/>
      <point x="729" y="798" type="curve" smooth="yes"/>
    </contour>
  </outline>
</glyph>
<glyph name="aogonek" format="1">
  <advance width="1228"/>
  <unicode hex="0105"/>
  <outline>
    <contour>
      <point x="282" y="946"/>
      <point x="121" y="625"/>
      <point x="121" y="366" type="curve" smooth="yes"/>
      <point x="121" y="127"/>
      <point x="270" y="-22"/>
      <point x="485" y="-22" type="curve" smooth="yes"/>
      <point x="613" y="-22"/>
      <point x="729" y="34"/>
      <point x="830" y="143" type="curve"/>
      <point x="833" y="88"/>
      <point x="857" y="47"/>
      <point x="894" y="23" type="curve"/>
      <point x="745" y="-86"/>
      <point x="659" y="-192"/>
      <point x="659" y="-310" type="curve" smooth="yes"/>
      <point x="659" y="-406"/>
      <point x="720" y="-472"/>
      <point x="827" y="-472" type="curve" smooth="yes"/>
      <point x="891" y="-472"/>
      <point x="957" y="-460"/>
      <point x="1006" y="-443" type="curve" smooth="yes"/>
      <point x="1037" y="-432"/>
      <point x="1047" y="-411"/>
      <point x="1042" y="-374" type="curve" smooth="yes"/>
      <point x="1037" y="-337"/>
      <point x="1022" y="-322"/>
      <point x="995" y="-326" type="curve" smooth="yes"/>
      <point x="959" y="-332"/>
      <point x="923" y="-336"/>
      <point x="884" y="-336" type="curve" smooth="yes"/>
      <point x="844" y="-336"/>
      <point x="819" y="-316"/>
      <point x="819" y="-277" type="curve" smooth="yes"/>
      <point x="819" y="-205"/>
      <point x="887" y="-117"/>
      <point x="1035" y="0" type="curve"/>
      <point x="1074" y="2"/>
      <point x="1093" y="21"/>
      <point x="1101" y="68" type="curve" smooth="yes"/>
      <point x="1110" y="118"/>
      <point x="1095" y="136"/>
      <point x="1050" y="136" type="curve" smooth="yes"/>
      <point x="1025" y="136" type="line" smooth="yes"/>
      <point x="988" y="136"/>
      <point x="974" y="160"/>
      <point x="981" y="201" type="curve" smooth="yes"/>
      <point x="1099" y="869" type="line" smooth="yes"/>
      <point x="1107" y="915"/>
      <point x="1096" y="934"/>
      <point x="1040" y="934" type="curve" smooth="yes"/>
      <point x="984" y="934"/>
      <point x="967" y="915"/>
      <point x="959" y="869" type="curve" smooth="yes"/>
      <point x="940" y="766" type="line"/>
      <point x="877" y="873"/>
      <point x="772" y="946"/>
      <point x="635" y="946" type="curve" smooth="yes"/>
    </contour>
    <contour>
      <point x="783" y="798"/>
      <point x="884" y="705"/>
      <point x="884" y="541" type="curve" smooth="yes"/>
      <point x="884" y="335"/>
      <point x="748" y="126"/>
      <point x="511" y="126" type="curve" smooth="yes"/>
      <point x="358" y="126"/>
      <point x="278" y="226"/>
      <point x="278" y="375" type="curve" smooth="yes"/>
      <point x="278" y="581"/>
      <point x="404" y="798"/>
      <point x="629" y="798" type="curve" smooth="yes"/>
    </contour>
  </outline>
</glyph>
<glyph name="dcaron" format="1">
  <advance width="1228"/>
  <unicode hex="010F"/>
  <outline>
    <contour>
      <point x="755" y="1312" type="line" smooth="yes"/>
      <point x="710" y="1312"/>
      <point x="689" y="1294"/>
      <point x="680" y="1244" type="curve" smooth="yes"/>
      <point x="671" y="1194"/>
      <point x="686" y="1176"/>
      <point x="731" y="1176" type="curve" smooth="yes"/>
      <point x="913" y="1176" type="line"/>
      <point x="838" y="750" type="line"/>
      <point x="793" y="837"/>
      <point x="707" y="896"/>
      <point x="586" y="896" type="curve" smooth="yes"/>
      <point x="276" y="896"/>
      <point x="128" y="602"/>
      <point x="128" y="343" type="curve" smooth="yes"/>
      <point x="128" y="120"/>
      <point x="258" y="-22"/>
      <point x="445" y="-22" type="curve" smooth="yes"/>
      <point x="575" y="-22"/>
      <point x="667" y="46"/>
      <point x="739" y="133" type="curve"/>
      <point x="727" y="68" type="line" smooth="yes"/>
      <point x="718" y="18"/>
      <point x="734" y="0"/>
      <point x="779" y="0" type="curve" smooth="yes"/>
      <point x="938" y="0" type="line" smooth="yes"/>
      <point x="983" y="0"/>
      <point x="1004" y="18"/>
      <point x="1012" y="68" type="curve" smooth="yes"/>
      <point x="1021" y="118"/>
      <point x="1006" y="136"/>
      <point x="961" y="136" type="curve" smooth="yes"/>
      <point x="879" y="136" type="line"/>
      <point x="1075" y="1244" type="line" smooth="yes"/>
      <point x="1084" y="1294"/>
      <point x="1069" y="1312"/>
      <point x="1024" y="1312" type="curve" smooth="yes"/>
    </contour>
    <contour>
      <point x="713" y="748"/>
      <point x="791" y="666"/>
      <point x="791" y="521" type="curve" smooth="yes"/>
      <point x="791" y="351"/>
      <point x="696" y="126"/>
      <point x="471" y="126" type="curve" smooth="yes"/>
      <point x="346" y="126"/>
      <point x="284" y="216"/>
      <point x="284" y="349" type="curve" smooth="yes"/>
      <point x="284" y="527"/>
      <point x="381" y="748"/>
      <point x="580" y="748" type="curve" smooth="yes"/>
    </contour>
    <component base="quoteright" xOffset="749" yOffset="332" xScale="0.810" yScale="0.811"/>
  </outline>
</glyph>
<glyph name="dcroat" format="1">
  <advance width="1228"/>
  <unicode hex="0111"/>
  <outline>
    <contour>
      <point x="815" y="1312" type="line" smooth="yes"/>
      <point x="770" y="1312"/>
      <point x="749" y="1294"/>
      <point x="740" y="1244" type="curve" smooth="yes"/>
      <point x="731" y="1194"/>
      <point x="746" y="1176"/>
      <point x="791" y="1176" type="curve" smooth="yes"/>
      <point x="993" y="1176" type="line"/>
      <point x="906" y="686" type="line"/>
      <point x="928" y="696" type="line"/>
      <point x="870" y="810"/>
      <point x="770" y="886"/>
      <point x="626" y="886" type="curve" smooth="yes"/>
      <point x="328" y="886"/>
      <point x="148" y="625"/>
      <point x="148" y="340" type="curve" smooth="yes"/>
      <point x="148" y="114"/>
      <point x="291" y="-22"/>
      <point x="495" y="-22" type="curve" smooth="yes"/>
      <point x="625" y="-22"/>
      <point x="744" y="43"/>
      <point x="844" y="160" type="curve"/>
      <point x="828" y="182" type="line"/>
      <point x="807" y="68" type="line" smooth="yes"/>
      <point x="798" y="18"/>
      <point x="814" y="0"/>
      <point x="859" y="0" type="curve" smooth="yes"/>
      <point x="1018" y="0" type="line" smooth="yes"/>
      <point x="1063" y="0"/>
      <point x="1084" y="18"/>
      <point x="1092" y="68" type="curve" smooth="yes"/>
      <point x="1101" y="118"/>
      <point x="1086" y="136"/>
      <point x="1041" y="136" type="curve" smooth="yes"/>
      <point x="959" y="136" type="line"/>
      <point x="1155" y="1244" type="line" smooth="yes"/>
      <point x="1164" y="1294"/>
      <point x="1149" y="1312"/>
      <point x="1104" y="1312" type="curve" smooth="yes"/>
    </contour>
    <contour>
      <point x="769" y="738"/>
      <point x="869" y="654"/>
      <point x="869" y="506" type="curve" smooth="yes"/>
      <point x="869" y="333"/>
      <point x="753" y="126"/>
      <point x="511" y="126" type="curve" smooth="yes"/>
      <point x="378" y="126"/>
      <point x="305" y="217"/>
      <point x="305" y="352" type="curve" smooth="yes"/>
      <point x="305" y="542"/>
      <point x="416" y="738"/>
      <point x="620" y="738" type="curve" smooth="yes"/>
    </contour>
    <contour>
      <point x="678" y="1106" type="line" smooth="yes"/>
      <point x="633" y="1106"/>
      <point x="611" y="1088"/>
      <point x="603" y="1038" type="curve" smooth="yes"/>
      <point x="594" y="988"/>
      <point x="609" y="970"/>
      <point x="654" y="970" type="curve" smooth="yes"/>
      <point x="1216" y="970" type="line" smooth="yes"/>
      <point x="1261" y="970"/>
      <point x="1282" y="988"/>
      <point x="1291" y="1038" type="curve" smooth="yes"/>
      <point x="1299" y="1088"/>
      <point x="1285" y="1106"/>
      <point x="1240" y="1106" type="curve" smooth="yes"/>
    </contour>
  </outline>
</glyph>
<glyph name="Eogonek" format="1">
  <advance width="1228"/>
  <unicode hex="0118"/>
  <outline>
    <contour>
      <point x="764" y="-336"/>
      <point x="739" y="-316"/>
      <point x="739" y="-277" type="curve" smooth="yes"/>
      <point x="739" y="-205"/>
      <point x="807" y="-117"/>
      <point x="955" y="0" type="curve"/>
      <point x="967" y="0" type="line" smooth="yes"/>
      <point x="1012" y="0"/>
      <point x="1033" y="18"/>
      <point x="1041" y="68" type="curve"/>
      <point x="1094" y="365" type="line" smooth="yes"/>
      <point x="1102" y="411"/>
      <point x="1086" y="430"/>
      <point x="1030" y="430" type="curve" smooth="yes"/>
      <point x="974" y="430"/>
      <point x="952" y="411"/>
      <point x="944" y="365" type="curve" smooth="yes"/>
      <point x="903" y="136" type="line"/>
      <point x="348" y="136" type="line"/>
      <point x="420" y="544" type="line"/>
      <point x="670" y="544" type="line"/>
      <point x="654" y="453" type="line" smooth="yes"/>
      <point x="646" y="407"/>
      <point x="662" y="388"/>
      <point x="718" y="388" type="curve" smooth="yes"/>
      <point x="774" y="388"/>
      <point x="796" y="407"/>
      <point x="804" y="453" type="curve" smooth="yes"/>
      <point x="860" y="771" type="line"/>
      <point x="869" y="817"/>
      <point x="853" y="836"/>
      <point x="797" y="836" type="curve" smooth="yes"/>
      <point x="741" y="836"/>
      <point x="719" y="817"/>
      <point x="710" y="771" type="curve"/>
      <point x="694" y="680" type="line"/>
      <point x="444" y="680" type="line"/>
      <point x="510" y="1051" type="line"/>
      <point x="1045" y="1051" type="line"/>
      <point x="1012" y="865" type="line" smooth="yes"/>
      <point x="1004" y="819"/>
      <point x="1020" y="800"/>
      <point x="1076" y="800" type="curve" smooth="yes"/>
      <point x="1132" y="800"/>
      <point x="1154" y="819"/>
      <point x="1162" y="865" type="curve" smooth="yes"/>
      <point x="1207" y="1119" type="line" smooth="yes"/>
      <point x="1216" y="1169"/>
      <point x="1201" y="1187"/>
      <point x="1156" y="1187" type="curve" smooth="yes"/>
      <point x="282" y="1187" type="line" smooth="yes"/>
      <point x="237" y="1187"/>
      <point x="216" y="1169"/>
      <point x="207" y="1119" type="curve" smooth="yes"/>
      <point x="198" y="1069"/>
      <point x="213" y="1051"/>
      <point x="258" y="1051" type="curve" smooth="yes"/>
      <point x="360" y="1051" type="line"/>
      <point x="198" y="136" type="line"/>
      <point x="96" y="136" type="line" smooth="yes"/>
      <point x="51" y="136"/>
      <point x="30" y="118"/>
      <point x="21" y="68" type="curve" smooth="yes"/>
      <point x="13" y="18"/>
      <point x="28" y="0"/>
      <point x="73" y="0" type="curve" smooth="yes"/>
      <point x="783" y="0" type="line"/>
      <point x="653" y="-101"/>
      <point x="579" y="-200"/>
      <point x="579" y="-310" type="curve" smooth="yes"/>
      <point x="579" y="-406"/>
      <point x="640" y="-472"/>
      <point x="747" y="-472" type="curve" smooth="yes"/>
      <point x="811" y="-472"/>
      <point x="877" y="-460"/>
      <point x="926" y="-443" type="curve" smooth="yes"/>
      <point x="957" y="-432"/>
      <point x="967" y="-411"/>
      <point x="962" y="-374" type="curve" smooth="yes"/>
      <point x="957" y="-337"/>
      <point x="942" y="-322"/>
      <point x="915" y="-326" type="curve" smooth="yes"/>
      <point x="879" y="-332"/>
      <point x="843" y="-336"/>
      <point x="804" y="-336" type="curve" smooth="yes"/>
    </contour>
  </outline>
</glyph>
<glyph name="eogonek" format="1">
  <advance width="1228"/>
  <unicode hex="0119"/>
  <outline>
    <contour>
      <point x="379" y="946"/>
      <point x="148" y="684"/>
      <point x="148" y="354" type="curve" smooth="yes"/>
      <point x="148" y="122"/>
      <point x="287" y="-22"/>
      <point x="539" y="-22" type="curve" smooth="yes"/>
      <point x="589" y="-22"/>
      <point x="640" y="-18"/>
      <point x="689" y="-11" type="curve"/>
      <point x="568" y="-108"/>
      <point x="499" y="-204"/>
      <point x="499" y="-310" type="curve" smooth="yes"/>
      <point x="499" y="-406"/>
      <point x="560" y="-472"/>
      <point x="667" y="-472" type="curve" smooth="yes"/>
      <point x="731" y="-472"/>
      <point x="797" y="-460"/>
      <point x="846" y="-443" type="curve" smooth="yes"/>
      <point x="877" y="-432"/>
      <point x="887" y="-411"/>
      <point x="882" y="-374" type="curve" smooth="yes"/>
      <point x="877" y="-337"/>
      <point x="862" y="-322"/>
      <point x="835" y="-326" type="curve" smooth="yes"/>
      <point x="799" y="-332"/>
      <point x="763" y="-336"/>
      <point x="724" y="-336" type="curve" smooth="yes"/>
      <point x="684" y="-336"/>
      <point x="659" y="-316"/>
      <point x="659" y="-277" type="curve" smooth="yes"/>
      <point x="659" y="-211"/>
      <point x="717" y="-131"/>
      <point x="843" y="-26" type="curve" smooth="yes"/>
      <point x="917" y="36"/>
      <point x="944" y="55"/>
      <point x="969" y="66" type="curve" smooth="yes"/>
      <point x="1011" y="85"/>
      <point x="1026" y="114"/>
      <point x="1010" y="166" type="curve" smooth="yes"/>
      <point x="994" y="217"/>
      <point x="962" y="232"/>
      <point x="929" y="215" type="curve" smooth="yes"/>
      <point x="828" y="164"/>
      <point x="688" y="123"/>
      <point x="554" y="123" type="curve" smooth="yes"/>
      <point x="398" y="123"/>
      <point x="304" y="194"/>
      <point x="304" y="361" type="curve" smooth="yes"/>
      <point x="304" y="602"/>
      <point x="449" y="801"/>
      <point x="704" y="801" type="curve" smooth="yes"/>
      <point x="849" y="801"/>
      <point x="921" y="734"/>
      <point x="921" y="650" type="curve" smooth="yes"/>
      <point x="921" y="592"/>
      <point x="899" y="558"/>
      <point x="822" y="550" type="curve" smooth="yes"/>
      <point x="281" y="488" type="line"/>
      <point x="248" y="348" type="line"/>
      <point x="853" y="411" type="line" smooth="yes"/>
      <point x="1015" y="428"/>
      <point x="1079" y="520"/>
      <point x="1079" y="655" type="curve" smooth="yes"/>
      <point x="1079" y="821"/>
      <point x="941" y="946"/>
      <point x="719" y="946" type="curve" smooth="yes"/>
    </contour>
  </outline>
</glyph>
<glyph name="Hbar" format="1">
  <advance width="1228"/>
  <unicode hex="0126"/>
  <outline>
    <contour>
      <point x="910" y="1187" type="line" smooth="yes"/>
      <point x="865" y="1187"/>
      <point x="844" y="1169"/>
      <point x="835" y="1119" type="curve" smooth="yes"/>
      <point x="826" y="1069"/>
      <point x="841" y="1051"/>
      <point x="886" y="1051" type="curve" smooth="yes"/>
      <point x="978" y="1051" type="line"/>
      <point x="955" y="924" type="line"/>
      <point x="457" y="924" type="line"/>
      <point x="480" y="1051" type="line"/>
      <point x="572" y="1051" type="line" smooth="yes"/>
      <point x="617" y="1051"/>
      <point x="638" y="1069"/>
      <point x="647" y="1119" type="curve" smooth="yes"/>
      <point x="656" y="1169"/>
      <point x="641" y="1187"/>
      <point x="596" y="1187" type="curve" smooth="yes"/>
      <point x="282" y="1187" type="line" smooth="yes"/>
      <point x="237" y="1187"/>
      <point x="216" y="1169"/>
      <point x="207" y="1119" type="curve" smooth="yes"/>
      <point x="198" y="1069"/>
      <point x="213" y="1051"/>
      <point x="258" y="1051" type="curve" smooth="yes"/>
      <point x="330" y="1051" type="line"/>
      <point x="307" y="924" type="line"/>
      <point x="185" y="924" type="line" smooth="yes"/>
      <point x="140" y="924"/>
      <point x="119" y="906"/>
      <point x="110" y="856" type="curve" smooth="yes"/>
      <point x="102" y="806"/>
      <point x="116" y="788"/>
      <point x="161" y="788" type="curve" smooth="yes"/>
      <point x="283" y="788" type="line"/>
      <point x="168" y="136" type="line"/>
      <point x="96" y="136" type="line" smooth="yes"/>
      <point x="51" y="136"/>
      <point x="30" y="118"/>
      <point x="21" y="68" type="curve" smooth="yes"/>
      <point x="13" y="18"/>
      <point x="28" y="0"/>
      <point x="73" y="0" type="curve" smooth="yes"/>
      <point x="387" y="0" type="line" smooth="yes"/>
      <point x="432" y="0"/>
      <point x="453" y="18"/>
      <point x="461" y="68" type="curve" smooth="yes"/>
      <point x="470" y="118"/>
      <point x="455" y="136"/>
      <point x="410" y="136" type="curve" smooth="yes"/>
      <point x="318" y="136" type="line"/>
      <point x="390" y="544" type="line"/>
      <point x="888" y="544" type="line"/>
      <point x="816" y="136" type="line"/>
      <point x="724" y="136" type="line" smooth="yes"/>
      <point x="679" y="136"/>
      <point x="658" y="118"/>
      <point x="649" y="68" type="curve" smooth="yes"/>
      <point x="641" y="18"/>
      <point x="656" y="0"/>
      <point x="701" y="0" type="curve" smooth="yes"/>
      <point x="1015" y="0" type="line" smooth="yes"/>
      <point x="1060" y="0"/>
      <point x="1081" y="18"/>
      <point x="1089" y="68" type="curve" smooth="yes"/>
      <point x="1098" y="118"/>
      <point x="1083" y="136"/>
      <point x="1038" y="136" type="curve" smooth="yes"/>
      <point x="966" y="136" type="line"/>
      <point x="1081" y="788" type="line"/>
      <point x="1203" y="788" type="line" smooth="yes"/>
      <point x="1248" y="788"/>
      <point x="1270" y="806"/>
      <point x="1278" y="856" type="curve" smooth="yes"/>
      <point x="1287" y="906"/>
      <point x="1272" y="924"/>
      <point x="1227" y="924" type="curve" smooth="yes"/>
      <point x="1105" y="924" type="line"/>
      <point x="1128" y="1051" type="line"/>
      <point x="1200" y="1051" type="line" smooth="yes"/>
      <point x="1245" y="1051"/>
      <point x="1266" y="1069"/>
      <point x="1275" y="1119" type="curve" smooth="yes"/>
      <point x="1284" y="1169"/>
      <point x="1269" y="1187"/>
      <point x="1224" y="1187" type="curve" smooth="yes"/>
    </contour>
    <contour>
      <point x="912" y="680" type="line"/>
      <point x="414" y="680" type="line"/>
      <point x="433" y="788" type="line"/>
      <point x="931" y="788" type="line"/>
    </contour>
  </outline>
</glyph>
<glyph name="hbar" format="1">
  <advance width="1228"/>
  <unicode hex="0127"/>
  <outline>
    <contour>
      <point x="531" y="1244" type="line" smooth="yes"/>
      <point x="540" y="1294"/>
      <point x="525" y="1312"/>
      <point x="480" y="1312" type="curve" smooth="yes"/>
      <point x="301" y="1312" type="line" smooth="yes"/>
      <point x="256" y="1312"/>
      <point x="235" y="1294"/>
      <point x="226" y="1244" type="curve" smooth="yes"/>
      <point x="217" y="1194"/>
      <point x="232" y="1176"/>
      <point x="277" y="1176" type="curve" smooth="yes"/>
      <point x="369" y="1176" type="line"/>
      <point x="360" y="1126" type="line"/>
      <point x="211" y="1126" type="line" smooth="yes"/>
      <point x="166" y="1126"/>
      <point x="145" y="1108"/>
      <point x="136" y="1058" type="curve" smooth="yes"/>
      <point x="127" y="1008"/>
      <point x="142" y="990"/>
      <point x="187" y="990" type="curve" smooth="yes"/>
      <point x="336" y="990" type="line"/>
      <point x="171" y="55" type="line" smooth="yes"/>
      <point x="163" y="9"/>
      <point x="179" y="-10"/>
      <point x="235" y="-10" type="curve" smooth="yes"/>
      <point x="291" y="-10"/>
      <point x="313" y="9"/>
      <point x="321" y="55" type="curve" smooth="yes"/>
      <point x="382" y="402" type="line" smooth="yes"/>
      <point x="420" y="620"/>
      <point x="601" y="798"/>
      <point x="772" y="798" type="curve" smooth="yes"/>
      <point x="863" y="798"/>
      <point x="905" y="743"/>
      <point x="905" y="658" type="curve" smooth="yes"/>
      <point x="905" y="641"/>
      <point x="903" y="624"/>
      <point x="900" y="605" type="curve" smooth="yes"/>
      <point x="805" y="68" type="line" smooth="yes"/>
      <point x="796" y="18"/>
      <point x="812" y="0"/>
      <point x="857" y="0" type="curve" smooth="yes"/>
      <point x="1026" y="0" type="line" smooth="yes"/>
      <point x="1071" y="0"/>
      <point x="1092" y="18"/>
      <point x="1100" y="68" type="curve" smooth="yes"/>
      <point x="1109" y="118"/>
      <point x="1094" y="136"/>
      <point x="1049" y="136" type="curve" smooth="yes"/>
      <point x="967" y="136" type="line"/>
      <point x="1051" y="610" type="line" smooth="yes"/>
      <point x="1056" y="637"/>
      <point x="1058" y="663"/>
      <point x="1058" y="687" type="curve" smooth="yes"/>
      <point x="1058" y="844"/>
      <point x="962" y="946"/>
      <point x="803" y="946" type="curve" smooth="yes"/>
      <point x="677" y="946"/>
      <point x="553" y="877"/>
      <point x="444" y="750" type="curve"/>
      <point x="486" y="990" type="line"/>
      <point x="749" y="990" type="line" smooth="yes"/>
      <point x="794" y="990"/>
      <point x="815" y="1008"/>
      <point x="824" y="1058" type="curve" smooth="yes"/>
      <point x="833" y="1108"/>
      <point x="818" y="1126"/>
      <point x="773" y="1126" type="curve" smooth="yes"/>
      <point x="510" y="1126" type="line"/>
    </contour>
  </outline>
</glyph>
<glyph name="Iogonek" format="1">
  <advance width="1228"/>
  <unicode hex="012E"/>
  <outline>
    <contour>
      <point x="412" y="1187" type="line" smooth="yes"/>
      <point x="367" y="1187"/>
      <point x="346" y="1169"/>
      <point x="337" y="1119" type="curve" smooth="yes"/>
      <point x="328" y="1069"/>
      <point x="343" y="1051"/>
      <point x="388" y="1051" type="curve" smooth="yes"/>
      <point x="654" y="1051" type="line"/>
      <point x="492" y="136" type="line"/>
      <point x="226" y="136" type="line" smooth="yes"/>
      <point x="181" y="136"/>
      <point x="160" y="118"/>
      <point x="151" y="68" type="curve" smooth="yes"/>
      <point x="143" y="18"/>
      <point x="158" y="0"/>
      <point x="203" y="0" type="curve" smooth="yes"/>
      <point x="453" y="0" type="line"/>
      <point x="323" y="-101"/>
      <point x="249" y="-200"/>
      <point x="249" y="-310" type="curve" smooth="yes"/>
      <point x="249" y="-406"/>
      <point x="310" y="-472"/>
      <point x="417" y="-472" type="curve" smooth="yes"/>
      <point x="481" y="-472"/>
      <point x="547" y="-460"/>
      <point x="596" y="-443" type="curve" smooth="yes"/>
      <point x="627" y="-432"/>
      <point x="637" y="-411"/>
      <point x="632" y="-374" type="curve" smooth="yes"/>
      <point x="627" y="-337"/>
      <point x="612" y="-322"/>
      <point x="585" y="-326" type="curve" smooth="yes"/>
      <point x="549" y="-332"/>
      <point x="513" y="-336"/>
      <point x="474" y="-336" type="curve" smooth="yes"/>
      <point x="434" y="-336"/>
      <point x="409" y="-316"/>
      <point x="409" y="-277" type="curve" smooth="yes"/>
      <point x="409" y="-205"/>
      <point x="477" y="-117"/>
      <point x="625" y="0" type="curve"/>
      <point x="905" y="0" type="line" smooth="yes"/>
      <point x="950" y="0"/>
      <point x="971" y="18"/>
      <point x="979" y="68" type="curve" smooth="yes"/>
      <point x="988" y="118"/>
      <point x="973" y="136"/>
      <point x="928" y="136" type="curve" smooth="yes"/>
      <point x="642" y="136" type="line"/>
      <point x="804" y="1051" type="line"/>
      <point x="1050" y="1051" type="line" smooth="yes"/>
      <point x="1095" y="1051"/>
      <point x="1116" y="1069"/>
      <point x="1125" y="1119" type="curve" smooth="yes"/>
      <point x="1134" y="1169"/>
      <point x="1119" y="1187"/>
      <point x="1074" y="1187" type="curve" smooth="yes"/>
    </contour>
  </outline>
</glyph>
<glyph name="iogonek" format="1">
  <advance width="1228"/>
  <unicode hex="012F"/>
  <outline>
    <contour>
      <point x="551" y="788" type="line"/>
      <point x="467" y="307" type="line" smooth="yes"/>
      <point x="462" y="280"/>
      <point x="460" y="254"/>
      <point x="460" y="229" type="curve" smooth="yes"/>
      <point x="460" y="108"/>
      <point x="517" y="24"/>
      <point x="623" y="-8" type="curve"/>
      <point x="500" y="-106"/>
      <point x="429" y="-203"/>
      <point x="429" y="-310" type="curve" smooth="yes"/>
      <point x="429" y="-406"/>
      <point x="490" y="-472"/>
      <point x="597" y="-472" type="curve" smooth="yes"/>
      <point x="661" y="-472"/>
      <point x="727" y="-460"/>
      <point x="776" y="-443" type="curve" smooth="yes"/>
      <point x="807" y="-432"/>
      <point x="817" y="-411"/>
      <point x="812" y="-374" type="curve" smooth="yes"/>
      <point x="807" y="-337"/>
      <point x="792" y="-322"/>
      <point x="765" y="-326" type="curve" smooth="yes"/>
      <point x="729" y="-332"/>
      <point x="693" y="-336"/>
      <point x="654" y="-336" type="curve" smooth="yes"/>
      <point x="614" y="-336"/>
      <point x="589" y="-316"/>
      <point x="589" y="-277" type="curve" smooth="yes"/>
      <point x="589" y="-209"/>
      <point x="650" y="-127"/>
      <point x="781" y="-19" type="curve"/>
      <point x="862" y="-11"/>
      <point x="945" y="17"/>
      <point x="1029" y="65" type="curve" smooth="yes"/>
      <point x="1066" y="86"/>
      <point x="1077" y="113"/>
      <point x="1059" y="161" type="curve" smooth="yes"/>
      <point x="1041" y="208"/>
      <point x="1009" y="220"/>
      <point x="976" y="200" type="curve" smooth="yes"/>
      <point x="894" y="149"/>
      <point x="821" y="124"/>
      <point x="744" y="124" type="curve" smooth="yes"/>
      <point x="651" y="124"/>
      <point x="610" y="160"/>
      <point x="610" y="244" type="curve" smooth="yes"/>
      <point x="610" y="263"/>
      <point x="613" y="286"/>
      <point x="617" y="310" type="curve" smooth="yes"/>
      <point x="713" y="856" type="line" smooth="yes"/>
      <point x="722" y="906"/>
      <point x="707" y="924"/>
      <point x="662" y="924" type="curve" smooth="yes"/>
      <point x="322" y="924" type="line" smooth="yes"/>
      <point x="277" y="924"/>
      <point x="256" y="906"/>
      <point x="247" y="856" type="curve" smooth="yes"/>
      <point x="239" y="806"/>
      <point x="253" y="788"/>
      <point x="298" y="788" type="curve" smooth="yes"/>
    </contour>
    <contour>
      <point x="791" y="1298" type="line" smooth="yes"/>
      <point x="799" y="1344"/>
      <point x="784" y="1363"/>
      <point x="708" y="1363" type="curve" smooth="yes"/>
      <point x="632" y="1363"/>
      <point x="609" y="1344"/>
      <point x="601" y="1298" type="curve" smooth="yes"/>
      <point x="578" y="1168" type="line" smooth="yes"/>
      <point x="570" y="1122"/>
      <point x="586" y="1103"/>
      <point x="662" y="1103" type="curve" smooth="yes"/>
      <point x="738" y="1103"/>
      <point x="760" y="1122"/>
      <point x="768" y="1168" type="curve" smooth="yes"/>
    </contour>
  </outline>
</glyph>
<glyph name="ij" format="1">
  <advance width="1228"/>
  <unicode hex="0133"/>
  <outline>
    <contour>
      <point x="792" y="924" type="line" smooth="yes"/>
      <point x="747" y="924"/>
      <point x="726" y="906"/>
      <point x="717" y="856" type="curve" smooth="yes"/>
      <point x="709" y="806"/>
      <point x="723" y="788"/>
      <point x="768" y="788" type="curve" smooth="yes"/>
      <point x="991" y="788" type="line"/>
      <point x="844" y="-49" type="line" smooth="yes"/>
      <point x="818" y="-196"/>
      <point x="762" y="-269"/>
      <point x="628" y="-269" type="curve" smooth="yes"/>
      <point x="545" y="-269"/>
      <point x="473" y="-247"/>
      <point x="404" y="-204" type="curve" smooth="yes"/>
      <point x="375" y="-186"/>
      <point x="343" y="-194"/>
      <point x="316" y="-246" type="curve" smooth="yes"/>
      <point x="291" y="-295"/>
      <point x="298" y="-323"/>
      <point x="330" y="-342" type="curve" smooth="yes"/>
      <point x="401" y="-383"/>
      <point x="505" y="-415"/>
      <point x="612" y="-415" type="curve" smooth="yes"/>
      <point x="844" y="-415"/>
      <point x="950" y="-301"/>
      <point x="990" y="-72" type="curve" smooth="yes"/>
      <point x="1153" y="856" type="line" smooth="yes"/>
      <point x="1162" y="906"/>
      <point x="1147" y="924"/>
      <point x="1102" y="924" type="curve" smooth="yes"/>
    </contour>
    <contour>
      <point x="232" y="924" type="line" smooth="yes"/>
      <point x="187" y="924"/>
      <point x="166" y="906"/>
      <point x="157" y="856" type="curve" smooth="yes"/>
      <point x="149" y="806"/>
      <point x="163" y="788"/>
      <point x="208" y="788" type="curve" smooth="yes"/>
      <point x="331" y="788" type="line"/>
      <point x="237" y="251" type="line" smooth="yes"/>
      <point x="234" y="234"/>
      <point x="232" y="212"/>
      <point x="232" y="193" type="curve" smooth="yes"/>
      <point x="232" y="65"/>
      <point x="314" y="-22"/>
      <point x="459" y="-22" type="curve" smooth="yes"/>
      <point x="512" y="-22"/>
      <point x="567" y="-13"/>
      <point x="613" y="-1" type="curve" smooth="yes"/>
      <point x="653" y="9"/>
      <point x="667" y="35"/>
      <point x="661" y="84" type="curve" smooth="yes"/>
      <point x="654" y="138"/>
      <point x="633" y="156"/>
      <point x="595" y="144" type="curve" smooth="yes"/>
      <point x="555" y="131"/>
      <point x="513" y="124"/>
      <point x="474" y="124" type="curve" smooth="yes"/>
      <point x="414" y="124"/>
      <point x="383" y="152"/>
      <point x="383" y="210" type="curve" smooth="yes"/>
      <point x="383" y="222"/>
      <point x="384" y="235"/>
      <point x="387" y="250" type="curve" smooth="yes"/>
      <point x="493" y="856" type="line" smooth="yes"/>
      <point x="502" y="906"/>
      <point x="487" y="924"/>
      <point x="442" y="924" type="curve" smooth="yes"/>
    </contour>
    <contour>
      <point x="412" y="1363"/>
      <point x="389" y="1344"/>
      <point x="381" y="1298" type="curve" smooth="yes"/>
      <point x="358" y="1168" type="line" smooth="yes"/>
      <point x="350" y="1122"/>
      <point x="366" y="1103"/>
      <point x="442" y="1103" type="curve" smooth="yes"/>
      <point x="518" y="1103"/>
      <point x="540" y="1122"/>
      <point x="548" y="1168" type="curve" smooth="yes"/>
      <point x="571" y="1298" type="line" smooth="yes"/>
      <point x="579" y="1344"/>
      <point x="564" y="1363"/>
      <point x="488" y="1363" type="curve" smooth="yes"/>
    </contour>
    <contour>
      <point x="1072" y="1363"/>
      <point x="1049" y="1344"/>
      <point x="1041" y="1298" type="curve" smooth="yes"/>
      <point x="1018" y="1168" type="line" smooth="yes"/>
      <point x="1010" y="1122"/>
      <point x="1026" y="1103"/>
      <point x="1102" y="1103" type="curve" smooth="yes"/>
      <point x="1178" y="1103"/>
      <point x="1200" y="1122"/>
      <point x="1208" y="1168" type="curve" smooth="yes"/>
      <point x="1231" y="1298" type="line" smooth="yes"/>
      <point x="1239" y="1344"/>
      <point x="1224" y="1363"/>
      <point x="1148" y="1363" type="curve" smooth="yes"/>
    </contour>
  </outline>
</glyph>
<glyph name="Ldot" format="1">
  <advance width="1228"/>
  <unicode hex="013F"/>
  <outline>
    <contour>
      <point x="282" y="1187" type="line" smooth="yes"/>
      <point x="237" y="1187"/>
      <point x="216" y="1169"/>
      <point x="207" y="1119" type="curve" smooth="yes"/>
      <point x="198" y="1069"/>
      <point x="213" y="1051"/>
      <point x="258" y="1051" type="curve" smooth="yes"/>
      <point x="420" y="1051" type="line"/>
      <point x="258" y="136" type="line"/>
      <point x="96" y="136" type="line" smooth="yes"/>
      <point x="51" y="136"/>
      <point x="30" y="118"/>
      <point x="21" y="68" type="curve" smooth="yes"/>
      <point x="13" y="18"/>
      <point x="28" y="0"/>
      <point x="73" y="0" type="curve" smooth="yes"/>
      <point x="967" y="0" type="line" smooth="yes"/>
      <point x="1012" y="0"/>
      <point x="1033" y="18"/>
      <point x="1041" y="68" type="curve" smooth="yes"/>
      <point x="1111" y="465" type="line" smooth="yes"/>
      <point x="1120" y="511"/>
      <point x="1104" y="530"/>
      <point x="1048" y="530" type="curve" smooth="yes"/>
      <point x="992" y="530"/>
      <point x="970" y="511"/>
      <point x="961" y="465" type="curve" smooth="yes"/>
      <point x="903" y="136" type="line"/>
      <point x="408" y="136" type="line"/>
      <point x="570" y="1051" type="line"/>
      <point x="812" y="1051" type="line" smooth="yes"/>
      <point x="857" y="1051"/>
      <point x="878" y="1069"/>
      <point x="887" y="1119" type="curve" smooth="yes"/>
      <point x="896" y="1169"/>
      <point x="881" y="1187"/>
      <point x="836" y="1187" type="curve" smooth="yes"/>
    </contour>
    <component base="dotaccent" xOffset="41" yOffset="-510"/>
  </outline>
</glyph>
